<svg width="24" height="24" viewBox="0 0 24 24" fill="none" xmlns="http://www.w3.org/2000/svg">
<path d="M18.3009 3.52881C18.2132 3.52903 18.1271 3.50572 18.0515 3.46131C15.9712 2.34756 14.1726 1.87506 12.0164 1.87506C9.87088 1.87506 7.8337 2.40381 5.98073 3.46131C5.7187 3.60943 5.39573 3.50631 5.24385 3.23443C5.17606 3.10321 5.16077 2.9511 5.20108 2.80901C5.24139 2.66692 5.33428 2.54551 5.46088 2.46943C7.45933 1.33596 9.71885 0.743332 12.0164 0.750057C14.324 0.750057 16.3396 1.27881 18.5503 2.46006C18.6792 2.53097 18.7753 2.64961 18.8178 2.79053C18.8603 2.93144 18.8459 3.0834 18.7776 3.21381C18.7366 3.30639 18.6699 3.38527 18.5854 3.4411C18.5009 3.49693 18.4021 3.52737 18.3009 3.52881ZM2.7951 9.43506C2.68252 9.43426 2.57289 9.39891 2.48104 9.33381C2.36154 9.24499 2.28117 9.11327 2.25686 8.96637C2.23255 8.81948 2.2662 8.66888 2.35073 8.54631C3.4237 6.97131 4.78823 5.73381 6.41432 4.86756C9.81651 3.04693 14.1726 3.03381 17.5856 4.85631C19.2112 5.72256 20.5762 6.94881 21.6492 8.51256C21.7333 8.63524 21.7668 8.78574 21.7425 8.93253C21.7182 9.07932 21.6381 9.21103 21.5189 9.30006C21.461 9.34328 21.3949 9.37419 21.3247 9.39085C21.2544 9.40751 21.1815 9.40958 21.1104 9.39692C21.0393 9.38427 20.9715 9.35716 20.9114 9.31728C20.8512 9.2774 20.7998 9.22559 20.7604 9.16506C19.7854 7.74756 18.5503 6.63381 17.0873 5.85756C13.9776 4.20381 10.0007 4.20381 6.90182 5.86881C5.42807 6.65631 4.19292 7.78131 3.21792 9.19693C3.17587 9.27142 3.11425 9.33299 3.03972 9.37496C2.96519 9.41694 2.8806 9.43772 2.7951 9.43506ZM9.56713 23.0157C9.49552 23.0164 9.4246 23.0017 9.35917 22.9725C9.29375 22.9434 9.23534 22.9006 9.18791 22.8469C8.24526 21.8663 7.73432 21.2344 7.0101 19.8751C6.2601 18.4913 5.87245 16.8038 5.87245 14.9926C5.87245 11.6513 8.62448 8.92881 12.0056 8.92881C15.3867 8.92881 18.1406 11.6513 18.1406 14.9926C18.1427 15.065 18.1303 15.1372 18.104 15.2048C18.0778 15.2723 18.0382 15.334 17.9877 15.386C17.9372 15.438 17.8767 15.4793 17.81 15.5076C17.7432 15.5358 17.6714 15.5504 17.5989 15.5504C17.5264 15.5504 17.4547 15.5358 17.3879 15.5076C17.3211 15.4793 17.2607 15.438 17.2102 15.386C17.1597 15.334 17.1201 15.2723 17.0939 15.2048C17.0676 15.1372 17.0552 15.065 17.0573 14.9926C17.0573 12.2701 14.7923 10.0538 12.0079 10.0538C9.22354 10.0538 6.9562 12.2701 6.9562 14.9926C6.9562 16.6126 7.3026 18.1088 7.96354 19.3238C8.65729 20.6176 9.13542 21.1688 9.96838 22.0463C10.0672 22.1555 10.1219 22.2975 10.1219 22.4447C10.1219 22.592 10.0672 22.734 9.96838 22.8432C9.86203 22.9505 9.71818 23.0123 9.56713 23.0157ZM17.3367 20.9344C16.0471 20.9344 14.9095 20.5969 13.9776 19.9332C13.1837 19.3767 12.5351 18.6376 12.0864 17.7781C11.6377 16.9187 11.4022 15.964 11.3995 14.9944C11.3964 14.9214 11.4082 14.8485 11.4341 14.7801C11.4599 14.7117 11.4994 14.6492 11.55 14.5964C11.6006 14.5437 11.6614 14.5017 11.7286 14.473C11.7959 14.4443 11.8682 14.4295 11.9414 14.4295C12.0145 14.4295 12.0868 14.4443 12.1541 14.473C12.2214 14.5017 12.2821 14.5437 12.3327 14.5964C12.3834 14.6492 12.4228 14.7117 12.4486 14.7801C12.4745 14.8485 12.4863 14.9214 12.4832 14.9944C12.485 15.7819 12.6771 16.5574 13.0431 17.2547C13.409 17.952 13.938 18.5506 14.5851 18.9994C15.3543 19.5394 16.2539 19.7963 17.3376 19.7963C17.715 19.7896 18.0913 19.752 18.4626 19.6838C18.7551 19.6276 19.0368 19.8301 19.0907 20.1451C19.1182 20.2904 19.0869 20.4408 19.0037 20.5631C18.9205 20.6854 18.7921 20.7697 18.6468 20.7976C18.2152 20.8828 17.7766 20.928 17.3367 20.9326V20.9344ZM15.1584 23.2501C15.1108 23.2481 15.0636 23.2405 15.0178 23.2276C13.2946 22.7326 12.1678 22.0688 10.9865 20.8651C9.46917 19.3013 8.63526 17.2201 8.63526 14.9926C8.63526 13.1701 10.1306 11.6851 11.9723 11.6851C13.814 11.6851 15.3098 13.1701 15.3098 14.9926C15.3098 16.1963 16.3176 17.1751 17.5635 17.1751C18.8095 17.1751 19.8173 16.1963 19.8173 14.9926C19.8173 10.7513 16.2956 7.30881 11.9615 7.30881C8.88416 7.30881 6.06698 9.08631 4.79948 11.8426C4.3776 12.7538 4.1601 13.8226 4.1601 14.9926C4.1601 15.8701 4.23557 17.2538 4.88573 19.0538C4.99448 19.3463 4.85338 19.6726 4.57166 19.7738C4.50471 19.7993 4.4333 19.811 4.36171 19.8082C4.29012 19.8054 4.21984 19.7882 4.15509 19.7575C4.09033 19.7269 4.03244 19.6834 3.98489 19.6299C3.93734 19.5763 3.90111 19.5136 3.87838 19.4457C3.35558 18.0192 3.08775 16.5118 3.08713 14.9926C3.08713 13.6426 3.33651 12.4144 3.82401 11.3476C5.26542 8.20693 8.46182 6.17256 11.9615 6.17256C16.8918 6.17256 20.901 10.1213 20.901 14.9813C20.901 16.8038 19.4057 18.2888 17.5635 18.2888C15.7214 18.2888 14.226 16.8038 14.226 14.9813C14.2265 13.7776 13.2187 12.7969 11.9728 12.7969C10.7268 12.7969 9.71901 13.7757 9.71901 14.9794C9.71901 16.9013 10.4343 18.7032 11.7454 20.0532C12.7767 21.1107 13.761 21.6938 15.2887 22.1344C15.5812 22.2132 15.7439 22.5282 15.6679 22.8207C15.6443 22.9394 15.5809 23.0466 15.4884 23.1246C15.3958 23.2026 15.2794 23.2469 15.1584 23.2501Z" fill="black"/>
</svg>
