<svg width="24" height="24" viewBox="0 0 24 24" fill="none" xmlns="http://www.w3.org/2000/svg">
<path d="M11.5 11.792L14.5 14.792C14.5933 14.8854 14.6433 15.0004 14.65 15.137C14.6567 15.2737 14.6067 15.3947 14.5 15.5C14.3933 15.6054 14.2753 15.6587 14.146 15.66C14.0167 15.6614 13.8987 15.608 13.792 15.5L10.742 12.45C10.6553 12.3634 10.5933 12.272 10.556 12.176C10.5187 12.08 10.5 11.981 10.5 11.879V7.50003C10.5 7.35803 10.548 7.23937 10.644 7.14403C10.74 7.0487 10.859 7.0007 11.001 7.00003C11.143 6.99937 11.2617 7.04737 11.357 7.14403C11.4523 7.2407 11.5 7.35937 11.5 7.50003V11.792ZM18 5.88503H15.5C15.358 5.88503 15.2393 5.83703 15.144 5.74103C15.048 5.64503 15 5.52603 15 5.38403C15 5.24203 15.048 5.12337 15.144 5.02803C15.24 4.9327 15.3587 4.88503 15.5 4.88503H18V2.38503C18 2.24303 18.048 2.12403 18.144 2.02803C18.24 1.93203 18.359 1.88403 18.501 1.88403C18.643 1.88403 18.7617 1.93203 18.857 2.02803C18.9523 2.12403 19 2.24303 19 2.38503V4.88503H21.5C21.642 4.88503 21.7607 4.93303 21.856 5.02903C21.9513 5.12503 21.9993 5.2437 22 5.38503C22.0007 5.52637 21.9527 5.64503 21.856 5.74103C21.7593 5.83703 21.6407 5.88503 21.5 5.88503H19V8.38503C19 8.52637 18.952 8.64503 18.856 8.74103C18.76 8.83703 18.641 8.8847 18.499 8.88403C18.357 8.88337 18.2383 8.8357 18.143 8.74103C18.0477 8.64637 18 8.52737 18 8.38403V5.88503ZM11.003 20C9.89234 20 8.85134 19.7927 7.88 19.378C6.90867 18.9634 6.06034 18.3934 5.335 17.668C4.60967 16.9427 4.039 16.0947 3.623 15.124C3.207 14.1534 2.99933 13.113 3 12.003C3.00067 10.893 3.208 9.85203 3.622 8.88003C4.036 7.90803 4.60634 7.05937 5.333 6.33403C6.05967 5.60803 6.908 5.0377 7.878 4.62303C8.848 4.20837 9.88867 4.0007 11 4.00003C11.1833 4.00003 11.3543 4.00437 11.513 4.01303C11.6717 4.0217 11.8423 4.04237 12.025 4.07503C12.1677 4.07503 12.2867 4.1217 12.382 4.21503C12.4773 4.30837 12.525 4.4307 12.525 4.58203C12.525 4.72003 12.4773 4.8367 12.382 4.93203C12.2867 5.02737 12.1677 5.07503 12.025 5.07503C11.8417 5.07503 11.672 5.06237 11.516 5.03703C11.36 5.0117 11.188 4.99937 11 5.00003C9.05934 5.00003 7.40734 5.68137 6.044 7.04403C4.68067 8.4067 3.99933 10.0587 4 12C4.00067 13.9414 4.682 15.5934 6.044 16.956C7.406 18.3187 9.058 19 11 19C12.942 19 14.594 18.3187 15.956 16.956C17.318 15.5934 17.9993 13.9414 18 12C18 11.858 18.048 11.7394 18.144 11.644C18.24 11.5487 18.359 11.5007 18.501 11.5C18.643 11.4994 18.7617 11.5474 18.857 11.644C18.9523 11.7407 19 11.8594 19 12C19 13.1114 18.7927 14.152 18.378 15.122C17.9633 16.092 17.3933 16.9404 16.668 17.667C15.942 18.3924 15.094 18.9624 14.124 19.377C13.154 19.7924 12.1137 20 11.003 20Z" fill="black"/>
</svg>
