<svg width="25" height="25" viewBox="0 0 25 25" fill="none" xmlns="http://www.w3.org/2000/svg">
<g clip-path="url(#clip0_1_1495)">
<path d="M12.5 11.35L6.575 7.925L5.5 8.55V9.6L12.5 13.65L19.5 9.6V8.55L18.425 7.925L12.5 11.35ZM11.5 22.225L4.5 18.2C4.18333 18.0167 3.93767 17.775 3.763 17.475C3.58833 17.175 3.50067 16.8417 3.5 16.475V8.525C3.5 8.15833 3.58767 7.825 3.763 7.525C3.93833 7.225 4.184 6.98333 4.5 6.8L11.5 2.775C11.8167 2.59167 12.15 2.5 12.5 2.5C12.85 2.5 13.1833 2.59167 13.5 2.775L20.5 6.8C20.8167 6.98333 21.0627 7.225 21.238 7.525C21.4133 7.825 21.5007 8.15833 21.5 8.525V13.175C21.05 12.9583 20.571 12.7917 20.063 12.675C19.555 12.5583 19.034 12.5 18.5 12.5C16.5667 12.5 14.9167 13.1833 13.55 14.55C12.1833 15.9167 11.5 17.5667 11.5 19.5C11.5 20.0333 11.5543 20.546 11.663 21.038C11.7717 21.53 11.934 22.0007 12.15 22.45C12.0333 22.4167 11.921 22.3877 11.813 22.363C11.705 22.3383 11.6007 22.2923 11.5 22.225ZM18.5 24.5C17.1167 24.5 15.9377 24.0123 14.963 23.037C13.9883 22.0617 13.5007 20.8827 13.5 19.5C13.4993 18.1173 13.987 16.9383 14.963 15.963C15.939 14.9877 17.118 14.5 18.5 14.5C19.882 14.5 21.0613 14.9877 22.038 15.963C23.0147 16.9383 23.502 18.1173 23.5 19.5C23.498 20.8827 23.0103 22.062 22.037 23.038C21.0637 24.014 19.8847 24.5013 18.5 24.5ZM19 19.3V16.5H18V19.7L20.15 21.85L20.85 21.15L19 19.3Z" fill="#E7EFFF"/>
</g>
<defs>
<clipPath id="clip0_1_1495">
<rect width="24" height="24" fill="white" transform="translate(0.5 0.5)"/>
</clipPath>
</defs>
</svg>
