<svg width="24" height="25" viewBox="0 0 24 25" fill="none" xmlns="http://www.w3.org/2000/svg">
<path d="M4 19.5V10.5C4 10.1833 4.071 9.88333 4.213 9.6C4.355 9.31667 4.55067 9.08333 4.8 8.9L10.8 4.4C11.15 4.13333 11.55 4 12 4C12.45 4 12.85 4.13333 13.2 4.4L19.2 8.9C19.45 9.08333 19.646 9.31667 19.788 9.6C19.93 9.88333 20.0007 10.1833 20 10.5V19.5C20 20.05 19.804 20.521 19.412 20.913C19.02 21.305 18.5493 21.5007 18 21.5H15C14.7167 21.5 14.4793 21.404 14.288 21.212C14.0967 21.02 14.0007 20.7827 14 20.5V15.5C14 15.2167 13.904 14.9793 13.712 14.788C13.52 14.5967 13.2827 14.5007 13 14.5H11C10.7167 14.5 10.4793 14.596 10.288 14.788C10.0967 14.98 10.0007 15.2173 10 15.5V20.5C10 20.7833 9.904 21.021 9.712 21.213C9.52 21.405 9.28267 21.5007 9 21.5H6C5.45 21.5 4.97933 21.3043 4.588 20.913C4.19667 20.5217 4.00067 20.0507 4 19.5Z" fill="#E7EFFF"/>
</svg>
