<svg width="24" height="24" viewBox="0 0 24 24" fill="none" xmlns="http://www.w3.org/2000/svg">
<path d="M9.775 12C9.175 12 8.675 11.775 8.275 11.325C7.875 10.875 7.71667 10.35 7.8 9.75L8.125 7.3C8.25833 6.35 8.69167 5.56233 9.425 4.937C10.1583 4.31167 11.0167 3.99933 12 4C12.9833 4.00067 13.8417 4.31333 14.575 4.938C15.3083 5.56267 15.7417 6.35 15.875 7.3L16.2 9.75C16.2833 10.35 16.125 10.875 15.725 11.325C15.325 11.775 14.825 12 14.225 12H9.775ZM4 18V17.2C4 16.6333 4.146 16.1127 4.438 15.638C4.73 15.1633 5.11733 14.8007 5.6 14.55C6.63333 14.0333 7.68333 13.646 8.75 13.388C9.81667 13.13 10.9 13.0007 12 13C13.1 12.9993 14.1833 13.1287 15.25 13.388C16.3167 13.6473 17.3667 14.0347 18.4 14.55C18.8833 14.8 19.271 15.1627 19.563 15.638C19.855 16.1133 20.0007 16.634 20 17.2V18C20 18.55 19.8043 19.021 19.413 19.413C19.0217 19.805 18.5507 20.0007 18 20H6C5.45 20 4.97933 19.8043 4.588 19.413C4.19667 19.0217 4.00067 18.5507 4 18Z" fill="#E7EFFF"/>
</svg>
