<svg width="235" height="223" viewBox="0 0 235 223" fill="none" xmlns="http://www.w3.org/2000/svg">
<path d="M26.6567 40.8282C33.4314 40.8282 38.9233 35.3362 38.9233 28.5616C38.9233 21.7869 33.4314 16.295 26.6567 16.295C19.8821 16.295 14.3901 21.7869 14.3901 28.5616C14.3901 35.3362 19.8821 40.8282 26.6567 40.8282Z" fill="#F0F0F0"/>
<path d="M32.2973 28.9367C31.7637 29.0127 31.2246 29.0433 30.6859 29.0281C29.6761 29.0281 28.2688 29.071 26.6735 29.0764H26.5338V28.1418C26.5338 26.3639 26.5338 24.7578 26.5768 23.5922C26.5643 22.9623 26.5966 22.3322 26.6735 21.7069C26.7542 22.3319 26.7883 22.9621 26.7755 23.5922C26.7755 24.7578 26.8131 26.3639 26.8131 28.1418V28.9367L26.6735 28.7917C28.2849 28.7917 29.6761 28.7917 30.6859 28.8401C31.2248 28.8266 31.7639 28.859 32.2973 28.9367Z" fill="#E0E0E0"/>
<path d="M26.6735 18.3104C26.754 18.3104 26.8131 18.7723 26.8131 19.3417C26.8131 19.9111 26.754 20.373 26.6735 20.373C26.5929 20.373 26.5338 19.9111 26.5338 19.3417C26.5338 18.7723 26.6198 18.3104 26.6735 18.3104Z" fill="#E0E0E0"/>
<path d="M32.2869 19.9632C32.3406 20.0169 32.0613 20.3821 31.6692 20.7796C31.2771 21.1771 30.9065 21.4564 30.8474 21.4027C30.7883 21.349 31.073 20.9784 31.4704 20.5809C31.8679 20.1834 32.2332 19.9095 32.2869 19.9632Z" fill="#E0E0E0"/>
<path d="M35.5511 23.5345C35.5887 23.6043 35.2127 23.8621 34.74 24.1468C34.2673 24.4315 33.8645 24.6517 33.8161 24.5873C33.7678 24.5228 34.1062 24.2059 34.595 23.9105C35.0838 23.615 35.5188 23.4646 35.5511 23.5345Z" fill="#E0E0E0"/>
<path d="M37.4689 28.8282C37.0137 28.9678 36.5353 29.0153 36.0616 28.9678C35.5896 29.015 35.113 28.9675 34.6597 28.8282C35.1137 28.692 35.5897 28.6446 36.0616 28.6885C36.5353 28.6443 37.0131 28.6917 37.4689 28.8282Z" fill="#E0E0E0"/>
<path d="M17.984 28.6436C17.5566 28.7831 17.1044 28.8307 16.6573 28.7832C16.2102 28.8297 15.7582 28.7821 15.3306 28.6436C15.7588 28.5077 16.2102 28.4602 16.6573 28.5039C17.1044 28.4596 17.5559 28.5071 17.984 28.6436Z" fill="#E0E0E0"/>
<path d="M19.3644 32.5909C19.4127 32.65 18.983 33.0743 18.3976 33.547C17.8121 34.0197 17.3233 34.3473 17.2588 34.2829C17.1944 34.2184 17.6456 33.7941 18.2257 33.3268C18.5497 33.0047 18.9376 32.754 19.3644 32.5909Z" fill="#E0E0E0"/>
<path d="M22.7641 35.6416C22.6181 36.0755 22.4042 36.4834 22.1303 36.8502C21.7436 37.4893 21.4266 38.0104 21.3568 37.9728C21.4288 37.5125 21.6133 37.077 21.8939 36.7051C22.2861 36.0552 22.6997 35.5933 22.7641 35.6416Z" fill="#E0E0E0"/>
<path d="M26.6724 39.5715C26.536 39.1157 26.4885 38.6379 26.5328 38.1642C26.4888 37.6922 26.5363 37.2163 26.6724 36.7623C26.8117 37.2156 26.8592 37.6922 26.8121 38.1642C26.8595 38.6379 26.812 39.1163 26.6724 39.5715Z" fill="#E0E0E0"/>
<path d="M32.7535 37.7004C32.2967 37.5587 31.8842 37.3015 31.5557 36.9538C31.1697 36.6755 30.858 36.3066 30.6479 35.8795C30.7124 35.8258 31.1851 36.2555 31.7222 36.7551C32.2594 37.2546 32.7965 37.636 32.7535 37.7004Z" fill="#E0E0E0"/>
<path d="M35.5929 34.6406C35.5392 34.6943 35.1041 34.3452 34.6207 33.8617C34.1373 33.3783 33.7881 32.9432 33.8472 32.8895C33.9063 32.8358 34.336 33.1796 34.8194 33.663C35.3029 34.1464 35.6466 34.5815 35.5929 34.6406Z" fill="#E0E0E0"/>
<path d="M19.2344 24.866C19.1807 24.9197 18.794 24.6189 18.3696 24.1999C17.9453 23.781 17.6499 23.3889 17.7036 23.3352C17.7573 23.2814 18.144 23.5769 18.5684 24.0012C18.9927 24.4255 19.2881 24.8123 19.2344 24.866Z" fill="#E0E0E0"/>
<path d="M22.7416 21.1706C22.6879 21.2243 22.3065 20.9343 21.8929 20.5207C21.4793 20.1071 21.1839 19.7311 21.2376 19.6613C21.2913 19.5915 21.6727 19.8976 22.0917 20.3112C22.5106 20.7248 22.7953 21.1169 22.7416 21.1706Z" fill="#E0E0E0"/>
<path d="M52.1997 216.643C59.5682 212.347 61.8937 203.437 62.2858 195.29C62.3502 193.925 62.6134 192.507 62.0656 191.267C61.5178 190.026 60.0838 189.086 58.8432 189.559C57.7691 189.951 57.232 191.084 56.6144 192.008C55.7576 193.239 54.5696 194.202 53.1879 194.785C52.2856 195.161 51.1954 195.349 50.379 194.785C49.2619 194.044 49.2566 192.416 49.3801 191.068C49.6021 188.562 49.8241 186.056 50.0461 183.549C50.2372 182.207 50.2099 180.844 49.9655 179.511C49.8405 178.848 49.5575 178.225 49.1405 177.695C48.7235 177.165 48.1849 176.743 47.5702 176.465C46.3134 176.003 44.6647 176.61 44.2887 177.91C44.1917 178.464 44.1325 179.024 44.1115 179.586C44.0966 179.866 43.9996 180.136 43.8324 180.361C43.6653 180.586 43.4354 180.758 43.1716 180.853C42.6345 180.966 42.0975 180.542 41.743 180.112C40.4594 178.635 39.6592 176.804 38.918 174.988C38.2661 173.138 37.3972 171.371 36.3294 169.725C35.1854 168.114 33.5366 166.814 31.6139 166.546C29.6912 166.277 27.5322 167.303 26.8878 169.156C26.2433 171.009 27.1939 173.039 28.2788 174.677C29.8811 177.109 31.8276 179.296 34.0576 181.17C34.496 181.464 34.8306 181.889 35.0136 182.384C35.2284 183.308 34.3046 184.129 33.4024 184.349C32.3712 184.602 31.2863 184.409 30.2283 184.446C29.1703 184.484 27.9887 184.854 27.5054 185.816C26.8394 187.153 27.876 188.689 28.934 189.731C31.0421 191.805 33.4909 193.502 36.1736 194.747C37.1717 195.114 38.0944 195.66 38.8966 196.358C39.6377 197.121 38.193 199.489 37.6345 200.397C37.0759 201.305 37.6345 200.397 36.6087 200.123C35.5829 199.849 34.7021 199.199 33.7407 198.748C31.9469 197.894 29.5409 197.824 28.225 199.328C27.8145 199.853 27.5313 200.465 27.3981 201.117C27.2648 201.77 27.285 202.444 27.457 203.088C27.8061 204.362 28.4089 205.553 29.2294 206.589C31.8754 210.362 35.4769 213.362 39.6646 215.284C43.8429 217.127 47.7957 217.862 52.1997 216.649" fill="#F0F0F0"/>
<path d="M51.8085 222.676C51.7399 218.884 51.3082 215.107 50.5195 211.398C49.5359 206.854 48.2915 202.371 46.7923 197.971L45.6322 194.507C45.2509 193.368 44.8696 192.24 44.4292 191.161C43.5815 189.092 42.6205 187.071 41.5505 185.108C40.5408 183.223 39.515 181.478 38.5429 179.845C37.5708 178.212 36.631 176.719 35.718 175.393C34.2954 173.287 32.7078 171.297 30.9703 169.442C30.3527 168.787 29.8586 168.293 29.5202 167.96L29.1282 167.589L28.9939 167.471C29.0293 167.519 29.0688 167.564 29.1121 167.605L29.4826 167.997C29.8102 168.341 30.2936 168.84 30.9005 169.506C32.6107 171.382 34.1797 173.382 35.5944 175.489C36.4967 176.827 37.4205 178.325 38.3872 179.958C39.3539 181.59 40.369 183.336 41.3733 185.216C42.4331 187.176 43.3852 189.193 44.2251 191.258C44.6601 192.332 45.0361 193.449 45.4174 194.587L46.5774 198.052C48.0773 202.436 49.3324 206.901 50.3369 211.424C51.1383 215.133 51.5879 218.91 51.6796 222.703" fill="#E0E0E0"/>
<path d="M44.3584 191.147C44.4378 190.965 44.4972 190.774 44.5356 190.578C44.6377 190.213 44.7666 189.676 44.9169 189.015C45.2177 187.689 45.5722 185.841 45.9535 183.8C46.3348 181.759 46.7161 179.923 47.0276 178.607C47.1887 177.946 47.323 177.409 47.4197 177.044C47.4797 176.855 47.5211 176.661 47.5432 176.464C47.4527 176.636 47.3789 176.815 47.323 177.001C47.1995 177.361 47.0384 177.887 46.8611 178.542C46.4959 179.858 46.0878 181.695 45.7064 183.736C45.3251 185.777 44.9975 187.571 44.7397 188.962C44.6216 189.59 44.5195 190.116 44.439 190.541C44.3908 190.739 44.3638 190.943 44.3584 191.147Z" fill="#E0E0E0"/>
<path d="M27.2795 186.482C27.5043 186.548 27.7343 186.595 27.967 186.622C28.4074 186.697 29.0411 186.805 29.836 186.96C31.4096 187.261 33.5954 187.755 35.9263 188.405C38.2572 189.055 40.3947 189.737 41.9092 190.274C42.6665 190.537 43.2734 190.768 43.6977 190.924C43.9102 191.02 44.1314 191.095 44.3583 191.149C44.1596 191.024 43.9491 190.918 43.7299 190.833C43.3217 190.65 42.7202 190.392 41.9683 190.107C40.4699 189.527 38.3592 188.819 35.9961 188.163C33.9765 187.601 31.9294 187.142 29.8628 186.788C29.0733 186.649 28.4235 186.568 27.9777 186.525C27.7467 186.49 27.5131 186.476 27.2795 186.482Z" fill="#E0E0E0"/>
<path d="M50.3303 211.04C50.384 210.977 50.4308 210.909 50.47 210.836L50.8137 210.234C51.1144 209.697 51.528 208.935 52.0275 207.979C53.0264 206.061 54.3261 203.365 55.7171 200.374C57.1081 197.382 58.4024 194.681 59.3423 192.748L60.5077 190.449L60.8192 189.826C60.8559 189.753 60.8865 189.678 60.9105 189.6C60.9105 189.6 60.8568 189.665 60.7709 189.799C60.685 189.933 60.5614 190.164 60.4272 190.401C60.1264 190.938 59.7129 191.7 59.2134 192.656C58.2091 194.579 56.9148 197.27 55.5184 200.261C54.122 203.253 52.8599 205.954 51.8986 207.893L50.76 210.181L50.4485 210.809C50.3999 210.881 50.3602 210.959 50.3303 211.04Z" fill="#E0E0E0"/>
<path d="M27.8918 201.729C27.9611 201.777 28.0371 201.815 28.1174 201.842L28.7673 202.121L31.168 203.125C33.1981 203.974 36.0016 205.172 39.0628 206.503C42.1241 207.835 44.9706 209.017 46.9899 209.823C48.0157 210.225 48.8482 210.542 49.4228 210.752L50.0942 210.983C50.17 211.015 50.2493 211.038 50.3305 211.052C50.3305 211.052 50.2553 211.004 50.1103 210.94L49.4604 210.66L47.0812 209.645C45.0511 208.797 42.2476 207.594 39.181 206.262C36.1143 204.93 33.2733 203.754 31.2539 202.948C30.2335 202.545 29.401 202.228 28.821 202.019L28.155 201.783C28.0695 201.755 27.9813 201.737 27.8918 201.729Z" fill="#E0E0E0"/>
<path d="M210.194 199.127H206.907V222.458H210.194V199.127Z" fill="#E0E0E0"/>
<path d="M198.432 199.127H195.145V222.458H198.432V199.127Z" fill="#E0E0E0"/>
<path d="M168.909 199.127H165.622V222.458H168.909V199.127Z" fill="#E0E0E0"/>
<path d="M158.797 199.127H155.51V222.458H158.797V199.127Z" fill="#E0E0E0"/>
<path d="M166.218 159.032C166.218 159.032 157.243 156.438 154.558 160.181C151.873 163.925 151.583 199.989 151.583 199.989C151.583 199.989 168.962 200.306 169.306 199.989C169.65 199.672 166.218 159.032 166.218 159.032Z" fill="#EBEBEB"/>
<path d="M217.155 195.576L216.36 127.127C215.823 118.861 209.803 117.664 208.927 117.164C205.243 115.075 170.108 113.748 167.219 121.847C164.329 129.946 167.219 193.675 167.219 193.675L217.155 195.576Z" fill="#EBEBEB"/>
<path d="M217.132 193.674C217.132 193.674 208.281 180.618 197.883 180.194C187.486 179.769 165.069 180.194 165.069 180.194C165.069 180.194 155.133 180.57 154.44 192.874V200.119H217.132V193.674Z" fill="#EBEBEB"/>
<path d="M216.87 159.091C216.87 159.091 201.977 155.235 199.286 160.305C196.595 165.374 196.117 200.289 196.117 200.289C196.117 200.289 217.6 201.079 217.67 200.176C217.74 199.274 216.87 159.091 216.87 159.091Z" fill="#F0F0F0"/>
<path d="M217.669 158.924C217.669 158.924 207.836 156.394 205.15 160.138C202.465 163.881 201.756 200.461 201.756 200.461C201.756 200.461 217.449 200.923 217.771 200.611C218.094 200.3 217.669 158.924 217.669 158.924Z" fill="#E0E0E0"/>
<path d="M210.006 158.05C210 157.993 210 157.935 210.006 157.878C210.006 157.749 209.979 157.577 209.957 157.368C209.925 156.901 209.877 156.246 209.812 155.408C209.7 153.689 209.538 151.229 209.334 148.195C209.13 145.16 208.91 141.519 208.658 137.502C208.534 135.488 208.4 133.372 208.266 131.181C208.131 128.989 208.11 126.696 207.455 124.483C207.136 123.391 206.586 122.38 205.843 121.519C205.118 120.687 204.277 119.964 203.346 119.371C201.579 118.237 199.609 117.456 197.546 117.072C196.582 116.905 195.607 116.812 194.629 116.793L191.853 116.685C190.064 116.626 188.394 116.594 186.869 116.583C183.818 116.583 181.353 116.621 179.651 116.717C178.797 116.766 178.136 116.814 177.69 116.857L177.18 116.9H177.008C177.064 116.882 177.122 116.871 177.18 116.868L177.685 116.798C178.131 116.734 178.791 116.669 179.64 116.605C181.342 116.476 183.813 116.379 186.869 116.379C188.394 116.379 190.091 116.379 191.864 116.449L194.64 116.54C195.63 116.559 196.617 116.65 197.594 116.814C199.695 117.197 201.702 117.985 203.502 119.134C204.455 119.744 205.316 120.487 206.058 121.342C206.823 122.231 207.385 123.275 207.707 124.403C208.378 126.675 208.362 128.984 208.523 131.164C208.684 133.345 208.776 135.461 208.899 137.486C209.13 141.508 209.34 145.134 209.517 148.184C209.694 151.235 209.812 153.678 209.909 155.402C209.947 156.24 209.979 156.895 210 157.363C210 157.577 210 157.744 210 157.9C210.009 157.949 210.011 158 210.006 158.05Z" fill="#E0E0E0"/>
<path d="M210.484 128.459C210.102 128.618 209.698 128.716 209.286 128.749C208.891 128.87 208.479 128.928 208.066 128.921C208.792 128.485 209.649 128.321 210.484 128.459Z" fill="#E0E0E0"/>
<path d="M211.827 130.09C211.235 130.133 210.64 130.106 210.054 130.009C209.459 130.001 208.867 129.929 208.287 129.794C209.474 129.609 210.687 129.71 211.827 130.09Z" fill="#E0E0E0"/>
<path d="M210.984 142.316C210.984 142.397 210.511 142.429 209.947 142.397C209.383 142.364 208.921 142.273 208.927 142.198C208.932 142.123 209.394 142.085 209.963 142.117C210.533 142.149 210.984 142.241 210.984 142.316Z" fill="#E0E0E0"/>
<path d="M195.58 137.637C195.238 137.779 194.954 138.033 194.774 138.357C194.686 138.52 194.634 138.701 194.622 138.886C194.61 139.071 194.638 139.257 194.704 139.431C194.8 139.631 194.954 139.799 195.145 139.912C195.336 140.024 195.557 140.078 195.779 140.065C196.004 140.074 196.226 140.015 196.418 139.896C196.609 139.778 196.761 139.604 196.853 139.399C196.914 139.222 196.936 139.035 196.917 138.85C196.899 138.664 196.84 138.485 196.746 138.324C196.556 138.02 196.274 137.784 195.94 137.653C195.94 137.653 196.053 137.621 196.251 137.685C196.526 137.787 196.76 137.976 196.917 138.222C197.041 138.407 197.12 138.616 197.151 138.836C197.182 139.055 197.163 139.279 197.095 139.49C196.982 139.741 196.8 139.956 196.57 140.107C196.339 140.259 196.071 140.342 195.795 140.347C195.519 140.351 195.248 140.277 195.013 140.133C194.778 139.989 194.589 139.781 194.468 139.533C194.394 139.324 194.369 139.101 194.393 138.88C194.417 138.66 194.49 138.448 194.608 138.26C194.759 138.014 194.988 137.825 195.258 137.723C195.467 137.61 195.58 137.626 195.58 137.637Z" fill="#E0E0E0"/>
<path d="M196.924 137.317C196.64 137.467 196.325 137.546 196.005 137.548C195.227 137.629 194.44 137.537 193.701 137.28C192.971 137.021 192.307 136.605 191.756 136.061C191.513 135.854 191.32 135.595 191.192 135.303C191.23 135.271 191.456 135.55 191.891 135.916C192.455 136.392 193.098 136.764 193.792 137.017C194.481 137.262 195.209 137.382 195.941 137.371C196.267 137.333 196.595 137.315 196.924 137.317Z" fill="#E0E0E0"/>
<path d="M193.571 146.294C193.418 145.966 193.313 145.619 193.259 145.262C193.049 144.403 193.027 143.509 193.195 142.641C193.293 142.202 193.481 141.788 193.749 141.427C194.016 141.065 194.356 140.763 194.747 140.541C195.068 140.344 195.452 140.275 195.821 140.347C195.482 140.429 195.154 140.552 194.844 140.713C194.144 141.174 193.649 141.888 193.463 142.705C193.312 143.538 193.312 144.392 193.463 145.225C193.541 145.576 193.577 145.934 193.571 146.294Z" fill="#E0E0E0"/>
<path d="M199.807 143.321C199.541 143.321 199.279 143.248 199.05 143.112C198.477 142.823 197.985 142.394 197.621 141.866C197.257 141.338 197.033 140.726 196.971 140.088C196.927 139.825 196.951 139.554 197.041 139.303C197.104 139.552 197.145 139.805 197.165 140.061C197.278 140.65 197.512 141.21 197.852 141.704C198.193 142.2 198.634 142.62 199.147 142.934C199.539 143.187 199.818 143.273 199.807 143.321Z" fill="#E0E0E0"/>
<path d="M179.007 137.635C178.675 137.774 178.399 138.02 178.223 138.334C178.134 138.497 178.081 138.677 178.068 138.863C178.056 139.048 178.083 139.234 178.148 139.408C178.254 139.602 178.411 139.764 178.602 139.875C178.793 139.987 179.011 140.044 179.232 140.041C179.453 140.037 179.669 139.974 179.857 139.857C180.044 139.739 180.196 139.573 180.296 139.376C180.356 139.199 180.377 139.012 180.359 138.827C180.34 138.642 180.282 138.463 180.189 138.302C180 137.995 179.715 137.759 179.378 137.63C179.482 137.605 179.592 137.616 179.689 137.662C179.965 137.763 180.199 137.952 180.356 138.199C180.48 138.383 180.56 138.593 180.591 138.813C180.622 139.032 180.602 139.256 180.533 139.467C180.419 139.717 180.237 139.93 180.008 140.081C179.778 140.231 179.51 140.314 179.236 140.318C178.961 140.323 178.691 140.249 178.457 140.106C178.222 139.963 178.033 139.756 177.912 139.51C177.836 139.301 177.81 139.078 177.834 138.857C177.858 138.637 177.932 138.425 178.051 138.237C178.201 137.992 178.428 137.803 178.696 137.7C178.79 137.644 178.899 137.622 179.007 137.635Z" fill="#E0E0E0"/>
<path d="M180.335 137.315C180.051 137.464 179.736 137.543 179.416 137.546C178.647 137.615 177.871 137.516 177.144 137.256C176.413 136.999 175.749 136.582 175.199 136.036C174.956 135.83 174.764 135.571 174.635 135.279C174.673 135.247 174.899 135.526 175.334 135.891C175.898 136.368 176.542 136.74 177.235 136.993C177.925 137.238 178.652 137.358 179.384 137.347C179.7 137.317 180.017 137.307 180.335 137.315Z" fill="#E0E0E0"/>
<path d="M176.998 146.29C176.842 145.964 176.737 145.616 176.687 145.259C176.474 144.4 176.45 143.506 176.617 142.638C176.715 142.198 176.905 141.784 177.173 141.422C177.441 141.061 177.783 140.759 178.174 140.537C178.495 140.339 178.879 140.27 179.249 140.344C178.911 140.426 178.585 140.549 178.277 140.709C177.575 141.169 177.079 141.883 176.896 142.702C176.745 143.535 176.745 144.388 176.896 145.221C176.969 145.573 177.004 145.931 176.998 146.29Z" fill="#E0E0E0"/>
<path d="M183.229 143.321C182.964 143.32 182.704 143.248 182.477 143.112C181.904 142.823 181.413 142.394 181.049 141.866C180.685 141.337 180.459 140.726 180.393 140.088C180.345 139.824 180.371 139.553 180.468 139.303C180.531 139.552 180.573 139.805 180.592 140.061C180.703 140.65 180.936 141.209 181.274 141.704C181.617 142.199 182.057 142.617 182.569 142.934C182.961 143.187 183.245 143.273 183.229 143.321Z" fill="#E0E0E0"/>
<path d="M166.552 157.9C166.572 158.193 166.572 158.487 166.552 158.781C166.552 159.393 166.525 160.193 166.503 161.165C166.46 163.179 166.396 165.961 166.358 169.039C166.321 172.116 166.31 174.876 166.31 176.912C166.31 177.884 166.31 178.684 166.31 179.296C166.323 179.591 166.311 179.885 166.272 180.177C166.224 179.888 166.2 179.595 166.202 179.302C166.176 178.738 166.149 177.922 166.127 176.912C166.079 174.898 166.057 172.111 166.095 169.033C166.133 165.956 166.229 163.174 166.321 161.16C166.369 160.15 166.417 159.334 166.46 158.775C166.463 158.481 166.494 158.188 166.552 157.9Z" fill="#E0E0E0"/>
<path d="M197.459 180.281H197.309H196.874H195.204H189.033L179.903 180.238L174.532 180.201C172.663 180.201 170.729 180.201 168.764 180.356C166.849 180.481 164.957 180.842 163.13 181.43C161.434 181.987 159.85 182.84 158.452 183.949C157.806 184.467 157.219 185.054 156.701 185.7C156.45 186.007 156.218 186.33 156.008 186.667C155.794 186.994 155.6 187.327 155.423 187.66C154.768 188.906 154.294 190.239 154.016 191.619C153.628 193.628 153.525 195.682 153.71 197.72C153.769 198.439 153.833 199.003 153.882 199.379L153.93 199.814C153.93 199.911 153.93 199.959 153.93 199.959C153.93 199.959 153.93 199.911 153.892 199.814C153.855 199.718 153.844 199.562 153.812 199.39C153.747 199.014 153.667 198.45 153.592 197.73C153.365 195.681 153.439 193.609 153.812 191.581C154.078 190.177 154.549 188.82 155.208 187.553C155.387 187.204 155.584 186.865 155.799 186.538C156.012 186.193 156.245 185.861 156.497 185.544C157.023 184.882 157.619 184.279 158.275 183.745C159.697 182.614 161.308 181.743 163.033 181.173C164.877 180.566 166.79 180.19 168.726 180.056C170.713 179.889 172.652 179.894 174.521 179.905L179.892 179.959L189.022 180.061L195.171 180.152L196.842 180.19H197.277L197.459 180.281Z" fill="#E0E0E0"/>
<path d="M214.589 222.458C214.589 222.539 170.453 222.598 116.016 222.598C61.5792 222.598 17.4377 222.539 17.4377 222.458C17.4377 222.378 61.5631 222.319 116.016 222.319C170.469 222.319 214.589 222.383 214.589 222.458Z" fill="#263238"/>
<path d="M77.8427 120.699C77.8427 120.78 74.3411 120.839 70.0177 120.839C65.6943 120.839 62.1926 120.78 62.1926 120.699C62.1926 120.618 65.6943 120.559 70.0177 120.559C74.3411 120.559 77.8427 120.635 77.8427 120.699Z" fill="#263238"/>
<path d="M77.5581 122.716C77.5581 122.791 74.1209 122.855 69.8727 122.855C65.6245 122.855 62.1926 122.791 62.1926 122.716C62.1926 122.641 65.6299 122.571 69.8727 122.571C74.1155 122.571 77.5581 122.635 77.5581 122.716Z" fill="#263238"/>
<path d="M77.5581 124.726C77.5581 124.801 74.1209 124.865 69.8727 124.865C65.6245 124.865 62.1926 124.801 62.1926 124.726C62.1926 124.651 65.6299 124.586 69.8727 124.586C74.1155 124.586 77.5581 124.645 77.5581 124.726Z" fill="#263238"/>
<path d="M77.5581 126.741C77.5581 126.816 74.1209 126.881 69.8727 126.881C65.6245 126.881 62.1926 126.816 62.1926 126.741C62.1926 126.666 65.6299 126.602 69.8727 126.602C74.1155 126.602 77.5581 126.661 77.5581 126.741Z" fill="#263238"/>
<path d="M77.5581 128.757C77.5581 128.832 74.1209 128.896 69.8727 128.896C65.6245 128.896 62.1926 128.832 62.1926 128.757C62.1926 128.681 65.6299 128.617 69.8727 128.617C74.1155 128.617 77.5581 128.687 77.5581 128.757Z" fill="#263238"/>
<path d="M69.6864 130.771C68.4382 130.91 67.1815 130.956 65.9265 130.911C64.6714 130.957 63.4147 130.91 62.1665 130.771C63.4144 130.629 64.6714 130.582 65.9265 130.631C67.1815 130.582 68.4385 130.629 69.6864 130.771Z" fill="#263238"/>
<path d="M74.0674 118.483C74.0674 118.563 71.3821 118.623 68.106 118.623C64.8299 118.623 62.1445 118.563 62.1445 118.483C62.1445 118.402 64.8299 118.343 68.106 118.343C71.3821 118.343 74.0674 118.418 74.0674 118.483Z" fill="#2972FF"/>
<path d="M81.9885 135.79C81.9885 135.79 81.9885 135.64 81.9885 135.361C81.9885 135.081 81.9885 134.668 81.9885 134.141C81.9885 133.067 81.9885 131.515 81.9563 129.539C81.9563 125.581 81.924 119.941 81.8972 113.158L82.0154 113.276H57.2781L57.4123 113.142V119.211C57.4123 121.203 57.4123 123.153 57.4123 125.049C57.4123 128.846 57.4123 132.444 57.4123 135.79L57.2888 135.667L75.1678 135.731L80.2215 135.763H81.5642H81.9133H81.5911H80.2753L75.2483 135.796L57.2888 135.86H57.1653V135.736C57.1653 132.417 57.1653 128.819 57.1653 124.995C57.1653 123.099 57.1653 121.15 57.1653 119.157V113.088L57.3103 112.943H82.0476H82.1711V113.062C82.1711 119.872 82.1281 125.543 82.112 129.517C82.112 131.483 82.112 133.024 82.0798 134.093C82.0798 134.63 82.0798 135.006 82.0798 135.291C82.0798 135.575 81.9885 135.79 81.9885 135.79Z" fill="#263238"/>
<path d="M66.6826 51.9506L78.5733 51.8754C78.5134 48.2526 77.1567 44.7712 74.7494 42.0632C73.2394 40.3285 71.3273 38.9902 69.1805 38.1654C67.0337 37.3406 64.7175 37.0543 62.4344 37.3316C61.8651 37.3961 61.2905 37.4874 60.7051 37.6109H60.6621L63.8845 51.9399L66.6826 51.9506Z" fill="#2972FF"/>
<path d="M70.3457 66.7193C72.5913 65.6723 74.5215 64.0524 75.9423 62.0226C77.3631 59.9928 78.2243 57.6246 78.4393 55.1563C78.4393 55.0059 78.4715 54.8555 78.4822 54.6998C78.493 54.544 78.4822 54.5118 78.4822 54.4098C78.4822 54.1305 78.4822 53.8405 78.5091 53.5505V53.4967L66.613 53.5773H63.8203L60.6892 67.9116C61.7042 68.1278 62.7396 68.234 63.7773 68.2285C66.0513 68.2159 68.2943 67.7006 70.3457 66.7193Z" fill="#455A64"/>
<path d="M62.4024 52.7181L59.18 38.3892C55.9166 39.1222 53.001 40.9471 50.9154 43.5621C48.8299 46.1771 47.6993 49.4256 47.7105 52.7703C47.7218 56.1151 48.8743 59.3559 50.9774 61.9568C53.0806 64.5577 56.0084 66.3629 59.2767 67.0739L62.4024 52.7396" fill="#263238"/>
<path d="M30.1571 115.966H26.9401V140.258H30.1571V115.966Z" fill="#2972FF"/>
<path d="M25.1988 126.192H21.9818V140.263H25.1988V126.192Z" fill="#455A64"/>
<path d="M20.2427 123.996H17.0256V140.258H20.2427V123.996Z" fill="#2972FF"/>
<path d="M15.2798 133.7H12.0624V140.258H15.2798V133.7Z" fill="#455A64"/>
<path d="M40.0765 110.663H36.8595V140.261H40.0765V110.663Z" fill="#2972FF"/>
<path d="M35.1194 113.365H31.9023V140.261H35.1194V113.365Z" fill="#455A64"/>
<path d="M49.9951 107.728H46.7781V140.258H49.9951V107.728Z" fill="#2972FF"/>
<path d="M45.0338 101.309H41.8168V140.262H45.0338V101.309Z" fill="#455A64"/>
<path d="M15.2002 143.312C14.7389 143.449 14.2558 143.496 13.7768 143.452C13.2978 143.496 12.8148 143.449 12.3534 143.312C12.8169 143.178 13.3024 143.136 13.7822 143.189C14.2584 143.137 14.7401 143.179 15.2002 143.312Z" fill="#263238"/>
<path d="M20.0872 143.312C19.626 143.449 19.1428 143.497 18.6638 143.452C18.1847 143.496 17.7017 143.448 17.2404 143.312C17.7011 143.173 18.1847 143.125 18.6638 143.172C19.1428 143.125 19.6265 143.172 20.0872 143.312Z" fill="#263238"/>
<path d="M24.9802 143.312C24.5189 143.448 24.0359 143.496 23.5568 143.452C23.0778 143.497 22.5946 143.449 22.1334 143.312C22.5951 143.178 23.0789 143.136 23.5568 143.189C24.0348 143.136 24.5184 143.178 24.9802 143.312Z" fill="#263238"/>
<path d="M29.8933 143.31C29.432 143.446 28.949 143.494 28.4699 143.45C27.9909 143.495 27.5077 143.447 27.0465 143.31C27.4997 143.179 27.9739 143.137 28.4431 143.187C28.9299 143.131 29.423 143.173 29.8933 143.31Z" fill="#263238"/>
<path d="M34.7552 143.312C34.2938 143.448 33.8108 143.495 33.3317 143.451C32.8527 143.495 32.3697 143.448 31.9083 143.312C32.3691 143.172 32.8527 143.125 33.3317 143.172C33.8108 143.125 34.2944 143.172 34.7552 143.312Z" fill="#263238"/>
<path d="M39.6411 143.312C39.1798 143.448 38.6968 143.495 38.2177 143.451C37.7387 143.495 37.2557 143.448 36.7943 143.312C37.2551 143.172 37.7387 143.125 38.2177 143.172C38.6968 143.125 39.1804 143.172 39.6411 143.312Z" fill="#263238"/>
<path d="M44.5291 143.312C44.0679 143.449 43.5847 143.497 43.1057 143.452C42.6266 143.496 42.1436 143.448 41.6823 143.312C42.143 143.173 42.6266 143.125 43.1057 143.172C43.5847 143.125 44.0684 143.172 44.5291 143.312Z" fill="#263238"/>
<path d="M49.4168 143.312C48.4788 143.498 47.5133 143.498 46.5753 143.312C47.0359 143.172 47.5197 143.125 47.9987 143.172C48.476 143.125 48.9579 143.172 49.4168 143.312Z" fill="#263238"/>
<path d="M51.1291 146.173C51.1291 146.248 47.6382 146.312 43.3255 146.312C39.0129 146.312 35.5166 146.248 35.5166 146.173C35.5166 146.098 39.0129 146.033 43.3255 146.033C47.6382 146.033 51.1291 146.092 51.1291 146.173Z" fill="#263238"/>
<path d="M41.8184 147.817C40.9122 147.955 39.9945 148.002 39.079 147.957C38.1635 148.002 37.2458 147.955 36.3396 147.817C37.2455 147.676 38.1635 147.629 39.079 147.677C39.9945 147.629 40.9126 147.676 41.8184 147.817Z" fill="#263238"/>
<path d="M42.1928 99.894C42.3466 99.878 42.5017 99.9079 42.6386 99.9799C42.9652 100.135 43.2363 100.386 43.415 100.701C43.5937 101.015 43.6715 101.376 43.6377 101.736C43.6004 102.084 43.445 102.408 43.1972 102.655C42.9193 102.94 42.5587 103.131 42.1665 103.2C41.7742 103.27 41.3701 103.214 41.0111 103.042C40.669 102.841 40.395 102.542 40.2246 102.184C40.0541 101.826 39.9951 101.425 40.055 101.033C40.1035 100.69 40.251 100.369 40.4793 100.109C40.6779 99.8882 40.924 99.7156 41.1991 99.6039C41.5877 99.4399 42.018 99.4023 42.4291 99.4965C42.7192 99.5717 42.8535 99.6684 42.8427 99.6845C42.832 99.7006 42.687 99.6415 42.413 99.6039C42.0255 99.5542 41.6319 99.6176 41.2797 99.7865C41.0215 99.8982 40.7964 100.075 40.6261 100.298C40.4559 100.522 40.3461 100.786 40.3074 101.065C40.2634 101.403 40.3187 101.746 40.4666 102.053C40.6144 102.361 40.8484 102.618 41.14 102.794C41.4476 102.939 41.7919 102.985 42.1268 102.929C42.4617 102.872 42.7714 102.715 43.0146 102.478C43.2125 102.281 43.3469 102.029 43.4005 101.756C43.4541 101.482 43.4245 101.198 43.3154 100.941C43.1809 100.578 42.9247 100.272 42.5903 100.077C42.3486 99.9423 42.1874 99.9208 42.1928 99.894Z" fill="#263238"/>
<path d="M44.7321 55.6463C44.6696 55.6532 44.6066 55.6532 44.5441 55.6463H44.007L41.8588 55.6785L41.9286 55.6141C41.9715 59.4219 41.9984 67.0053 41.9984 75.7219C41.9984 82.0646 41.9984 87.8005 41.9608 91.9842C41.9608 94.0466 41.9232 95.7437 41.9125 96.9091C41.9125 97.4462 41.9125 97.9188 41.9125 98.2518C41.9275 98.4072 41.9275 98.5637 41.9125 98.719C41.892 98.5642 41.883 98.408 41.8856 98.2518C41.8856 97.9188 41.8856 97.473 41.8856 96.9091C41.8856 95.7222 41.8856 94.0466 41.8426 91.9842C41.8426 87.8005 41.8426 82.0646 41.7997 75.7219C41.7997 67.0053 41.8319 59.4219 41.8749 55.6141V55.5443H41.9393L44.0876 55.5765H44.6247L44.7321 55.6463Z" fill="#263238"/>
<path d="M21.257 81.3784C21.257 81.4536 17.75 81.518 13.4266 81.518C9.10323 81.518 5.60156 81.4536 5.60156 81.3784C5.60156 81.3032 9.10323 81.2388 13.4266 81.2388C17.75 81.2388 21.257 81.3032 21.257 81.3784Z" fill="#263238"/>
<path d="M20.9724 83.3938C20.9724 83.4744 17.5298 83.5334 13.287 83.5334C9.04416 83.5334 5.60156 83.4744 5.60156 83.3938C5.60156 83.3133 9.03879 83.2542 13.287 83.2542C17.5352 83.2542 20.9724 83.3186 20.9724 83.3938Z" fill="#263238"/>
<path d="M20.9724 85.4092C20.9724 85.4898 17.5298 85.5489 13.287 85.5489C9.04416 85.5489 5.60156 85.4898 5.60156 85.4092C5.60156 85.3287 9.03879 85.2696 13.287 85.2696C17.5352 85.2696 20.9724 85.334 20.9724 85.4092Z" fill="#263238"/>
<path d="M20.9724 87.4206C20.9724 87.5012 17.5298 87.5602 13.287 87.5602C9.04416 87.5602 5.60156 87.5012 5.60156 87.4206C5.60156 87.34 9.03879 87.281 13.287 87.281C17.5352 87.281 20.9724 87.3293 20.9724 87.4206Z" fill="#263238"/>
<path d="M20.9724 89.436C20.9724 89.5166 17.5298 89.5757 13.287 89.5757C9.04416 89.5757 5.60156 89.5166 5.60156 89.436C5.60156 89.3555 9.03879 89.2964 13.287 89.2964C17.5352 89.2964 20.9724 89.3608 20.9724 89.436Z" fill="#263238"/>
<path d="M13.0994 91.4524C11.8514 91.5943 10.5945 91.641 9.33943 91.5921C8.08438 91.6412 6.82742 91.5945 5.57947 91.4524C6.82766 91.3136 8.08438 91.2669 9.33943 91.3128C10.5945 91.2672 11.8512 91.3138 13.0994 91.4524Z" fill="#263238"/>
<path d="M17.4773 79.1783C17.4773 79.2535 14.792 79.3179 11.5159 79.3179C8.23978 79.3179 5.55444 79.2535 5.55444 79.1783C5.55444 79.1031 8.23978 79.0387 11.5159 79.0387C14.792 79.0387 17.4773 79.1031 17.4773 79.1783Z" fill="#2972FF"/>
<path d="M24.8989 96.2204C24.8989 96.2204 24.8989 96.07 24.8989 95.7908C24.8989 95.5115 24.8989 95.098 24.8989 94.5716C24.8989 93.4975 24.8989 91.9454 24.8667 89.969C24.8667 86.0108 24.8291 80.3716 24.8076 73.5884L24.9257 73.7066H0.183096C0.150872 73.7388 0.446257 73.4434 0.322732 73.5723V79.6412C0.322732 81.6337 0.322732 83.5833 0.322732 85.4791C0.322732 89.2762 0.322732 92.8745 0.322732 96.2204L0.199207 96.0969L18.0781 96.156L23.1319 96.1882H24.4692H24.8183H24.9419H24.4961H23.1803L18.1587 96.2204L0.199207 96.2849H0.0327176V96.1613C0.0327176 92.8423 0.0327176 89.2439 0.0327176 85.42C0.0327176 83.5242 0.0327176 81.5746 0.0327176 79.5821V73.5133C-0.0961783 73.6368 0.199207 73.336 0.172354 73.3682H24.915H25.0332V73.4864C25.0332 80.2964 24.9848 85.9625 24.9741 89.9421C24.9741 91.9078 24.9741 93.4492 24.9419 94.5179C24.9419 95.055 24.9419 95.4309 24.9419 95.7156C24.9419 96.0002 24.8989 96.2204 24.8989 96.2204Z" fill="#263238"/>
<path d="M17.4871 105.681C17.3488 104.185 17.3021 102.682 17.3474 101.18C17.3021 99.6785 17.3488 98.1755 17.4871 96.6796C17.6254 98.1755 17.672 99.6785 17.6267 101.18C17.672 102.682 17.6254 104.185 17.4871 105.681Z" fill="#263238"/>
<path d="M18.5124 103.629C18.2371 104.344 18.0565 105.091 17.9753 105.853V105.912V106.315L17.7443 105.987C17.2571 105.366 16.9505 104.623 16.858 103.839C16.9332 103.812 17.2501 104.784 17.9753 105.805L17.7175 105.88V105.815C17.7086 105.014 17.9911 104.237 18.5124 103.629Z" fill="#263238"/>
<path d="M171.319 42.1806C171.244 42.1806 171.179 41.8207 171.179 41.3749C171.179 40.9291 171.244 40.5692 171.319 40.5692C171.394 40.5692 171.459 40.9291 171.459 41.3749C171.459 41.8207 171.394 42.1806 171.319 42.1806Z" fill="#263238"/>
<path d="M171.319 45.4098C171.244 45.4098 171.179 45.05 171.179 44.6041C171.179 44.1583 171.244 43.7931 171.319 43.7931C171.394 43.7931 171.459 44.1583 171.459 44.6041C171.459 45.05 171.394 45.4098 171.319 45.4098Z" fill="#263238"/>
<path d="M171.319 48.6323C171.244 48.6323 171.179 48.2724 171.179 47.8266C171.179 47.3808 171.244 47.0209 171.319 47.0209C171.394 47.0209 171.459 47.3808 171.459 47.8266C171.459 48.2724 171.394 48.6323 171.319 48.6323Z" fill="#263238"/>
<path d="M171.319 51.8508C171.244 51.8508 171.179 51.4909 171.179 51.0505C171.179 50.61 171.244 50.2448 171.319 50.2448C171.394 50.2448 171.459 50.6047 171.459 51.0505C171.459 51.4963 171.394 51.8508 171.319 51.8508Z" fill="#263238"/>
<path d="M171.319 55.072C171.244 55.072 171.179 54.7121 171.179 54.2663C171.179 53.8205 171.244 53.4606 171.319 53.4606C171.394 53.4606 171.459 53.8205 171.459 54.2663C171.459 54.7121 171.394 55.072 171.319 55.072Z" fill="#263238"/>
<path d="M171.319 58.2878C171.244 58.2878 171.179 57.928 171.179 57.4821C171.179 57.0363 171.244 56.6764 171.319 56.6764C171.394 56.6764 171.459 57.0363 171.459 57.4821C171.459 57.928 171.394 58.2878 171.319 58.2878Z" fill="#263238"/>
<path d="M171.319 61.5117C171.244 61.5117 171.179 61.1464 171.179 60.706C171.179 60.2655 171.244 59.9003 171.319 59.9003C171.394 59.9003 171.459 60.2602 171.459 60.706C171.459 61.1518 171.394 61.5117 171.319 61.5117Z" fill="#263238"/>
<path d="M171.319 64.7275C171.244 64.7275 171.179 64.3676 171.179 63.9218C171.179 63.476 171.244 63.1161 171.319 63.1161C171.394 63.1161 171.459 63.476 171.459 63.9218C171.459 64.3676 171.394 64.7275 171.319 64.7275Z" fill="#263238"/>
<path d="M189.445 0H107.478C106.304 0 105.352 0.952192 105.352 2.12678V34.5226C105.352 35.6972 106.304 36.6494 107.478 36.6494H189.445C190.62 36.6494 191.572 35.6972 191.572 34.5226V2.12678C191.572 0.952192 190.62 0 189.445 0Z" fill="#455A64"/>
<path d="M130.696 13.6133C130.02 12.1179 128.962 10.8269 127.629 9.86992C126.296 8.913 124.734 8.32398 123.101 8.16212L122.801 8.1299H122.607H122.038H121.984L121.941 16.0033V17.8562L131.399 19.9991C131.553 19.3315 131.633 18.6488 131.635 17.9636C131.644 16.4622 131.323 14.9773 130.696 13.6133Z" fill="#FAFAFA"/>
<path d="M120.492 18.8394V17.0993L120.534 9.22593C118.136 9.23864 115.821 10.1093 114.009 11.6803C112.849 12.6663 111.949 13.9217 111.387 15.3365C110.825 16.7513 110.619 18.2824 110.787 19.7954C110.819 20.1337 110.873 20.4775 110.937 20.8266H110.867C112.124 25.3594 116.238 28.7859 120.261 28.5281C124.912 28.2327 128.854 25.354 129.858 21.0092L120.492 18.8394Z" fill="#E0E0E0"/>
<path d="M154.494 12.2401C154.494 12.3153 150.697 12.3798 146.013 12.3798C141.33 12.3798 137.528 12.3153 137.528 12.2401C137.528 12.165 141.325 12.1005 146.013 12.1005C150.702 12.1005 154.494 12.1435 154.494 12.2401Z" fill="#263238"/>
<path d="M154.494 15.5001C154.494 15.5753 150.697 15.6398 146.013 15.6398C141.33 15.6398 137.528 15.5753 137.528 15.5001C137.528 15.4249 141.325 15.3605 146.013 15.3605C150.702 15.3605 154.494 15.4196 154.494 15.5001Z" fill="#263238"/>
<path d="M154.494 18.7561C154.494 18.8313 150.697 18.8957 146.013 18.8957C141.33 18.8957 137.528 18.8313 137.528 18.7561C137.528 18.6809 141.325 18.6165 146.013 18.6165C150.702 18.6165 154.494 18.6809 154.494 18.7561Z" fill="#263238"/>
<path d="M154.494 22.0201C154.494 22.0953 150.697 22.1597 146.013 22.1597C141.33 22.1597 137.528 22.0953 137.528 22.0201C137.528 21.9449 141.325 21.8805 146.013 21.8805C150.702 21.8805 154.494 21.9449 154.494 22.0201Z" fill="#263238"/>
<path d="M147.452 25.5692C146.971 25.646 146.483 25.6784 145.996 25.6658C145.099 25.6658 143.848 25.7088 142.484 25.7088C141.12 25.7088 139.863 25.7088 138.966 25.6658C138.479 25.6784 137.992 25.646 137.511 25.5692C137.991 25.4884 138.479 25.4542 138.966 25.4671C139.863 25.4671 141.114 25.4295 142.484 25.4295C143.854 25.4295 145.099 25.4295 145.996 25.4671C146.484 25.4542 146.971 25.4884 147.452 25.5692Z" fill="#263238"/>
<path d="M166.567 9.24507C166.675 9.15758 166.799 9.09191 166.932 9.0517C167.292 8.91265 167.674 8.84161 168.06 8.84221C168.189 8.83459 168.318 8.83459 168.447 8.84221L168.651 8.87444H168.678C168.608 8.76165 168.78 9.03021 168.758 9.00336V9.05707V9.15913C168.694 9.43844 168.635 9.73386 168.565 10.04C168.425 10.6739 168.269 11.3614 168.108 12.0865V12.1939H167.287H164.816H164.687V12.0919C164.694 11.5902 164.813 11.0964 165.036 10.647C165.211 10.301 165.452 9.99256 165.745 9.73923C165.933 9.5759 166.143 9.4386 166.368 9.33101C166.524 9.26118 166.61 9.23432 166.615 9.24507C166.62 9.25581 166.287 9.42232 165.847 9.85203C165.554 10.1457 165.322 10.4953 165.166 10.88C165.01 11.2647 164.933 11.6768 164.939 12.0919L164.816 11.963H167.92L167.786 12.0704L168.269 10.0347C168.345 9.72849 168.42 9.43307 168.49 9.15376V9.0517V9.00336C168.49 9.00336 168.64 9.24507 168.565 9.13227H168.538L168.35 9.09467C168.231 9.07273 168.111 9.05838 167.99 9.0517C167.509 9.0502 167.03 9.11527 166.567 9.24507Z" fill="#E0E0E0"/>
<path d="M168.275 12.578H167.705H165.132C165.137 13.3671 165.423 14.1287 165.938 14.7266C166.259 15.109 166.668 15.4069 167.131 15.5942C167.594 15.7815 168.095 15.8525 168.591 15.8008L168.925 15.7525C170.407 15.3443 171.524 14.0068 171.444 12.6855C171.438 11.9614 171.196 11.2591 170.754 10.6858C170.311 10.1125 169.693 9.6999 168.994 9.51098L168.275 12.578Z" fill="#FAFAFA"/>
<path d="M166.566 20.811C166.078 21.0321 165.656 21.3778 165.344 21.8135C165.032 22.2491 164.84 22.7593 164.788 23.2926C164.788 23.3248 164.788 23.3571 164.788 23.3893C164.788 23.4215 164.788 23.4323 164.788 23.4538C164.788 23.4752 164.788 23.5773 164.788 23.6364H167.361H167.92L168.634 20.5425C168.415 20.493 168.192 20.4678 167.968 20.4673C167.481 20.4771 167.002 20.5945 166.566 20.811Z" fill="#FAFAFA"/>
<path d="M168.275 24.1369C168.308 23.8478 168.359 23.5608 168.425 23.2775C168.543 22.7028 168.699 21.9561 168.887 21.0538V20.9571H168.989C169.533 21.0815 170.035 21.3448 170.447 21.7214C170.858 22.098 171.165 22.575 171.337 23.1056C171.578 23.7195 171.624 24.3926 171.471 25.0339C171.263 25.7102 170.848 26.304 170.284 26.7313C169.9 27.0358 169.463 27.2671 168.995 27.4135L168.855 27.4511L168.823 27.306L168.984 27.4135C168.439 27.5192 167.877 27.4915 167.346 27.3329C166.853 27.1748 166.405 26.9003 166.04 26.5325C165.413 25.8938 165.063 25.0326 165.068 24.1369V24.0134H165.17L167.469 24.0671C167.75 24.0707 168.029 24.0922 168.307 24.1315C168.028 24.1734 167.746 24.1896 167.464 24.1799L165.165 24.2121L165.267 24.1154C165.286 24.9482 165.627 25.7414 166.218 26.3284C166.569 26.674 167.001 26.9266 167.475 27.0635C167.948 27.2004 168.448 27.2173 168.93 27.1127H169.064L169.091 27.2469L168.919 27.1395C169.367 27.0119 169.786 26.8005 170.155 26.5164C170.666 26.1233 171.041 25.5807 171.229 24.9641C171.37 24.3771 171.331 23.7612 171.116 23.1969C170.957 22.7054 170.677 22.2617 170.302 21.9069C169.926 21.5521 169.468 21.2975 168.968 21.1666L169.086 21.0914C168.85 22.0528 168.651 22.8263 168.511 23.3473C168.454 23.6166 168.375 23.8807 168.275 24.1369Z" fill="#E0E0E0"/>
<path d="M185.391 22.4572C183.604 22.5955 181.812 22.6421 180.02 22.5968C178.229 22.642 176.436 22.5953 174.649 22.4572C176.436 22.3122 178.229 22.2638 180.02 22.3122C181.812 22.2637 183.604 22.3121 185.391 22.4572Z" fill="#263238"/>
<path d="M180.021 23.8947C178.235 24.0806 176.435 24.0806 174.649 23.8947C176.435 23.7089 178.235 23.7089 180.021 23.8947Z" fill="#263238"/>
<path d="M185.391 10.8999C183.604 11.0449 181.812 11.0933 180.02 11.0449C178.229 11.0932 176.436 11.0448 174.649 10.8999C176.436 10.7617 178.229 10.7151 180.02 10.7602C181.812 10.715 183.604 10.7616 185.391 10.8999Z" fill="#263238"/>
<path d="M180.021 12.3403C178.235 12.5261 176.435 12.5261 174.649 12.3403C176.435 12.1544 178.235 12.1544 180.021 12.3403Z" fill="#263238"/>
<path d="M159.793 31.6295C159.712 31.6295 159.653 25.1847 159.653 17.1878C159.653 9.1909 159.712 2.7461 159.793 2.7461C159.873 2.7461 159.932 9.1909 159.932 17.1878C159.932 25.1847 159.863 31.6295 159.793 31.6295Z" fill="#263238"/>
<path d="M158.565 67.5284H155.235V97.5718H158.565V67.5284Z" fill="#2972FF"/>
<path d="M164.988 77.7339H161.658V97.5731H164.988V77.7339Z" fill="#2972FF"/>
<path d="M171.411 71.2701H168.081V97.7314H171.411V71.2701Z" fill="#2972FF"/>
<path d="M177.839 68.6926H174.509V97.5761H177.839V68.6926Z" fill="#2972FF"/>
<path d="M184.262 78.3441H180.932V97.5711H184.262V78.3441Z" fill="#2972FF"/>
<path d="M190.686 82.118H187.356V97.5748H190.686V82.118Z" fill="#2972FF"/>
<path d="M197.109 70.6157H193.78V97.5764H197.109V70.6157Z" fill="#2972FF"/>
<path d="M203.532 75.4736H200.202V97.5739H203.532V75.4736Z" fill="#2972FF"/>
<path d="M209.961 71.5913H206.631V97.5745H209.961V71.5913Z" fill="#2972FF"/>
<path d="M216.385 79.8737H213.056V97.5755H216.385V79.8737Z" fill="#2972FF"/>
<path d="M222.807 76.5054H219.477V97.5745H222.807V76.5054Z" fill="#2972FF"/>
<path d="M220.746 74.3456H220.542L219.962 74.2543C219.647 74.1968 219.33 74.1556 219.011 74.1307L218.404 74.0663L217.712 74.0394C216.519 73.9852 215.325 74.05 214.145 74.2328C212.585 74.4611 211.058 74.8759 209.597 75.468C207.82 76.1807 206.163 77.1605 204.682 78.3736C203.017 79.8044 201.541 81.4412 200.289 83.2448C198.893 85.0923 197.47 87.1277 195.493 88.7712C194.497 89.6155 193.37 90.2937 192.158 90.7798C190.898 91.2778 189.532 91.446 188.189 91.2685C186.848 91.0756 185.564 90.5917 184.43 89.8507C183.341 89.1385 182.344 88.2962 181.46 87.3426C179.698 85.479 178.42 83.3683 177.077 81.4778C175.875 79.6408 174.399 77.9981 172.7 76.6066C171.911 76.0116 171.048 75.5206 170.133 75.1458C169.282 74.8102 168.395 74.5724 167.491 74.4369C164.734 74.0427 161.924 74.5654 159.494 75.9245C158.842 76.3061 158.228 76.7466 157.657 77.2404L157.222 77.6324C157.125 77.7237 157.071 77.7667 157.066 77.7613C157.061 77.7559 157.109 77.7076 157.2 77.6109L157.619 77.1974C158.178 76.6826 158.786 76.2239 159.435 75.8279C161.867 74.4121 164.701 73.8452 167.491 74.2167C168.41 74.3497 169.311 74.5876 170.176 74.9256C171.115 75.2987 172 75.7954 172.807 76.4025C174.533 77.7987 176.033 79.4526 177.254 81.306C178.613 83.2018 179.891 85.3017 181.626 87.1331C182.504 88.0677 183.492 88.8919 184.569 89.5875C185.666 90.3027 186.905 90.7734 188.2 90.9678C189.499 91.1367 190.82 90.9741 192.04 90.4952C193.225 90.0217 194.324 89.3577 195.294 88.5295C197.239 86.9183 198.657 84.915 200.064 83.0622C200.762 82.133 201.46 81.2308 202.212 80.3768C202.577 79.9687 202.948 79.5605 203.345 79.1953L203.925 78.6582C204.124 78.481 204.333 78.3199 204.532 78.1534C206.034 76.9347 207.715 75.9547 209.516 75.2478C210.995 74.659 212.541 74.2532 214.119 74.0394C215.308 73.8712 216.512 73.8209 217.712 73.8891L218.41 73.932L219.017 74.0126C219.336 74.0447 219.654 74.0949 219.967 74.163L220.547 74.2811L220.746 74.3456Z" fill="#263238"/>
<path d="M151.573 99.6839C151.497 99.6839 151.433 91.1177 151.433 80.5536C151.433 69.9895 151.497 61.4179 151.573 61.4179C151.648 61.4179 151.712 69.9841 151.712 80.5536C151.712 91.123 151.648 99.6839 151.573 99.6839Z" fill="#263238"/>
<path d="M224.162 99.6857C224.162 99.7609 208.377 99.8254 188.914 99.8254C169.451 99.8254 153.661 99.7609 153.661 99.6857C153.661 99.6105 169.44 99.5461 188.914 99.5461C208.388 99.5461 224.162 99.5944 224.162 99.6857Z" fill="#263238"/>
<path d="M159.983 102.03C158.341 102.217 156.683 102.217 155.041 102.03C156.683 101.844 158.341 101.844 159.983 102.03Z" fill="#263238"/>
<path d="M168.173 102.155C166.208 102.342 164.23 102.342 162.265 102.155C164.23 101.969 166.208 101.969 168.173 102.155Z" fill="#263238"/>
<path d="M175.16 102.155C173.195 102.342 171.217 102.342 169.251 102.155C171.217 101.969 173.195 101.969 175.16 102.155Z" fill="#263238"/>
<path d="M182.147 102.155C180.181 102.342 178.203 102.342 176.238 102.155C178.203 101.969 180.181 101.969 182.147 102.155Z" fill="#263238"/>
<path d="M189.134 102.155C187.169 102.342 185.191 102.342 183.226 102.155C185.191 101.969 187.169 101.969 189.134 102.155Z" fill="#263238"/>
<path d="M196.121 102.155C194.156 102.342 192.177 102.342 190.212 102.155C192.177 101.969 194.156 101.969 196.121 102.155Z" fill="#263238"/>
<path d="M203.11 102.155C201.145 102.342 199.166 102.342 197.201 102.155C199.166 101.969 201.145 101.969 203.11 102.155Z" fill="#263238"/>
<path d="M210.096 102.155C208.13 102.341 206.152 102.341 204.187 102.155C206.152 101.969 208.13 101.969 210.096 102.155Z" fill="#263238"/>
<path d="M217.078 102.155C215.113 102.342 213.135 102.342 211.17 102.155C213.135 101.969 215.113 101.969 217.078 102.155Z" fill="#263238"/>
<path d="M224.066 102.155C222.101 102.342 220.122 102.342 218.157 102.155C220.122 101.969 222.101 101.969 224.066 102.155Z" fill="#263238"/>
<path d="M177.98 81.7985C177.98 81.7663 178.264 81.7985 178.377 82.1906C178.409 82.3005 178.414 82.4165 178.392 82.5288C178.37 82.641 178.32 82.7461 178.248 82.8352C178.145 82.9355 178.014 83.0027 177.873 83.0284C177.731 83.0541 177.585 83.0371 177.453 82.9795C177.321 82.9219 177.209 82.8263 177.132 82.7049C177.054 82.5836 177.015 82.442 177.018 82.2981C177.036 82.1831 177.082 82.0741 177.151 81.9806C177.22 81.887 177.311 81.8116 177.416 81.7609C177.776 81.5944 178.001 81.7609 177.953 81.8039C177.905 81.8469 177.738 81.7663 177.496 81.9328C177.432 81.9756 177.377 82.0318 177.336 82.0976C177.296 82.1635 177.27 82.2373 177.26 82.3142C177.26 82.4037 177.288 82.4911 177.339 82.5649C177.389 82.6386 177.461 82.6954 177.545 82.7278C177.624 82.7689 177.714 82.7848 177.802 82.7733C177.89 82.7618 177.973 82.7234 178.039 82.6633C178.09 82.6052 178.128 82.5367 178.15 82.4626C178.173 82.3884 178.178 82.3103 178.168 82.2336C178.152 81.9597 177.953 81.8361 177.98 81.7985Z" fill="#263238"/>
<path d="M210.138 74.5534C210.138 74.5534 210.203 74.5158 210.326 74.5534C210.503 74.5919 210.659 74.693 210.767 74.8381C210.855 74.9451 210.912 75.074 210.933 75.2112C210.954 75.3483 210.937 75.4885 210.885 75.6169C210.816 75.7762 210.702 75.9119 210.557 76.0073C210.412 76.1027 210.242 76.1537 210.068 76.154C209.894 76.1462 209.727 76.0839 209.59 75.976C209.453 75.8681 209.354 75.7199 209.306 75.5524C209.263 75.4207 209.255 75.28 209.283 75.1443C209.312 75.0086 209.375 74.8827 209.467 74.779C209.794 74.4459 210.106 74.4997 210.095 74.5265C210.084 74.5534 209.837 74.6125 209.617 74.9025C209.561 74.985 209.525 75.0799 209.514 75.1792C209.503 75.2784 209.516 75.3789 209.553 75.4719C209.59 75.586 209.662 75.6859 209.758 75.7579C209.854 75.83 209.97 75.8708 210.09 75.8747C210.209 75.8728 210.325 75.8388 210.426 75.7765C210.527 75.7141 210.61 75.6255 210.665 75.5202C210.702 75.4337 210.716 75.3393 210.708 75.2456C210.7 75.1518 210.668 75.0616 210.616 74.9831C210.407 74.6125 210.127 74.5963 210.138 74.5534Z" fill="#263238"/>
<path d="M210.66 60.5253C210.737 60.5253 210.8 60.345 210.8 60.1225C210.8 59.9 210.737 59.7196 210.66 59.7196C210.583 59.7196 210.52 59.9 210.52 60.1225C210.52 60.345 210.583 60.5253 210.66 60.5253Z" fill="#263238"/>
<path d="M210.66 64.0187C210.585 64.0187 210.52 63.6266 210.52 63.1432C210.52 62.6598 210.585 62.273 210.66 62.273C210.735 62.273 210.8 62.6651 210.8 63.1432C210.8 63.6212 210.74 64.0187 210.66 64.0187Z" fill="#263238"/>
<path d="M210.66 67.5196C210.585 67.5196 210.52 67.1275 210.52 66.6441C210.52 66.1606 210.585 65.7739 210.66 65.7739C210.735 65.7739 210.8 66.1606 210.8 66.6441C210.8 67.1275 210.74 67.5196 210.66 67.5196Z" fill="#263238"/>
<path d="M210.66 71.0098C210.585 71.0098 210.52 70.6176 210.52 70.1342C210.52 69.6508 210.585 69.2587 210.66 69.2587C210.735 69.2587 210.8 69.6508 210.8 70.1342C210.8 70.6176 210.74 71.0098 210.66 71.0098Z" fill="#263238"/>
<path d="M210.66 73.5613C210.585 73.5613 210.52 73.384 210.52 73.1584C210.52 72.9328 210.585 72.7556 210.66 72.7556C210.735 72.7556 210.8 72.9382 210.8 73.1584C210.8 73.3786 210.74 73.5613 210.66 73.5613Z" fill="#263238"/>
<path d="M234.334 54.9773C234.334 55.0525 228.877 55.117 222.143 55.117C215.408 55.117 209.951 55.0525 209.951 54.9773C209.951 54.9021 215.413 54.8377 222.143 54.8377C228.872 54.8377 234.334 54.9021 234.334 54.9773Z" fill="#263238"/>
<path d="M226.009 52.2192C226.009 52.2944 222.497 52.3588 218.163 52.3588C213.829 52.3588 210.322 52.2944 210.322 52.2192C210.322 52.144 213.834 52.0795 218.163 52.0795C222.491 52.0795 226.009 52.144 226.009 52.2192Z" fill="#263238"/>
<path d="M66.1936 35.8398C66.2688 35.8398 66.3333 36.0224 66.3333 36.2427C66.3333 36.4629 66.2688 36.6455 66.1936 36.6455C66.1184 36.6455 66.054 36.4629 66.054 36.2427C66.054 36.0224 66.113 35.8398 66.1936 35.8398Z" fill="#263238"/>
<path d="M66.1936 32.7324C66.2688 32.7324 66.3333 33.0815 66.3333 33.5112C66.3333 33.9409 66.2688 34.2847 66.1936 34.2847C66.1184 34.2847 66.054 33.9409 66.054 33.5112C66.054 33.0815 66.113 32.7324 66.1936 32.7324Z" fill="#263238"/>
<path d="M66.1936 29.6249C66.2688 29.6249 66.3333 29.9687 66.3333 30.3984C66.3333 30.8281 66.2688 31.1773 66.1936 31.1773C66.1184 31.1773 66.054 30.8281 66.054 30.3984C66.054 29.9687 66.113 29.6249 66.1936 29.6249Z" fill="#263238"/>
<path d="M66.1936 26.5135C66.2688 26.5135 66.3333 26.8626 66.3333 27.2924C66.3333 27.7221 66.2688 28.0658 66.1936 28.0658C66.1184 28.0658 66.054 27.7221 66.054 27.2924C66.054 26.8626 66.113 26.5135 66.1936 26.5135Z" fill="#263238"/>
<path d="M66.1936 24.9638C66.2707 24.9638 66.3333 24.6151 66.3333 24.1849C66.3333 23.7548 66.2707 23.4061 66.1936 23.4061C66.1165 23.4061 66.054 23.7548 66.054 24.1849C66.054 24.6151 66.1165 24.9638 66.1936 24.9638Z" fill="#263238"/>
<path d="M66.1936 20.2987C66.2688 20.2987 66.3333 20.6478 66.3333 21.0775C66.3333 21.5072 66.2688 21.851 66.1936 21.851C66.1184 21.851 66.054 21.5018 66.054 21.0775C66.054 20.6532 66.113 20.2987 66.1936 20.2987Z" fill="#263238"/>
<path d="M66.1936 17.938C66.2688 17.938 66.3333 18.1152 66.3333 18.3408C66.3333 18.5664 66.2688 18.7437 66.1936 18.7437C66.1184 18.7437 66.054 18.5611 66.054 18.3408C66.054 18.1206 66.113 17.938 66.1936 17.938Z" fill="#263238"/>
<path d="M67 17.1783C67 17.2535 66.8174 17.318 66.5972 17.318C66.377 17.318 66.1943 17.2535 66.1943 17.1783C66.1943 17.1031 66.3716 17.0387 66.5972 17.0387C66.8228 17.0387 67 17.1031 67 17.1783Z" fill="#263238"/>
<path d="M70.3089 17.1783C70.3089 17.2535 69.9383 17.318 69.4817 17.318C69.0252 17.318 68.6545 17.2535 68.6545 17.1783C68.6545 17.1031 69.0252 17.0387 69.4817 17.0387C69.9383 17.0387 70.3089 17.1031 70.3089 17.1783Z" fill="#263238"/>
<path d="M73.6161 17.1783C73.6161 17.2535 73.2454 17.318 72.7889 17.318C72.3323 17.318 71.9617 17.2535 71.9617 17.1783C71.9617 17.1031 72.3323 17.0387 72.7889 17.0387C73.2454 17.0387 73.6161 17.1031 73.6161 17.1783Z" fill="#263238"/>
<path d="M76.9251 17.1783C76.9251 17.2535 76.5545 17.318 76.0979 17.318C75.6414 17.318 75.2708 17.2535 75.2708 17.1783C75.2708 17.1031 75.6414 17.0387 76.0979 17.0387C76.5545 17.0387 76.9251 17.1031 76.9251 17.1783Z" fill="#263238"/>
<path d="M80.2281 17.1783C80.2281 17.2535 79.8575 17.318 79.4009 17.318C78.9444 17.318 78.5791 17.2535 78.5791 17.1783C78.5791 17.1031 78.9444 17.0387 79.4009 17.0387C79.8575 17.0387 80.2281 17.1031 80.2281 17.1783Z" fill="#263238"/>
<path d="M83.5301 17.1783C83.5301 17.2535 83.1595 17.318 82.7029 17.318C82.2464 17.318 81.8811 17.2535 81.8811 17.1783C81.8811 17.1031 82.2464 17.0387 82.7029 17.0387C83.1595 17.0387 83.5301 17.1031 83.5301 17.1783Z" fill="#263238"/>
<path d="M86.8233 17.1783C86.8233 17.2535 86.4527 17.318 86.0015 17.318C85.5503 17.318 85.1743 17.2535 85.1743 17.1783C85.1743 17.1031 85.5449 17.0387 86.0015 17.0387C86.4581 17.0387 86.8233 17.1031 86.8233 17.1783Z" fill="#263238"/>
<path d="M90.1407 17.1783C90.1407 17.2535 89.7701 17.318 89.3135 17.318C88.8569 17.318 88.4863 17.2535 88.4863 17.1783C88.4863 17.1031 88.8569 17.0387 89.3135 17.0387C89.7701 17.0387 90.1407 17.1031 90.1407 17.1783Z" fill="#263238"/>
<path d="M93.4449 17.1783C93.4449 17.2535 93.0743 17.318 92.6177 17.318C92.1611 17.318 91.7905 17.2535 91.7905 17.1783C91.7905 17.1031 92.1611 17.0387 92.6177 17.0387C93.0743 17.0387 93.4449 17.1031 93.4449 17.1783Z" fill="#263238"/>
<path d="M96.7489 17.1783C96.7489 17.2535 96.3836 17.318 95.927 17.318C95.4705 17.318 95.0999 17.2535 95.0999 17.1783C95.0999 17.1031 95.4705 17.0387 95.927 17.0387C96.3836 17.0387 96.7489 17.1031 96.7489 17.1783Z" fill="#263238"/>
<path d="M100.055 17.1783C100.055 17.2535 99.6846 17.318 99.2281 17.318C98.7715 17.318 98.4009 17.2535 98.4009 17.1783C98.4009 17.1031 98.7715 17.0387 99.2281 17.0387C99.6846 17.0387 100.055 17.1031 100.055 17.1783Z" fill="#263238"/>
<path d="M102.532 17.1783C102.532 17.2535 102.355 17.318 102.129 17.318C101.903 17.318 101.726 17.2535 101.726 17.1783C101.726 17.1031 101.909 17.0387 102.129 17.0387C102.349 17.0387 102.532 17.1031 102.532 17.1783Z" fill="#263238"/>
<path d="M142.23 47.2248H121.564C121.29 47.2241 121.019 47.2775 120.766 47.382C120.513 47.4864 120.283 47.6399 120.089 47.8336C119.895 48.0272 119.742 48.2572 119.637 48.5103C119.533 48.7635 119.48 49.0348 119.48 49.3086V61.4302C119.48 61.9829 119.7 62.5129 120.091 62.9037C120.481 63.2945 121.011 63.514 121.564 63.514H124.872V68.4819L129.325 63.514H142.214C142.767 63.514 143.297 63.2945 143.688 62.9037C144.079 62.5129 144.298 61.9829 144.298 61.4302V49.3086C144.299 48.7583 144.083 48.2299 143.695 47.8392C143.307 47.4486 142.781 47.2276 142.23 47.2248Z" fill="#263238"/>
<path d="M129.422 55.6454C129.422 55.8167 129.371 55.9841 129.276 56.1264C129.181 56.2687 129.045 56.3796 128.887 56.4448C128.729 56.5101 128.554 56.527 128.386 56.4931C128.219 56.4593 128.065 56.3764 127.944 56.255C127.823 56.1335 127.741 55.9789 127.708 55.8108C127.676 55.6427 127.693 55.4686 127.76 55.3107C127.826 55.1528 127.938 55.0181 128.081 54.9237C128.224 54.8293 128.391 54.7795 128.563 54.7806C128.676 54.7806 128.788 54.803 128.893 54.8465C128.997 54.89 129.092 54.9538 129.172 55.0342C129.252 55.1146 129.315 55.21 129.358 55.3148C129.401 55.4197 129.423 55.5321 129.422 55.6454Z" fill="#FAFAFA"/>
<path d="M132.809 55.6454C132.809 55.8167 132.759 55.9841 132.663 56.1264C132.568 56.2687 132.433 56.3796 132.274 56.4448C132.116 56.5101 131.942 56.527 131.774 56.4931C131.606 56.4593 131.452 56.3764 131.331 56.255C131.211 56.1335 131.129 55.9789 131.096 55.8108C131.063 55.6427 131.081 55.4686 131.147 55.3107C131.213 55.1528 131.325 55.0181 131.468 54.9237C131.611 54.8293 131.779 54.7795 131.95 54.7806C132.178 54.782 132.397 54.8738 132.558 55.0358C132.719 55.1978 132.809 55.417 132.809 55.6454Z" fill="#FAFAFA"/>
<path d="M136.097 55.6454C136.097 55.8164 136.046 55.9836 135.951 56.1258C135.856 56.268 135.721 56.3789 135.563 56.4443C135.405 56.5098 135.231 56.5269 135.063 56.4935C134.895 56.4602 134.741 56.3778 134.62 56.2569C134.499 56.1359 134.417 55.9818 134.384 55.8141C134.35 55.6463 134.367 55.4724 134.433 55.3144C134.498 55.1564 134.609 55.0213 134.751 54.9263C134.893 54.8313 135.061 54.7806 135.232 54.7806C135.345 54.7806 135.458 54.8029 135.563 54.8464C135.668 54.8899 135.763 54.9536 135.843 55.0339C135.924 55.1142 135.987 55.2095 136.031 55.3144C136.074 55.4193 136.097 55.5318 136.097 55.6454Z" fill="#FAFAFA"/>
<path d="M96.5281 62.3179C95.513 62.0655 95.6795 59.2727 95.5721 58.4188C95.4594 57.9039 95.4948 57.3677 95.6741 56.8721C95.8472 56.5792 96.0884 56.3324 96.3774 56.1529C96.6663 55.9733 96.9944 55.8663 97.3337 55.8409C98.005 55.7389 98.6924 55.8033 99.3638 55.7066C100.717 55.5133 101.926 54.6755 103.284 54.5519C103.841 54.5059 104.402 54.5815 104.927 54.7734C105.451 54.9654 105.928 55.2691 106.324 55.6637C106.727 56.1923 107.199 56.6654 107.726 57.0708C108.267 57.3026 108.833 57.4719 109.412 57.5756C110.115 57.7915 110.742 58.2041 111.217 58.7646C111.693 59.3252 111.999 60.0103 112.098 60.7389C112.139 61.6045 112.076 62.4719 111.91 63.3222C111.749 64.1809 111.877 65.0686 112.275 65.8464C112.742 66.6144 113.628 67.0602 114.063 67.8497C114.259 68.2002 114.353 68.5986 114.335 68.9998C114.316 69.401 114.185 69.7889 113.957 70.1194C113.728 70.45 113.412 70.7099 113.044 70.8698C112.675 71.0296 112.269 71.083 111.872 71.0238C111.62 70.9862 111.335 70.9163 111.131 71.0775C110.992 71.2482 110.911 71.459 110.9 71.679C110.822 72.1063 110.578 72.4853 110.221 72.7325C109.864 72.9798 109.423 73.0751 108.996 72.9975C108.569 72.9198 108.19 72.6757 107.942 72.3186C107.695 71.9616 107.6 71.5209 107.678 71.0936" fill="#263238"/>
<path d="M108.306 80.1967L99.4122 79.4878C99.3585 78.4513 99.4122 74.434 99.4122 74.434C99.4122 74.434 95.7118 73.8594 95.6527 70.1375C95.5936 66.4156 96.2488 57.9407 96.2488 57.9407C98.3518 57.038 100.657 56.7114 102.928 56.9945C105.199 57.2777 107.354 58.1604 109.171 59.5519L109.708 59.9708L108.306 80.1967Z" fill="#FFBE9D"/>
<path d="M97.1191 63.9821C97.1981 63.9108 97.2541 63.8178 97.2801 63.7147C97.3061 63.6116 97.301 63.5031 97.2653 63.403C97.2296 63.3028 97.165 63.2155 97.0797 63.1521C96.9944 63.0887 96.8921 63.052 96.7859 63.0468C96.6798 63.0415 96.5744 63.0679 96.4832 63.1225C96.392 63.1772 96.3191 63.2576 96.2737 63.3538C96.2282 63.4499 96.2124 63.5573 96.228 63.6625C96.2437 63.7676 96.2903 63.8658 96.3618 63.9445C96.4573 64.0496 96.5907 64.1127 96.7327 64.1197C96.8746 64.1268 97.0136 64.0773 97.1191 63.9821Z" fill="#263238"/>
<path d="M96.2227 63.4804C96.2818 63.5448 96.6416 63.2655 97.1519 63.2602C97.6622 63.2548 98.0328 63.5234 98.0865 63.4589C98.1403 63.3944 98.0597 63.3139 97.8985 63.1903C97.6822 63.032 97.42 62.9489 97.1519 62.954C96.8826 62.9567 96.621 63.0451 96.4053 63.2064C96.2495 63.3354 96.1958 63.4535 96.2227 63.4804Z" fill="#263238"/>
<path d="M102.007 63.6635C101.916 63.7192 101.844 63.8007 101.799 63.8975C101.755 63.9943 101.74 64.1021 101.757 64.2072C101.774 64.3123 101.822 64.4099 101.895 64.4878C101.968 64.5656 102.062 64.6201 102.165 64.6443C102.269 64.6685 102.378 64.6614 102.477 64.6238C102.577 64.5862 102.663 64.5198 102.725 64.4331C102.787 64.3465 102.821 64.2434 102.825 64.1369C102.828 64.0305 102.799 63.9256 102.742 63.8354C102.667 63.7156 102.548 63.6304 102.41 63.5982C102.272 63.566 102.127 63.5895 102.007 63.6635Z" fill="#263238"/>
<path d="M101.753 63.9287C101.812 63.9931 102.178 63.7138 102.688 63.7138C103.198 63.7138 103.563 63.9717 103.622 63.9072C103.681 63.8427 103.59 63.7622 103.429 63.6386C103.211 63.4836 102.95 63.4026 102.682 63.4077C102.414 63.406 102.153 63.4949 101.941 63.6601C101.78 63.7837 101.726 63.9018 101.753 63.9287Z" fill="#263238"/>
<path d="M99.7127 68.1319C99.4502 68.0293 99.1725 67.9712 98.8909 67.96C98.7566 67.96 98.6492 67.9117 98.6385 67.8418C98.6378 67.7086 98.671 67.5773 98.7351 67.4605C98.8694 67.1221 98.9983 66.7837 99.138 66.4238C99.5214 65.5481 99.8148 64.6356 100.014 63.7005C99.543 64.5326 99.1596 65.411 98.8694 66.3217C98.7351 66.6816 98.6116 67.0254 98.4881 67.3638C98.4049 67.5298 98.3785 67.7185 98.4129 67.9009C98.4318 67.9524 98.4626 67.9986 98.5027 68.0359C98.5428 68.0733 98.5912 68.1006 98.6438 68.1158C98.7174 68.1356 98.7932 68.1464 98.8694 68.148C99.1495 68.1885 99.4344 68.183 99.7127 68.1319Z" fill="#263238"/>
<path d="M101.368 68.6966C101.905 68.3796 99.9065 69.47 98.8699 69.4217C99.0458 69.6848 99.3053 69.881 99.6065 69.9784C99.9077 70.0759 100.233 70.069 100.53 69.9588C101.636 69.5775 101.368 68.6966 101.368 68.6966Z" fill="#FAFAFA"/>
<path d="M99.4119 74.3845C101.123 74.4174 102.806 73.9406 104.246 73.0148C104.246 73.0148 103.107 75.6736 99.4119 75.3406V74.3845Z" fill="#EB996E"/>
<path d="M109.165 63.8143C109.24 63.7713 111.792 62.9441 112.119 66.081C112.447 69.2179 109.176 68.5089 109.16 68.4176C109.144 68.3262 109.165 63.8143 109.165 63.8143Z" fill="#FFBE9D"/>
<path d="M110.008 67.2222C110.008 67.2222 110.062 67.2545 110.159 67.2867C110.227 67.3082 110.298 67.3159 110.369 67.3095C110.44 67.303 110.509 67.2825 110.572 67.2491C110.76 67.0997 110.905 66.9032 110.992 66.6795C111.078 66.4558 111.104 66.213 111.066 65.9761C111.048 65.706 110.969 65.4436 110.835 65.208C110.796 65.1129 110.733 65.029 110.654 64.9635C110.574 64.8979 110.48 64.8528 110.379 64.832C110.314 64.8209 110.248 64.8332 110.192 64.8667C110.136 64.9002 110.094 64.9526 110.073 65.0146C110.04 65.1059 110.073 65.1704 110.073 65.1757C110.073 65.1811 109.998 65.1274 110.008 64.9985C110.021 64.92 110.056 64.8471 110.11 64.789C110.19 64.7143 110.296 64.6738 110.406 64.6762C110.537 64.6899 110.662 64.7358 110.771 64.8098C110.88 64.8839 110.968 64.9838 111.029 65.1005C111.188 65.359 111.284 65.6518 111.308 65.9546C111.354 66.2324 111.315 66.5175 111.199 66.7737C111.082 67.03 110.892 67.2459 110.653 67.3941C110.572 67.4272 110.484 67.4415 110.397 67.4359C110.309 67.4304 110.224 67.405 110.148 67.3619C110.019 67.2974 109.998 67.2276 110.008 67.2222Z" fill="#EB996E"/>
<path d="M96.2863 57.7913C96.9953 59.1017 98.5528 59.7623 100.046 59.8268C101.536 59.7965 103.013 59.5356 104.423 59.0534C105.202 58.8386 106.152 58.6721 106.722 59.2414C107.024 59.6086 107.196 60.0657 107.21 60.5411C107.34 61.5782 107.354 62.6265 107.253 63.6668C107.178 64.0787 107.178 64.5009 107.253 64.9128C107.293 65.1191 107.395 65.3084 107.544 65.456C107.694 65.6036 107.884 65.7026 108.091 65.7399C108.746 65.7936 109.165 65.0578 109.364 64.4402C109.701 63.5957 109.944 62.7168 110.089 61.8193C110.229 60.915 110.061 59.9899 109.611 59.193C109.006 58.3583 108.175 57.7137 107.216 57.3348C105.383 56.3943 103.367 55.8647 101.308 55.7827C100.276 55.7528 99.2487 55.9273 98.2846 56.2959C97.3205 56.6646 96.4388 57.2203 95.6902 57.9309" fill="#263238"/>
<path d="M95.2075 220.376L95.1807 215.435L104.429 215.322L104.547 222.546L103.972 222.589C101.421 222.766 90.9916 223.287 89.2783 222.793C87.361 222.24 95.2075 220.376 95.2075 220.376Z" fill="#2972FF"/>
<path d="M101.189 222.514C101.318 221.731 101.732 221.023 102.35 220.526C102.953 220.032 103.72 219.783 104.498 219.828L104.53 222.417L101.189 222.514Z" fill="#2972FF"/>
<path d="M91.3774 221.421C91.3774 221.421 88.633 222.248 88.9821 222.699C89.3312 223.15 99.8899 223.01 104.557 222.543V222.339L92.2367 222.602C92.2367 222.602 91.9145 221.437 91.3774 221.421Z" fill="#2972FF"/>
<path d="M104.675 222.332H104.514L104.057 222.364L102.376 222.461C100.959 222.531 98.9982 222.6 96.8285 222.627C94.6587 222.654 92.6984 222.627 91.2752 222.627L89.5942 222.579H91.2752C92.6984 222.579 94.6587 222.579 96.8285 222.579C98.9982 222.579 100.953 222.493 102.376 222.445L104.057 222.386H104.514L104.675 222.332Z" fill="#263238"/>
<path d="M92.1949 222.742C92.1187 222.466 92.0105 222.199 91.8726 221.947C91.7025 221.713 91.5061 221.498 91.2871 221.308C91.5781 221.409 91.82 221.616 91.9639 221.888C92.1442 222.134 92.2265 222.439 92.1949 222.742Z" fill="#263238"/>
<path d="M94.9276 221.325C94.9008 221.325 94.7665 221.186 94.6322 220.976C94.4979 220.767 94.4012 220.579 94.4281 220.563C94.4549 220.546 94.5892 220.702 94.7235 220.912C94.8578 221.121 94.9545 221.309 94.9276 221.325Z" fill="#263238"/>
<path d="M95.6687 220.925C95.6687 220.925 95.5022 220.85 95.341 220.71C95.1799 220.57 95.0671 220.436 95.0886 220.409C95.11 220.382 95.2551 220.484 95.4162 220.624C95.5774 220.764 95.6902 220.898 95.6687 220.925Z" fill="#263238"/>
<path d="M96.136 220.045C95.9817 220.102 95.8165 220.124 95.6526 220.11C95.4904 220.135 95.3243 220.121 95.1692 220.067C95.1692 220.034 95.384 220.008 95.6472 220.002C95.8113 219.979 95.9786 219.993 96.136 220.045Z" fill="#263238"/>
<path d="M96.2867 219.449C96.1282 219.556 95.9408 219.613 95.7495 219.61C95.5681 219.643 95.381 219.621 95.2124 219.546C95.3898 219.515 95.5695 219.499 95.7495 219.498C95.9267 219.465 96.1065 219.449 96.2867 219.449Z" fill="#263238"/>
<path d="M94.6052 220.526C94.4079 220.56 94.2062 220.56 94.0089 220.526C93.7939 220.504 93.5815 220.461 93.3751 220.397C93.2485 220.362 93.1261 220.313 93.0099 220.252C92.9387 220.212 92.8851 220.147 92.8595 220.069C92.8497 220.025 92.8525 219.979 92.8677 219.936C92.8829 219.893 92.9098 219.856 92.9454 219.828C93.1708 219.71 93.4305 219.677 93.6783 219.733C93.9261 219.789 94.146 219.931 94.299 220.134C94.3927 220.249 94.4604 220.382 94.4977 220.526C94.5246 220.628 94.5246 220.687 94.4977 220.687C94.4364 220.504 94.3437 220.333 94.2238 220.182C94.0807 220.024 93.8937 219.911 93.6867 219.86C93.5716 219.822 93.4502 219.807 93.3295 219.816C93.2087 219.826 93.091 219.859 92.983 219.913C92.8863 219.989 92.9239 220.096 93.0313 220.161C93.139 220.217 93.2525 220.262 93.3697 220.295C93.5699 220.361 93.7745 220.413 93.9821 220.451C94.3742 220.526 94.6052 220.526 94.6052 220.526Z" fill="#263238"/>
<path d="M94.4497 220.552C94.4497 220.552 94.353 220.412 94.3745 220.144C94.3922 219.987 94.4455 219.836 94.5302 219.703C94.58 219.615 94.6515 219.54 94.7379 219.487C94.8243 219.433 94.9229 219.402 95.0244 219.397C95.0848 219.41 95.1379 219.446 95.1729 219.497C95.2079 219.548 95.222 219.61 95.2124 219.671C95.1982 219.765 95.1634 219.855 95.1103 219.934C95.0354 220.067 94.9433 220.19 94.8364 220.3C94.6538 220.482 94.5034 220.557 94.498 220.541C94.4926 220.525 94.6162 220.434 94.7773 220.246C94.8708 220.134 94.9536 220.013 95.0244 219.886C95.105 219.757 95.1533 219.531 95.0244 219.51C94.8955 219.488 94.7236 219.644 94.6323 219.762C94.5511 219.88 94.4962 220.014 94.4711 220.154C94.4525 220.286 94.4453 220.419 94.4497 220.552Z" fill="#263238"/>
<path d="M104.456 219.809C104.456 219.809 104.187 219.809 103.768 219.841C103.225 219.91 102.711 220.13 102.286 220.475C101.865 220.825 101.549 221.284 101.373 221.802C101.238 222.199 101.228 222.468 101.206 222.462C101.185 222.457 101.206 222.398 101.206 222.28C101.222 222.11 101.255 221.943 101.303 221.78C101.461 221.234 101.782 220.748 102.222 220.388C102.662 220.027 103.201 219.808 103.768 219.76C103.947 219.742 104.127 219.742 104.305 219.76C104.391 219.782 104.456 219.798 104.456 219.809Z" fill="#263238"/>
<path d="M103.472 215.965C103.576 217.229 103.608 218.499 103.569 219.767C103.494 219.136 103.458 218.501 103.462 217.866C103.429 217.232 103.433 216.598 103.472 215.965Z" fill="#263238"/>
<path d="M100.014 221.627C99.5733 221.736 99.1199 221.787 98.6658 221.777C98.2126 221.809 97.7571 221.779 97.3123 221.686C97.3123 221.653 97.9192 221.686 98.6658 221.686C99.4125 221.686 100.014 221.6 100.014 221.627Z" fill="#263238"/>
<path d="M101.829 221.597C101.829 221.624 101.781 221.726 101.722 221.866C101.663 222.005 101.631 222.129 101.598 222.129C101.566 222.129 101.55 221.984 101.598 221.823C101.647 221.662 101.808 221.597 101.829 221.597Z" fill="#263238"/>
<path d="M102.5 220.738C102.5 220.738 102.462 220.862 102.371 220.959C102.28 221.055 102.183 221.12 102.156 221.098C102.129 221.077 102.194 220.98 102.29 220.878C102.387 220.776 102.478 220.717 102.5 220.738Z" fill="#263238"/>
<path d="M103.473 220.342C103.473 220.374 103.344 220.374 103.21 220.422C103.075 220.471 102.979 220.546 102.952 220.524C102.925 220.503 103.006 220.374 103.172 220.315C103.339 220.256 103.473 220.31 103.473 220.342Z" fill="#263238"/>
<path d="M104.166 220.148C104.166 220.175 104.128 220.223 104.053 220.255C103.978 220.288 103.902 220.288 103.892 220.255C103.881 220.223 103.935 220.175 104.01 220.148C104.085 220.121 104.155 220.121 104.166 220.148Z" fill="#263238"/>
<path d="M142.479 217.841L140.97 213.142L132.146 215.903L134.295 222.809L134.832 222.67C137.313 222.047 147.388 219.308 148.865 218.303C150.509 217.159 142.479 217.841 142.479 217.841Z" fill="#2972FF"/>
<path d="M137.453 221.71C137.09 221.006 136.48 220.461 135.74 220.179C135.011 219.897 134.202 219.897 133.473 220.179L134.247 222.65L137.453 221.71Z" fill="#2972FF"/>
<path d="M146.438 217.63C146.438 217.63 149.301 217.56 149.124 218.097C148.947 218.634 138.85 221.786 134.279 222.785L134.231 222.581L146.046 219.01C146.046 219.01 145.934 217.839 146.438 217.63Z" fill="#2972FF"/>
<path d="M134.085 222.616C134.137 222.622 134.189 222.622 134.241 222.616L134.687 222.503L136.298 222.074C137.668 221.698 139.553 221.155 141.626 220.511C143.699 219.866 145.557 219.238 146.9 218.765L148.484 218.201L148.908 218.035L149.059 217.976C149.006 217.983 148.954 217.996 148.903 218.013L148.468 218.158L146.857 218.696C145.509 219.147 143.634 219.77 141.578 220.409C139.521 221.048 137.625 221.606 136.261 222.02L134.649 222.487L134.209 222.616H134.085Z" fill="#263238"/>
<path d="M146.057 219.146C146.044 218.858 146.064 218.57 146.116 218.286C146.205 218.012 146.326 217.749 146.476 217.502C146.247 217.701 146.084 217.965 146.009 218.258C145.934 218.552 145.951 218.862 146.057 219.146Z" fill="#263238"/>
<path d="M143.037 218.64C143.07 218.64 143.145 218.457 143.209 218.216C143.274 217.974 143.306 217.765 143.274 217.759C143.241 217.754 143.166 217.942 143.102 218.184C143.047 218.329 143.025 218.485 143.037 218.64Z" fill="#263238"/>
<path d="M142.205 218.483C142.232 218.483 142.345 218.365 142.452 218.177C142.559 217.989 142.629 217.833 142.602 217.817C142.576 217.801 142.463 217.935 142.355 218.123C142.248 218.311 142.178 218.467 142.205 218.483Z" fill="#263238"/>
<path d="M141.492 217.794C141.657 217.806 141.824 217.776 141.975 217.708C142.137 217.679 142.289 217.612 142.421 217.515C142.257 217.51 142.094 217.539 141.943 217.601C141.781 217.635 141.628 217.7 141.492 217.794Z" fill="#263238"/>
<path d="M141.153 217.257C141.329 217.306 141.515 217.306 141.69 217.257C141.879 217.23 142.055 217.148 142.195 217.02C142.013 217.043 141.833 217.084 141.658 217.144C141.487 217.167 141.318 217.205 141.153 217.257Z" fill="#263238"/>
<path d="M143.097 217.778C143.296 217.752 143.489 217.69 143.666 217.595C143.855 217.506 144.035 217.398 144.203 217.273C144.313 217.204 144.414 217.121 144.504 217.026C144.532 216.997 144.554 216.962 144.569 216.924C144.584 216.887 144.591 216.846 144.59 216.806C144.587 216.761 144.571 216.717 144.543 216.682C144.515 216.646 144.477 216.62 144.434 216.607C144.273 216.579 144.107 216.588 143.95 216.633C143.793 216.678 143.648 216.759 143.527 216.869C143.406 216.979 143.311 217.115 143.251 217.267C143.19 217.419 143.165 217.583 143.177 217.746C143.174 217.801 143.185 217.857 143.209 217.907C143.211 217.714 143.247 217.523 143.317 217.343C143.398 217.153 143.532 216.991 143.704 216.876C143.801 216.803 143.912 216.751 144.03 216.722C144.148 216.693 144.271 216.689 144.391 216.709C144.504 216.747 144.504 216.865 144.391 216.956C144.309 217.045 144.217 217.124 144.117 217.192C143.947 217.317 143.768 217.429 143.58 217.525C143.306 217.692 143.091 217.762 143.097 217.778Z" fill="#263238"/>
<path d="M143.254 217.759C143.287 217.618 143.266 217.471 143.195 217.345C143.133 217.199 143.035 217.072 142.91 216.974C142.838 216.91 142.752 216.863 142.659 216.839C142.565 216.815 142.467 216.813 142.373 216.835C142.319 216.864 142.278 216.914 142.26 216.973C142.242 217.033 142.248 217.097 142.276 217.152C142.319 217.239 142.379 217.315 142.454 217.377C142.568 217.479 142.694 217.565 142.83 217.635C142.95 217.709 143.086 217.753 143.227 217.764C143.227 217.764 143.082 217.694 142.867 217.565C142.742 217.49 142.626 217.4 142.523 217.297C142.411 217.205 142.287 217.007 142.421 216.937C142.501 216.922 142.583 216.926 142.661 216.947C142.739 216.968 142.811 217.007 142.873 217.06C142.987 217.144 143.08 217.252 143.146 217.377C143.194 217.501 143.23 217.628 143.254 217.759Z" fill="#263238"/>
<path d="M133.511 220.147C133.511 220.147 133.758 220.045 134.172 219.964C134.71 219.861 135.267 219.911 135.778 220.11C136.289 220.308 136.734 220.647 137.062 221.087C137.314 221.425 137.405 221.672 137.427 221.667C137.418 221.603 137.398 221.541 137.368 221.484C137.301 221.329 137.22 221.179 137.126 221.039C136.802 220.573 136.348 220.213 135.821 220.002C135.289 219.799 134.71 219.76 134.156 219.889C133.99 219.927 133.828 219.981 133.672 220.05C133.614 220.075 133.56 220.107 133.511 220.147Z" fill="#263238"/>
<path d="M133.281 216.189C133.406 216.811 133.569 217.424 133.769 218.026C133.934 218.639 134.134 219.241 134.366 219.831C134.241 219.209 134.078 218.596 133.877 217.994C133.713 217.382 133.514 216.779 133.281 216.189Z" fill="#263238"/>
<path d="M138.296 220.528C138.749 220.498 139.195 220.406 139.623 220.255C140.063 220.141 140.488 219.971 140.885 219.75C140.885 219.717 140.305 219.932 139.59 220.147C138.876 220.362 138.291 220.475 138.296 220.528Z" fill="#263238"/>
<path d="M136.565 221.063C136.565 221.063 136.646 221.171 136.748 221.283C136.85 221.396 136.92 221.504 136.947 221.493C136.974 221.482 136.947 221.337 136.834 221.208C136.721 221.079 136.576 221.015 136.565 221.063Z" fill="#263238"/>
<path d="M135.659 220.434C135.659 220.461 135.729 220.536 135.853 220.601C135.976 220.665 136.078 220.698 136.094 220.671C136.11 220.644 136.024 220.569 135.901 220.504C135.777 220.44 135.697 220.408 135.659 220.434Z" fill="#263238"/>
<path d="M134.622 220.357C134.622 220.384 134.751 220.357 134.896 220.357C135.041 220.357 135.154 220.4 135.17 220.357C135.186 220.314 135.079 220.234 134.902 220.228C134.724 220.223 134.59 220.33 134.622 220.357Z" fill="#263238"/>
<path d="M133.893 220.394C133.893 220.421 133.952 220.453 134.038 220.458C134.124 220.464 134.188 220.458 134.188 220.41C134.188 220.362 134.124 220.351 134.043 220.345C133.962 220.34 133.893 220.362 133.893 220.394Z" fill="#263238"/>
<path d="M88.9124 122.296L93.2304 218.243L107.634 218.549L105.239 138.22L131.346 219.505L143.118 216.283L116.851 122.296" fill="#263238"/>
<path d="M130.728 218.959L131.399 220.254L143.875 216.618L143.118 214.523L130.728 218.959Z" fill="#455A64"/>
<path d="M141.679 214.044C141.754 214.018 141.862 214.173 141.926 214.388C141.991 214.603 141.985 214.791 141.926 214.813C141.867 214.834 141.738 214.684 141.674 214.469C141.609 214.254 141.604 214.082 141.679 214.044Z" fill="#455A64"/>
<path d="M140.745 210.922C140.82 210.922 140.981 211.233 141.11 211.663C141.239 212.093 141.288 212.458 141.212 212.485C141.137 212.512 140.976 212.173 140.842 211.744C140.707 211.314 140.67 210.949 140.745 210.922Z" fill="#455A64"/>
<path d="M139.811 207.811C139.886 207.811 140.047 208.122 140.176 208.552C140.305 208.981 140.354 209.347 140.278 209.368C140.203 209.39 140.042 209.062 139.913 208.632C139.784 208.203 139.736 207.837 139.811 207.811Z" fill="#455A64"/>
<path d="M138.876 204.691C138.952 204.691 139.113 205.003 139.242 205.432C139.371 205.862 139.419 206.227 139.344 206.249C139.269 206.27 139.107 205.943 138.979 205.513C138.85 205.083 138.801 204.713 138.876 204.691Z" fill="#455A64"/>
<path d="M137.942 201.58C138.017 201.58 138.178 201.891 138.307 202.321C138.436 202.751 138.484 203.116 138.409 203.137C138.334 203.159 138.173 202.831 138.044 202.401C137.915 201.972 137.845 201.601 137.942 201.58Z" fill="#455A64"/>
<path d="M137.006 198.46C137.081 198.46 137.247 198.772 137.376 199.201C137.505 199.631 137.548 199.996 137.473 200.018C137.398 200.039 137.237 199.712 137.108 199.282C136.979 198.852 136.93 198.503 137.006 198.46Z" fill="#455A64"/>
<path d="M136.072 195.345C136.147 195.345 136.314 195.656 136.443 196.086C136.572 196.516 136.615 196.881 136.54 196.902C136.464 196.924 136.303 196.596 136.174 196.166C136.045 195.737 135.997 195.366 136.072 195.345Z" fill="#455A64"/>
<path d="M135.159 192.237C135.235 192.237 135.401 192.543 135.53 192.973C135.659 193.403 135.702 193.773 135.627 193.795C135.552 193.816 135.39 193.489 135.262 193.054C135.133 192.619 135.063 192.259 135.159 192.237Z" fill="#455A64"/>
<path d="M134.203 189.118C134.279 189.118 134.445 189.424 134.574 189.854C134.703 190.283 134.746 190.654 134.671 190.675C134.595 190.697 134.434 190.364 134.305 189.934C134.177 189.505 134.128 189.139 134.203 189.118Z" fill="#455A64"/>
<path d="M133.269 186.006C133.344 186.006 133.511 186.312 133.639 186.742C133.768 187.172 133.811 187.543 133.736 187.564C133.661 187.585 133.5 187.252 133.371 186.823C133.242 186.393 133.194 186.028 133.269 186.006Z" fill="#455A64"/>
<path d="M132.334 182.891C132.409 182.891 132.576 183.197 132.705 183.627C132.834 184.056 132.877 184.427 132.801 184.449C132.726 184.47 132.565 184.137 132.436 183.707C132.307 183.278 132.264 182.934 132.334 182.891Z" fill="#455A64"/>
<path d="M131.4 179.773C131.475 179.746 131.641 180.079 131.77 180.509C131.899 180.938 131.942 181.309 131.867 181.331C131.792 181.352 131.631 181.019 131.502 180.589C131.373 180.16 131.33 179.794 131.4 179.773Z" fill="#455A64"/>
<path d="M130.464 176.657C130.539 176.631 130.706 176.964 130.835 177.393C130.964 177.823 131.007 178.188 130.931 178.215C130.856 178.242 130.695 177.904 130.566 177.474C130.437 177.044 130.394 176.679 130.464 176.657Z" fill="#455A64"/>
<path d="M129.531 173.536C129.606 173.536 129.773 173.848 129.901 174.278C130.03 174.707 130.073 175.073 129.998 175.094C129.923 175.116 129.762 174.788 129.633 174.358C129.504 173.929 129.461 173.563 129.531 173.536Z" fill="#455A64"/>
<path d="M128.595 170.421C128.67 170.421 128.837 170.733 128.966 171.162C129.095 171.592 129.138 171.957 129.063 171.979C128.987 172 128.826 171.673 128.697 171.243C128.568 170.813 128.525 170.442 128.595 170.421Z" fill="#455A64"/>
<path d="M127.668 167.31C127.737 167.31 127.904 167.621 128.033 168.051C128.162 168.481 128.205 168.846 128.13 168.867C128.054 168.889 127.893 168.561 127.764 168.131C127.635 167.702 127.592 167.358 127.668 167.31Z" fill="#455A64"/>
<path d="M126.733 164.194C126.803 164.194 126.97 164.506 127.099 164.935C127.227 165.365 127.27 165.73 127.201 165.752C127.131 165.773 126.959 165.446 126.83 165.016C126.701 164.586 126.658 164.216 126.733 164.194Z" fill="#455A64"/>
<path d="M125.799 161.079C125.869 161.079 126.035 161.39 126.164 161.82C126.293 162.25 126.336 162.615 126.266 162.636C126.196 162.658 126.024 162.33 125.895 161.9C125.766 161.471 125.724 161.1 125.799 161.079Z" fill="#455A64"/>
<path d="M124.864 157.963C124.934 157.963 125.101 158.269 125.23 158.704C125.359 159.14 125.402 159.499 125.332 159.521C125.262 159.542 125.09 159.215 124.961 158.78C124.832 158.345 124.789 157.985 124.864 157.963Z" fill="#455A64"/>
<path d="M123.929 154.848C123.999 154.848 124.165 155.154 124.294 155.584C124.423 156.013 124.466 156.384 124.396 156.405C124.327 156.427 124.155 156.094 124.026 155.664C123.897 155.234 123.881 154.869 123.929 154.848Z" fill="#455A64"/>
<path d="M122.995 151.732C123.064 151.732 123.231 152.038 123.36 152.468C123.489 152.898 123.532 153.268 123.462 153.29C123.392 153.311 123.22 152.978 123.091 152.549C122.962 152.119 122.919 151.781 122.995 151.732Z" fill="#455A64"/>
<path d="M122.059 148.621C122.134 148.621 122.295 148.927 122.424 149.357C122.553 149.786 122.601 150.157 122.526 150.179C122.451 150.2 122.285 149.867 122.156 149.437C122.027 149.008 121.984 148.642 122.059 148.621Z" fill="#455A64"/>
<path d="M121.126 145.503C121.201 145.476 121.362 145.809 121.491 146.239C121.62 146.668 121.668 147.039 121.593 147.061C121.518 147.082 121.351 146.749 121.222 146.319C121.093 145.89 121.05 145.524 121.126 145.503Z" fill="#455A64"/>
<path d="M120.191 142.387C120.266 142.361 120.427 142.694 120.556 143.123C120.685 143.553 120.733 143.918 120.658 143.945C120.583 143.972 120.416 143.634 120.288 143.204C120.159 142.774 120.121 142.409 120.191 142.387Z" fill="#455A64"/>
<path d="M119.257 139.266C119.332 139.266 119.493 139.578 119.622 140.008C119.751 140.437 119.799 140.803 119.724 140.824C119.649 140.846 119.482 140.518 119.353 140.088C119.224 139.659 119.182 139.293 119.257 139.266Z" fill="#455A64"/>
<path d="M118.322 136.155C118.398 136.155 118.559 136.467 118.688 136.896C118.817 137.326 118.865 137.691 118.79 137.713C118.715 137.734 118.548 137.406 118.419 136.977C118.29 136.547 118.247 136.176 118.322 136.155Z" fill="#455A64"/>
<path d="M117.387 133.036C117.463 133.036 117.624 133.347 117.753 133.777C117.882 134.206 117.93 134.572 117.855 134.593C117.78 134.615 117.618 134.287 117.49 133.857C117.361 133.428 117.312 133.057 117.387 133.036Z" fill="#455A64"/>
<path d="M116.453 129.92C116.528 129.92 116.69 130.232 116.818 130.661C116.947 131.091 116.996 131.456 116.921 131.478C116.845 131.499 116.684 131.172 116.555 130.742C116.426 130.312 116.362 129.942 116.453 129.92Z" fill="#455A64"/>
<path d="M115.519 126.809C115.594 126.809 115.755 127.12 115.884 127.55C116.013 127.98 116.061 128.345 115.986 128.366C115.911 128.388 115.75 128.06 115.621 127.63C115.492 127.201 115.443 126.83 115.519 126.809Z" fill="#455A64"/>
<path d="M114.821 124.476C114.896 124.476 115.009 124.61 115.068 124.825C115.127 125.04 115.127 125.228 115.068 125.25C115.009 125.271 114.88 125.115 114.821 124.906C114.762 124.696 114.751 124.498 114.821 124.476Z" fill="#455A64"/>
<path d="M105.148 217.767C105.229 217.767 105.299 217.939 105.309 218.159C105.32 218.379 105.272 218.562 105.191 218.567C105.111 218.573 105.046 218.396 105.03 218.175C105.014 217.955 105.084 217.767 105.148 217.767Z" fill="#455A64"/>
<path d="M105.018 214.563C105.093 214.563 105.168 214.918 105.184 215.358C105.2 215.799 105.152 216.159 105.077 216.164C105.002 216.169 104.926 215.81 104.905 215.369C104.883 214.929 104.937 214.569 105.018 214.563Z" fill="#455A64"/>
<path d="M104.917 211.396C104.998 211.396 105.067 211.75 105.084 212.191C105.1 212.631 105.041 212.991 104.965 212.996C104.89 213.002 104.815 212.642 104.804 212.201C104.793 211.761 104.842 211.396 104.917 211.396Z" fill="#455A64"/>
<path d="M104.836 208.172C104.916 208.172 104.986 208.526 104.997 208.967C105.008 209.407 104.954 209.767 104.879 209.767C104.804 209.767 104.728 209.413 104.718 208.972C104.707 208.532 104.761 208.172 104.836 208.172Z" fill="#455A64"/>
<path d="M104.762 204.948C104.842 204.948 104.912 205.302 104.923 205.743C104.934 206.183 104.88 206.543 104.799 206.549C104.719 206.554 104.654 206.194 104.643 205.748C104.633 205.302 104.686 204.948 104.762 204.948Z" fill="#455A64"/>
<path d="M104.68 201.772C104.756 201.772 104.831 202.127 104.842 202.567C104.852 203.008 104.799 203.373 104.723 203.373C104.648 203.373 104.573 203.018 104.562 202.578C104.552 202.138 104.6 201.772 104.68 201.772Z" fill="#455A64"/>
<path d="M104.574 198.569C104.649 198.569 104.725 198.923 104.741 199.363C104.757 199.804 104.708 200.169 104.633 200.169C104.558 200.169 104.477 199.815 104.461 199.374C104.445 198.934 104.499 198.574 104.574 198.569Z" fill="#455A64"/>
<path d="M104.439 195.377C104.514 195.377 104.595 195.731 104.611 196.172C104.627 196.612 104.584 196.972 104.504 196.977C104.423 196.983 104.353 196.623 104.332 196.182C104.31 195.742 104.364 195.382 104.439 195.377Z" fill="#455A64"/>
<path d="M104.315 192.181C104.39 192.181 104.465 192.536 104.482 192.976C104.498 193.416 104.449 193.776 104.374 193.782C104.299 193.787 104.224 193.427 104.202 192.987C104.181 192.546 104.234 192.181 104.315 192.181Z" fill="#455A64"/>
<path d="M104.204 188.985C104.279 188.985 104.354 189.334 104.37 189.78C104.386 190.226 104.333 190.581 104.258 190.581C104.182 190.581 104.107 190.231 104.091 189.786C104.075 189.34 104.129 188.985 104.204 188.985Z" fill="#455A64"/>
<path d="M104.106 185.786C104.182 185.786 104.257 186.14 104.268 186.58C104.278 187.021 104.23 187.381 104.155 187.381C104.08 187.381 104.004 187.032 103.988 186.586C103.972 186.14 104.01 185.786 104.106 185.786Z" fill="#455A64"/>
<path d="M104.011 182.582C104.091 182.582 104.161 182.936 104.172 183.377C104.183 183.817 104.129 184.182 104.054 184.182C103.978 184.182 103.903 183.828 103.893 183.387C103.882 182.947 103.946 182.587 104.011 182.582Z" fill="#455A64"/>
<path d="M103.95 179.386C104.031 179.386 104.1 179.741 104.106 180.181C104.111 180.621 104.063 180.981 103.982 180.987C103.902 180.992 103.837 180.627 103.826 180.186C103.816 179.746 103.875 179.386 103.95 179.386Z" fill="#455A64"/>
<path d="M103.898 176.186C103.978 176.186 104.043 176.541 104.054 176.987C104.064 177.432 104 177.787 103.925 177.787C103.849 177.787 103.78 177.432 103.774 176.987C103.769 176.541 103.823 176.186 103.898 176.186Z" fill="#455A64"/>
<path d="M103.859 172.986C103.94 172.986 104.004 173.341 104.009 173.781C104.015 174.222 103.956 174.582 103.875 174.582C103.795 174.582 103.735 174.227 103.73 173.787C103.725 173.346 103.784 172.986 103.859 172.986Z" fill="#455A64"/>
<path d="M103.838 169.791C103.913 169.791 103.978 170.145 103.983 170.591C103.988 171.037 103.924 171.391 103.849 171.391C103.773 171.391 103.704 171.031 103.704 170.591C103.704 170.151 103.763 169.791 103.838 169.791Z" fill="#455A64"/>
<path d="M103.832 166.587C103.907 166.587 103.972 166.947 103.972 167.387C103.972 167.828 103.907 168.188 103.832 168.188C103.757 168.188 103.693 167.828 103.693 167.387C103.693 166.947 103.752 166.587 103.832 166.587Z" fill="#455A64"/>
<path d="M103.836 163.395C103.917 163.395 103.976 163.75 103.976 164.195C103.976 164.641 103.906 164.99 103.831 164.99C103.756 164.99 103.691 164.636 103.697 164.19C103.702 163.744 103.761 163.395 103.836 163.395Z" fill="#455A64"/>
<path d="M103.865 160.191C103.94 160.191 103.999 160.551 103.999 160.992C103.999 161.432 103.93 161.792 103.849 161.792C103.768 161.792 103.715 161.432 103.72 160.992C103.725 160.551 103.79 160.191 103.865 160.191Z" fill="#455A64"/>
<path d="M103.907 156.992C103.983 156.992 104.042 157.351 104.036 157.797C104.031 158.243 103.961 158.592 103.886 158.592C103.811 158.592 103.746 158.232 103.757 157.792C103.768 157.351 103.827 156.992 103.907 156.992Z" fill="#455A64"/>
<path d="M103.961 153.796C104.042 153.796 104.095 154.156 104.09 154.596C104.085 155.037 104.009 155.397 103.934 155.397C103.859 155.397 103.8 155.037 103.805 154.591C103.811 154.145 103.886 153.796 103.961 153.796Z" fill="#455A64"/>
<path d="M104.036 150.592C104.111 150.592 104.165 150.952 104.154 151.398C104.143 151.844 104.073 152.193 103.998 152.193C103.923 152.193 103.864 151.833 103.875 151.387C103.885 150.941 103.955 150.592 104.036 150.592Z" fill="#455A64"/>
<path d="M104.149 147.396C104.224 147.396 104.272 147.762 104.256 148.202C104.24 148.643 104.159 148.997 104.084 148.997C104.009 148.997 103.961 148.632 103.977 148.191C103.993 147.751 104.068 147.391 104.149 147.396Z" fill="#455A64"/>
<path d="M104.331 144.197C104.412 144.197 104.449 144.562 104.422 145.002C104.396 145.443 104.304 145.797 104.229 145.792C104.154 145.787 104.111 145.427 104.143 144.986C104.175 144.546 104.256 144.191 104.331 144.197Z" fill="#455A64"/>
<path d="M104.627 141.04C104.702 141.04 104.729 141.41 104.686 141.851C104.643 142.291 104.541 142.635 104.466 142.629C104.391 142.624 104.364 142.259 104.407 141.818C104.45 141.378 104.546 141.002 104.627 141.04Z" fill="#455A64"/>
<path d="M104.939 138.633C105.014 138.633 105.051 138.831 105.019 139.052C104.987 139.272 104.901 139.444 104.82 139.433C104.74 139.422 104.708 139.234 104.74 139.014C104.772 138.794 104.858 138.622 104.939 138.633Z" fill="#455A64"/>
<path d="M92.8538 218.714L108.085 218.961L107.967 216.426L92.8538 216.507V218.714Z" fill="#455A64"/>
<path d="M102.844 123.516C102.895 123.708 102.925 123.904 102.935 124.102C102.973 124.478 103.021 125.031 103.075 125.713C103.187 127.072 103.316 128.935 103.445 131.019C103.504 132.05 103.563 133.033 103.617 133.941C103.605 134.727 103.699 135.511 103.896 136.272C103.973 136.519 104.099 136.749 104.266 136.947C104.433 137.146 104.638 137.309 104.868 137.427C105.041 137.501 105.221 137.555 105.406 137.588C105.406 137.588 105.352 137.588 105.25 137.614C105.099 137.613 104.95 137.584 104.809 137.529C104.551 137.419 104.319 137.256 104.126 137.052C103.934 136.848 103.786 136.606 103.692 136.342C103.463 135.568 103.345 134.765 103.343 133.957C103.284 133.049 103.22 132.067 103.15 131.035C103.021 128.962 102.924 127.083 102.865 125.724C102.833 125.047 102.817 124.494 102.806 124.113C102.792 123.913 102.804 123.713 102.844 123.516Z" fill="#455A64"/>
<path d="M104.322 124.788C104.322 124.826 104.204 124.917 104.187 125.148C104.183 125.208 104.191 125.267 104.211 125.324C104.23 125.38 104.261 125.432 104.3 125.476C104.351 125.52 104.414 125.548 104.481 125.557C104.548 125.565 104.616 125.554 104.676 125.524C104.74 125.505 104.797 125.466 104.838 125.413C104.879 125.36 104.904 125.296 104.907 125.229C104.907 125.169 104.893 125.11 104.868 125.055C104.843 125.001 104.807 124.952 104.762 124.912C104.596 124.762 104.424 124.794 104.413 124.751C104.402 124.708 104.596 124.59 104.875 124.751C104.983 124.794 105.074 124.871 105.134 124.97C105.194 125.069 105.221 125.185 105.21 125.3C105.199 125.415 105.151 125.524 105.074 125.61C104.996 125.696 104.892 125.755 104.778 125.777C104.668 125.829 104.543 125.844 104.423 125.82C104.303 125.796 104.194 125.734 104.112 125.643C104.051 125.569 104.008 125.482 103.988 125.388C103.967 125.295 103.969 125.198 103.994 125.105C104.08 124.794 104.322 124.751 104.322 124.788Z" fill="#455A64"/>
<path d="M117.879 127.076C117.52 127.319 117.11 127.475 116.681 127.533C115.647 127.739 114.575 127.619 113.612 127.189C112.65 126.759 111.845 126.04 111.31 125.132C111.066 124.774 110.91 124.363 110.853 123.934C110.901 123.934 111.046 124.385 111.476 125.008C112.037 125.838 112.816 126.498 113.727 126.915C114.644 127.319 115.656 127.459 116.649 127.318C117.438 127.221 117.863 127.017 117.879 127.076Z" fill="#455A64"/>
<path d="M93.9236 123.516C93.9941 123.861 93.9756 124.218 93.8699 124.553C93.678 125.391 93.227 126.146 92.5808 126.712C91.9346 127.278 91.1264 127.626 90.271 127.706C89.924 127.77 89.5662 127.74 89.2344 127.62C89.2344 127.577 89.6319 127.62 90.2442 127.513C91.0411 127.384 91.7856 127.034 92.3927 126.502C92.9997 125.97 93.4446 125.278 93.6765 124.505C93.8645 123.909 93.8752 123.516 93.9236 123.516Z" fill="#455A64"/>
<path d="M134.714 113.256C136.143 111.611 136.926 109.503 136.918 107.324C136.911 105.145 136.112 103.043 134.671 101.409L120.305 85.1193L116.465 95.8606C116.722 96.0432 127.641 107.741 127.641 107.741L118.258 119.449C117.548 120.335 117.073 121.387 116.879 122.506C116.684 123.626 116.776 124.776 117.147 125.85L119.655 131.989L126.518 128.912L125.981 128.111H120.826L120.519 126.871L134.714 113.256Z" fill="#FFBE9D"/>
<path d="M75.4162 57.3088C75.4162 57.3088 77.6666 59.9619 79.9921 56.8039C81.8235 54.328 82.2155 51.2614 80.7439 49.9671L81.2273 49.6448C81.2273 49.6448 83.6763 51.256 82.57 54.6986C81.4636 58.1412 79.079 59.9511 77.3873 59.6772C75.6955 59.4033 75.239 57.6364 75.239 57.6364L75.4055 57.1369" fill="#455A64"/>
<path d="M90.1531 83.0366C90.1531 83.0366 75.7436 88.9873 76.082 88.5953L75.7168 70.9151H70.0668C70.0668 70.9151 66.055 94.2345 70.3569 96.9789C76.2377 100.738 90.4754 92.924 90.4754 92.924L90.1531 83.0366Z" fill="#FFBE9D"/>
<path d="M74.5612 63.7326L74.5343 63.9152L73.4548 71.6221L70.0659 70.9132L70.5009 66.4824" fill="#FFBE9D"/>
<path d="M75.6197 62.9659L73.2727 71.3119L75.3619 71.7255C75.3619 71.7255 75.6573 71.1132 76.3393 69.3033C76.8131 67.994 76.7689 66.5531 76.2158 65.2753C76.2158 65.2753 78.1063 60.9788 77.3759 60.8069C76.6455 60.635 75.6197 62.9659 75.6197 62.9659Z" fill="#FFBE9D"/>
<path d="M77.446 59.5262C77.3225 59.886 72.3224 72.2976 72.3224 72.2976L71.0657 71.5887L76.1141 58.393L77.446 59.5262Z" fill="#263238"/>
<path d="M70.222 70.2589C70.222 70.2589 69.6097 66.6068 70.281 65.4736C70.5227 65.0655 73.9814 60.3017 74.2285 60.452C74.4755 60.6024 75.9793 64.8291 75.1845 64.9688C74.948 64.9917 74.7107 64.9356 74.5095 64.8093C74.3084 64.683 74.1548 64.4935 74.0727 64.2706C74.0727 64.2706 75.1093 66.8646 74.3789 66.9076C73.6485 66.9506 73.0308 65.3447 73.0308 65.3447C73.0308 65.3447 74.5668 68.406 73.6055 68.5671C72.6441 68.7282 71.323 66.2094 71.323 66.2094L70.222 70.2589Z" fill="#FFBE9D"/>
<path d="M73.3972 62.1468C73.7323 62.6753 73.9909 63.2486 74.1653 63.8495C74.2367 64.0699 74.3229 64.2852 74.4232 64.4941C74.5067 64.6498 74.6311 64.7798 74.783 64.8701C75.0516 65.0205 75.2665 64.999 75.2718 65.042C75.2772 65.0849 75.0516 65.1763 74.6971 65.042C74.4916 64.959 74.3184 64.8121 74.2029 64.623C74.0766 64.408 73.9757 64.1791 73.9021 63.9408C73.643 63.3722 73.4727 62.7671 73.3972 62.1468Z" fill="#EB996E"/>
<path d="M72.3223 63.3352C72.4028 63.3352 72.9024 64.7317 73.7349 66.3861C73.837 66.5956 73.939 66.7782 74.0841 66.8319C74.2291 66.8856 74.3419 66.8319 74.3902 66.66C74.4187 66.4821 74.4187 66.3008 74.3902 66.1229C74.3851 65.9611 74.3708 65.7997 74.3473 65.6395C74.2667 65.0433 74.1432 64.6834 74.1808 64.6673C74.3738 64.9455 74.4972 65.266 74.5406 65.6019C74.5774 65.7685 74.6043 65.937 74.6212 66.1068C74.6585 66.3092 74.6585 66.5167 74.6212 66.7191C74.5933 66.8543 74.5145 66.9736 74.401 67.0522C74.3352 67.0892 74.2619 67.1109 74.1865 67.1155C74.1112 67.1202 74.0357 67.1077 73.9659 67.079C73.7358 66.9525 73.56 66.7462 73.4717 66.4989C72.9277 65.5099 72.5399 64.4427 72.3223 63.3352Z" fill="#EB996E"/>
<path d="M71.4089 65.1097C71.6391 65.3891 71.834 65.6958 71.989 66.0228L72.5262 67.0542C72.6336 67.2547 72.741 67.4588 72.8485 67.6665C72.949 67.8786 73.0676 68.0817 73.203 68.2734C73.2552 68.3474 73.333 68.3994 73.4213 68.4192C73.5096 68.4391 73.6022 68.4254 73.681 68.3809C73.7504 68.3206 73.8031 68.2434 73.8341 68.1569C73.8652 68.0704 73.8735 67.9774 73.8583 67.8867C73.7664 67.5217 73.6516 67.1629 73.5145 66.8124C73.3684 66.4692 73.269 66.1079 73.2191 65.7382C73.4162 66.0422 73.5767 66.3686 73.6971 66.7104L73.9066 67.2153C74.0018 67.4131 74.0704 67.6226 74.1107 67.8384C74.1364 67.9755 74.1251 68.1169 74.0778 68.2482C74.0306 68.3794 73.9493 68.4957 73.8422 68.585C73.7782 68.6344 73.704 68.6688 73.6249 68.6855C73.5459 68.7023 73.4641 68.7009 73.3856 68.6817C73.236 68.6433 73.1013 68.561 72.9989 68.4453C72.8412 68.2384 72.7095 68.0129 72.6067 67.7739L72.2952 67.1562L71.7903 66.0819C71.6256 65.7739 71.4976 65.4476 71.4089 65.1097Z" fill="#EB996E"/>
<path d="M77.7187 60.0712C77.3008 60.0736 76.8872 59.9876 76.5049 59.8188C75.9597 59.5495 75.4913 59.1469 75.143 58.6484C74.7947 58.1499 74.5778 57.5716 74.5124 56.967C74.3289 55.5418 74.5393 54.0936 75.1206 52.7794C75.7019 51.4653 76.632 50.3355 77.81 49.5125C78.2895 49.1307 78.8644 48.8874 79.4723 48.8091C80.0803 48.7309 80.6981 48.8205 81.2586 49.0685C81.8192 49.3164 82.3012 49.7131 82.6524 50.2155C83.0035 50.7179 83.2103 51.3069 83.2505 51.9186C83.4588 53.3443 83.2479 54.7997 82.6436 56.1077C81.5748 58.5191 79.5501 60.0712 77.7187 60.0712ZM80.0227 49.867C79.4371 49.8889 78.8695 50.075 78.3846 50.404C77.3858 51.113 76.597 52.0786 76.1017 53.1989C75.6063 54.3191 75.4228 55.5523 75.5704 56.7683C75.6026 57.2055 75.7451 57.6275 75.9846 57.9947C76.2241 58.3619 76.5528 58.6624 76.9399 58.8682C78.4437 59.5288 80.6081 58.0787 81.6607 55.6995C82.1829 54.5884 82.3695 53.349 82.1978 52.1334C82.1592 51.7042 82.0142 51.2914 81.7761 50.9323C81.5379 50.5731 81.214 50.279 80.8337 50.0764C80.5805 49.9543 80.3038 49.8883 80.0227 49.8831V49.867Z" fill="#263238"/>
<path d="M127.909 92.0143L118.838 82.8841C117.096 81.0612 114.951 79.6724 112.575 78.8293C111.314 78.376 109.989 78.1223 108.649 78.0774C105.563 79.0521 102.251 79.0521 99.1648 78.0774C96.5683 78.3606 94.0396 79.0872 91.6889 80.2257L78.1387 85.7252L82.4782 97.6964L89.7393 95.2528L90.169 106.531L88.735 123.32L116.85 123.61L116.485 108.33V97.2722L120.54 101.225L127.909 92.0143Z" fill="#2972FF"/>
<path d="M120.278 85.2606C120.161 85.4745 120.028 85.6792 119.88 85.8728C119.462 86.4375 118.975 86.9481 118.43 87.3927C117.571 88.1061 116.585 88.6526 115.525 89.0039C114.115 89.4758 112.607 89.5739 111.148 89.2886C109.368 88.9585 107.729 88.0972 106.448 86.818C106.102 86.4575 105.819 86.0419 105.61 85.5882C105.372 85.1138 105.286 84.5774 105.363 84.0522C105.414 83.7767 105.531 83.5179 105.705 83.2987C105.88 83.0794 106.105 82.9066 106.362 82.7954C106.892 82.5858 107.482 82.5858 108.011 82.7954C108.555 82.9911 109.013 83.3711 109.305 83.8696C109.572 84.388 109.692 84.969 109.655 85.5506C109.549 86.7325 109.091 87.8553 108.339 88.773C107.571 89.7362 106.61 90.5278 105.517 91.0967C104.425 91.6656 103.225 91.9992 101.996 92.0759C100.747 92.1572 99.4958 91.9514 98.3385 91.4744C97.1904 91.0282 96.218 90.2216 95.5673 89.1758C95.2604 88.6608 95.086 88.0777 95.0598 87.4788C95.0336 86.8799 95.1563 86.2838 95.4169 85.7439C95.6943 85.2286 96.1325 84.8181 96.6648 84.5747C97.197 84.3314 97.7942 84.2686 98.3654 84.3959C98.6388 84.4679 98.8953 84.5933 99.1202 84.7647C99.3451 84.9361 99.5339 85.1503 99.6758 85.3948C99.9454 85.8678 100.072 86.4088 100.041 86.9523C99.9927 87.4673 99.821 87.9631 99.5405 88.3978C99.2601 88.8325 98.8791 89.1933 98.4298 89.4497C97.6173 89.9304 96.6886 90.1793 95.7445 90.1693C94.8843 90.1554 94.0284 90.0437 93.1934 89.8364C91.7408 89.5677 90.3488 89.0382 89.0849 88.2735C88.1325 87.6698 87.3927 86.7835 86.9688 85.7385C86.6947 85.0823 86.6055 84.3635 86.7111 83.6601C86.7438 83.4185 86.8126 83.1831 86.9151 82.9619C86.9151 82.9619 86.8292 83.1982 86.7648 83.6708C86.6887 84.3604 86.7923 85.0579 87.0655 85.6956C87.497 86.7087 88.2327 87.5626 89.1708 88.1392C90.425 88.8801 91.8021 89.3894 93.2364 89.643C94.0579 89.8417 94.8994 89.9462 95.7445 89.9545C96.6522 89.9615 97.5442 89.7181 98.3224 89.251C98.7365 89.0141 99.0868 88.6801 99.3432 88.2778C99.5995 87.8755 99.7542 87.417 99.794 86.9416C99.8216 86.4468 99.706 85.9545 99.461 85.5237C99.3364 85.3073 99.1694 85.1183 98.9701 84.9679C98.7708 84.8175 98.5432 84.7088 98.3009 84.6483C97.7872 84.5401 97.2523 84.6003 96.7754 84.8199C96.2985 85.0394 95.905 85.4068 95.6532 85.8674C95.4135 86.3678 95.3023 86.92 95.3295 87.4742C95.3567 88.0283 95.5215 88.567 95.809 89.0415C96.4303 90.032 97.3553 90.7951 98.446 91.2166C99.5645 91.6763 100.773 91.8746 101.98 91.7967C103.169 91.7222 104.329 91.4 105.386 90.8506C106.444 90.3012 107.374 89.5368 108.119 88.6065C108.84 87.737 109.282 86.67 109.386 85.5452C109.426 85.0108 109.318 84.4756 109.074 83.9984C108.816 83.5488 108.407 83.2046 107.92 83.0264C107.454 82.8328 106.932 82.8232 106.459 82.9995C106.239 83.0945 106.046 83.2423 105.897 83.4296C105.749 83.617 105.648 83.8382 105.605 84.0736C105.538 84.5489 105.615 85.0333 105.825 85.4646C106.025 85.8941 106.291 86.2893 106.615 86.6354C107.861 87.8841 109.453 88.7314 111.185 89.0684C112.614 89.3567 114.093 89.2753 115.482 88.832C116.529 88.4955 117.508 87.9734 118.371 87.2907C118.914 86.8536 119.408 86.3583 119.843 85.8137C120.122 85.4646 120.267 85.2498 120.278 85.2606Z" fill="#263238"/>
<path d="M115.68 109.111C115.513 109.224 115.333 109.316 115.143 109.385C114.581 109.586 113.982 109.663 113.387 109.611C112.444 109.534 111.533 109.234 110.728 108.735C109.676 108.068 108.716 107.266 107.871 106.351C107.329 105.845 106.935 105.2 106.733 104.487C106.648 104.091 106.668 103.68 106.792 103.295C106.917 102.883 107.199 102.536 107.576 102.328C107.774 102.23 107.99 102.173 108.211 102.162C108.432 102.151 108.652 102.186 108.859 102.264C109.276 102.421 109.645 102.682 109.934 103.021C110.515 103.742 110.809 104.652 110.761 105.577C110.727 106.54 110.392 107.468 109.805 108.231C109.175 109.01 108.334 109.592 107.382 109.906C106.407 110.238 105.367 110.334 104.348 110.185C103.305 110.028 102.3 109.681 101.383 109.16C100.465 108.649 99.6228 108.013 98.8807 107.269C98.1079 106.554 97.6373 105.57 97.5649 104.519C97.5439 103.999 97.6745 103.484 97.9408 103.037C98.2113 102.601 98.6196 102.269 99.1009 102.092C99.5603 101.922 100.056 101.872 100.54 101.947C101.024 102.022 101.481 102.22 101.867 102.522C102.216 102.823 102.497 103.196 102.691 103.614C102.886 104.033 102.989 104.488 102.995 104.949C103.024 105.817 102.757 106.67 102.237 107.366C101.762 107.964 101.173 108.462 100.503 108.831C99.834 109.2 99.0981 109.432 98.3383 109.514C95.5777 109.815 93.2952 109.192 92.0223 108.3C91.5244 107.968 91.1121 107.523 90.8193 107.001C90.7466 106.865 90.6856 106.723 90.6367 106.576C90.6133 106.529 90.597 106.478 90.5884 106.426C90.5884 106.426 90.6636 106.63 90.873 106.963C91.1758 107.462 91.5893 107.885 92.0814 108.198C93.3382 109.047 95.61 109.627 98.3114 109.305C99.0463 109.223 99.7574 108.995 100.403 108.634C101.049 108.273 101.616 107.787 102.071 107.205C102.558 106.55 102.806 105.748 102.774 104.933C102.762 104.505 102.661 104.085 102.476 103.699C102.291 103.313 102.026 102.97 101.7 102.693C101.348 102.423 100.934 102.246 100.495 102.18C100.057 102.113 99.6084 102.159 99.1922 102.312C98.7688 102.473 98.409 102.767 98.1664 103.15C97.9301 103.553 97.8145 104.015 97.8334 104.482C97.9003 105.461 98.3359 106.378 99.0526 107.049C99.776 107.772 100.597 108.39 101.491 108.886C102.378 109.391 103.35 109.729 104.359 109.885C105.335 110.025 106.33 109.935 107.264 109.622C108.166 109.324 108.965 108.776 109.568 108.043C110.126 107.324 110.443 106.449 110.476 105.54C110.526 104.679 110.257 103.829 109.719 103.155C109.458 102.846 109.124 102.608 108.747 102.462C108.574 102.396 108.39 102.365 108.205 102.373C108.02 102.38 107.839 102.425 107.672 102.505C107.365 102.706 107.129 102.998 106.996 103.34C106.863 103.682 106.84 104.057 106.931 104.412C107.125 105.089 107.496 105.703 108.005 106.19C108.837 107.097 109.776 107.898 110.804 108.574C111.584 109.072 112.471 109.381 113.392 109.477C113.974 109.534 114.562 109.476 115.122 109.305C115.487 109.208 115.675 109.095 115.68 109.111Z" fill="#263238"/>
</svg>
