<svg width="269" height="246" viewBox="0 0 269 246" fill="none" xmlns="http://www.w3.org/2000/svg">
<path d="M159.887 141.045C159.937 141.084 159.983 141.124 160.028 141.167L160.428 141.526L161.972 142.942L167.798 148.344L188.441 167.615H188.203L211.618 144.394L211.78 144.236L211.913 144.412L213.619 146.636L231.335 169.73L231.089 169.693L248.118 157.916L248.216 157.849L248.3 157.928L261.299 170.69L264.809 174.172L265.721 175.084C265.925 175.29 266.023 175.4 266.023 175.4C266.023 175.4 265.904 175.303 265.693 175.108L264.767 174.172L261.187 170.733L248.103 158.062H248.286L231.3 169.918L231.159 170.015L231.054 169.882L213.317 146.825L211.604 144.595H211.892C203.371 153.042 195.355 160.973 188.448 167.815L188.329 167.931L188.21 167.815C179.73 159.83 172.634 153.157 167.658 148.466L161.902 142.996L160.393 141.55C160.231 141.386 160.105 141.264 160.007 141.173C159.909 141.082 159.88 141.052 159.887 141.045Z" fill="#2972FF"/>
<path d="M186.02 167.771C186.016 168.193 186.157 168.607 186.425 168.959C186.694 169.312 187.077 169.587 187.527 169.751C187.977 169.914 188.472 169.957 188.951 169.876C189.429 169.794 189.869 169.592 190.214 169.293C190.559 168.994 190.793 168.614 190.887 168.199C190.981 167.785 190.931 167.356 190.742 166.967C190.554 166.577 190.236 166.245 189.828 166.013C189.421 165.781 188.943 165.658 188.456 165.662C187.811 165.665 187.193 165.888 186.737 166.283C186.282 166.678 186.024 167.212 186.02 167.771Z" fill="#2972FF"/>
<path d="M229.026 170.306C229.029 170.727 229.176 171.138 229.448 171.486C229.721 171.835 230.107 172.105 230.557 172.264C231.007 172.423 231.502 172.462 231.978 172.377C232.454 172.292 232.891 172.087 233.232 171.787C233.573 171.487 233.804 171.106 233.895 170.693C233.987 170.279 233.934 169.852 233.745 169.464C233.555 169.077 233.237 168.746 232.83 168.515C232.424 168.284 231.948 168.163 231.461 168.167C230.811 168.172 230.19 168.399 229.733 168.8C229.276 169.201 229.022 169.743 229.026 170.306Z" fill="#2972FF"/>
<path d="M245.752 158.598C245.756 159.017 245.904 159.426 246.177 159.773C246.449 160.12 246.835 160.389 247.284 160.546C247.733 160.703 248.226 160.741 248.7 160.656C249.175 160.571 249.609 160.365 249.949 160.066C250.288 159.767 250.518 159.387 250.608 158.975C250.699 158.563 250.646 158.137 250.457 157.751C250.267 157.365 249.95 157.036 249.545 156.806C249.14 156.576 248.665 156.455 248.181 156.459C247.532 156.465 246.912 156.694 246.457 157.094C246.002 157.495 245.748 158.036 245.752 158.598Z" fill="#2972FF"/>
<path d="M209.302 144.683C209.305 145.104 209.452 145.515 209.724 145.864C209.997 146.212 210.383 146.483 210.833 146.641C211.283 146.8 211.778 146.839 212.254 146.754C212.73 146.669 213.167 146.464 213.508 146.164C213.849 145.865 214.08 145.484 214.172 145.07C214.263 144.657 214.21 144.229 214.021 143.842C213.831 143.454 213.513 143.124 213.107 142.893C212.7 142.662 212.224 142.541 211.738 142.544C211.087 142.549 210.466 142.777 210.009 143.178C209.552 143.579 209.298 144.12 209.302 144.683Z" fill="#2972FF"/>
<path d="M264.086 175.461C264.089 175.882 264.236 176.293 264.509 176.641C264.781 176.99 265.167 177.26 265.617 177.419C266.068 177.578 266.562 177.617 267.039 177.532C267.515 177.447 267.951 177.242 268.292 176.942C268.634 176.642 268.865 176.261 268.956 175.848C269.047 175.435 268.995 175.007 268.805 174.619C268.616 174.232 268.297 173.901 267.891 173.67C267.485 173.439 267.008 173.318 266.522 173.322C265.872 173.327 265.25 173.554 264.793 173.955C264.337 174.356 264.083 174.898 264.086 175.461Z" fill="#2972FF"/>
<path d="M48.922 14.525H33.1501V68.8369H48.922V14.525Z" fill="#2972FF"/>
<path d="M72.1208 26.3684H56.3489V68.8297H72.1208V26.3684Z" fill="#2972FF"/>
<path d="M95.6779 36.0679H79.9059V68.8301H95.6779V36.0679Z" fill="#2972FF"/>
<path d="M117.486 49.3787H101.714V68.8379H117.486V49.3787Z" fill="#2972FF"/>
<path d="M104.858 0.974808C104.858 0.974808 104.711 1.13889 104.423 1.4306L103.11 2.73719L98.1199 7.65972L80.1229 25.2836L80.0247 25.3747L79.9124 25.3018L68.1694 17.5108H68.4081L51.9834 35.5358L51.7869 35.7546L51.6675 35.8883L51.5201 35.7728L29.403 18.86H29.6486C20.966 28.7293 13.61 37.1584 8.3457 43.1201L2.21803 50.0542L0.582586 51.8774L0.154421 52.3453C0.106632 52.4006 0.0550654 52.4534 0 52.5033C0.0398717 52.444 0.0844339 52.3871 0.133364 52.3332L0.540468 51.847L2.13381 49.9813L8.17725 42.9986L29.3749 18.6534L29.4872 18.5257L29.6206 18.6291L51.7658 35.4993H51.4991L51.6956 35.2806L68.1414 17.2678L68.2466 17.1523L68.38 17.2434L80.1019 25.0283H79.8913L97.9795 7.54425C100.162 5.44762 101.875 3.8007 103.047 2.6825L104.388 1.40629C104.697 1.10243 104.858 0.974808 104.858 0.974808Z" fill="#2972FF"/>
<path d="M102.254 13.5704C102.248 13.4782 102.26 13.3858 102.289 13.2969L102.465 12.519C102.647 11.7958 102.893 10.8356 103.166 9.66273C103.791 7.23186 104.676 3.91371 105.693 0.19447L105.918 0.376785L105.125 0.589486C100.724 1.76238 96.7369 2.80158 93.8451 3.543L90.4127 4.39989L89.4722 4.61866C89.3643 4.65349 89.2504 4.67199 89.1353 4.67336C89.2359 4.626 89.3417 4.58733 89.4511 4.55789L90.3706 4.28442L93.7678 3.3303C96.6387 2.53419 100.618 1.45853 104.998 0.291705L105.792 0.0850803L106.1 0L106.023 0.273472C105.048 4.01094 104.156 7.31694 103.454 9.71743C103.11 10.8782 102.83 11.8323 102.626 12.5494C102.528 12.8472 102.443 13.1024 102.38 13.3091C102.353 13.4011 102.311 13.4891 102.254 13.5704Z" fill="#2972FF"/>
<path d="M226.674 92.8063C229.808 92.7622 232.887 93.5237 235.521 94.9945C238.155 96.4653 240.226 98.5794 241.473 101.069C242.72 103.559 243.085 106.314 242.524 108.984C241.963 111.654 240.5 114.12 238.32 116.07C236.141 118.02 233.342 119.367 230.278 119.94C227.214 120.513 224.023 120.286 221.108 119.289C218.193 118.292 215.684 116.569 213.9 114.338C212.116 112.106 211.136 109.467 211.084 106.753C211.02 103.115 212.626 99.6039 215.548 96.9892C218.471 94.3746 222.472 92.8703 226.674 92.8063ZM227.053 113.092C228.551 113.068 230.008 112.66 231.238 111.919C232.469 111.178 233.418 110.139 233.966 108.931C234.515 107.724 234.637 106.403 234.319 105.135C234 103.867 233.255 102.709 232.177 101.808C231.098 100.907 229.736 100.302 228.261 100.071C226.787 99.8403 225.266 99.9928 223.891 100.51C222.517 101.027 221.35 101.885 220.539 102.975C219.727 104.066 219.307 105.341 219.332 106.638C219.349 107.501 219.563 108.352 219.96 109.143C220.357 109.935 220.931 110.65 221.648 111.25C222.365 111.849 223.211 112.32 224.139 112.636C225.066 112.952 226.056 113.107 227.053 113.092Z" fill="#E0E0E0"/>
<path d="M226.647 91.0959C231.374 91.0374 235.934 92.6038 239.329 95.4518C242.723 98.2997 244.675 102.197 244.757 106.289L233.947 106.532C233.877 102.466 230.697 100.813 226.928 100.607C226.002 100.559 225.074 100.677 224.203 100.955C223.333 101.232 222.538 101.663 221.868 102.22C221.199 102.776 220.67 103.447 220.315 104.189C219.96 104.931 219.786 105.729 219.804 106.532L209.107 106.781C209.033 102.688 210.84 98.7371 214.128 95.7961C217.417 92.8551 221.92 91.1646 226.647 91.0959Z" fill="#2972FF"/>
<path d="M98.3381 153.274C103.795 148.317 111.281 145.412 119.186 145.185C127.091 144.957 134.783 147.426 140.607 152.059C143.468 154.342 145.777 157.094 147.401 160.155C149.025 163.217 149.93 166.527 150.065 169.894C150.201 173.26 149.563 176.617 148.188 179.769C146.814 182.921 144.731 185.805 142.06 188.254C136.604 193.212 129.117 196.116 121.213 196.344C113.308 196.571 105.615 194.103 99.7911 189.47C96.93 187.187 94.6207 184.435 92.9971 181.373C91.3735 178.312 90.4679 175.001 90.3327 171.635C90.1976 168.268 90.8356 164.911 92.2098 161.76C93.584 158.608 95.667 155.724 98.3381 153.274ZM130.626 179.126C131.906 177.956 132.905 176.576 133.564 175.068C134.223 173.56 134.528 171.954 134.463 170.342C134.398 168.731 133.963 167.147 133.184 165.682C132.404 164.218 131.296 162.903 129.924 161.812C127.136 159.6 123.456 158.424 119.676 158.537C115.897 158.651 112.32 160.045 109.716 162.42C108.436 163.591 107.437 164.97 106.778 166.478C106.119 167.987 105.814 169.593 105.879 171.204C105.944 172.816 106.379 174.4 107.158 175.864C107.938 177.329 109.046 178.644 110.418 179.734C113.206 181.952 116.889 183.131 120.673 183.018C124.456 182.904 128.037 181.506 130.64 179.126H130.626Z" fill="#2972FF"/>
<path d="M98.3374 153.274C103.794 148.317 111.28 145.412 119.185 145.185C127.09 144.957 134.782 147.426 140.606 152.059L129.951 161.831C127.164 159.618 123.484 158.442 119.704 158.556C115.924 158.669 112.347 160.064 109.743 162.438C108.463 163.609 107.464 164.989 106.805 166.497C106.147 168.005 105.841 169.611 105.906 171.223C105.972 172.834 106.407 174.418 107.186 175.882C107.965 177.347 109.073 178.662 110.445 179.752L99.7763 189.488C96.913 187.204 94.6022 184.45 92.9779 181.386C91.3537 178.323 90.4484 175.01 90.3145 171.641C90.1806 168.272 90.8209 164.914 92.1982 161.761C93.5754 158.608 95.6622 155.723 98.3374 153.274Z" fill="#E0E0E0"/>
<path d="M139.386 147.855C154.126 159.663 155.916 178.849 142.123 191.514L127.151 180.338C133.742 174.291 135.174 166.214 128.12 160.569L139.386 147.855Z" fill="#2972FF"/>
<path d="M125.592 181.142L134.486 196.371C138.163 195.204 141.476 193.313 144.165 190.847L128.189 179.677L125.592 181.142Z" fill="#E0E0E0"/>
<path d="M159.144 40.5641C159.015 33.7377 161.226 27.0314 165.5 21.2935C169.773 15.5557 175.916 11.0442 183.152 8.3297C190.387 5.61522 198.39 4.81976 206.148 6.04396C213.905 7.26815 221.069 10.457 226.734 15.2071C232.398 19.9571 236.307 26.055 237.968 32.7293C239.628 39.4035 238.965 46.3542 236.062 52.7021C233.159 59.05 228.147 64.5098 221.66 68.3908C215.172 72.2719 207.501 74.3997 199.616 74.5052C189.056 74.6353 178.867 71.1361 171.281 64.7743C163.695 58.4124 159.331 49.7067 159.144 40.5641ZM218.055 39.7437C217.994 36.481 216.816 33.3074 214.672 30.6241C212.527 27.9408 209.511 25.8684 206.006 24.6689C202.501 23.4694 198.664 23.1966 194.98 23.8851C191.296 24.5736 187.931 26.1924 185.309 28.5368C182.688 30.8813 180.928 33.8461 180.253 37.0564C179.577 40.2667 180.017 43.5783 181.515 46.5725C183.013 49.5667 185.503 52.109 188.67 53.878C191.837 55.6469 195.539 56.5631 199.307 56.5107C204.36 56.4355 209.172 54.6278 212.687 51.4844C216.202 48.3409 218.132 44.1184 218.055 39.7437Z" fill="#2972FF"/>
<path d="M159.143 40.5647C158.984 31.4156 163.024 22.5854 170.376 16.0123C177.728 9.43931 187.792 5.66053 198.359 5.50542L198.696 23.5121C193.642 23.5822 188.827 25.3878 185.31 28.5317C181.794 31.6755 179.863 35.9001 179.944 40.2761C180.025 44.652 182.111 48.8209 185.742 51.8656C189.373 54.9103 194.252 56.5814 199.307 56.5113L199.615 74.5059C189.054 74.6392 178.863 71.141 171.276 64.7785C163.689 58.416 159.326 49.7083 159.143 40.5647Z" fill="#E0E0E0"/>
<path d="M194.779 2.73913C220.49 2.38058 241.007 19.579 241.414 41.8398L217.079 42.1801C216.882 31.5329 207.484 24.8297 195.193 25.006L194.779 2.73913Z" fill="#2972FF"/>
<path d="M241.731 245.84C241.731 245.925 189.25 245.998 124.512 245.998C59.7753 245.998 7.29358 245.925 7.29358 245.84C7.29358 245.755 59.7613 245.676 124.512 245.676C189.264 245.676 241.731 245.749 241.731 245.84Z" fill="#263238"/>
<path d="M79.22 161.58L209.284 160.772V162.352L79.22 163.36V161.58Z" fill="#263238"/>
<path d="M76.3824 47.0896L79.3445 162.52L209.282 161.645V45.151L76.3824 47.0896Z" fill="white"/>
<path d="M76.3833 47.0915L209.283 45.0191H209.444V45.1589C209.444 78.5045 209.444 117.854 209.444 159.836V161.811H209.262L79.3243 162.667H79.1699V162.534C77.4923 93.351 76.3973 48.2826 76.3622 47.0975C76.3622 48.2644 77.6116 93.351 79.4787 162.522L79.3243 162.388L209.262 161.495L209.079 161.653V159.829C209.079 117.848 209.079 78.4984 209.079 45.1528L209.241 45.2926L76.3833 47.0915Z" fill="#263238"/>
<path d="M75.8641 47.8643L209.852 47.2019L210.02 42.3341L75.8641 43.0573V47.8643Z" fill="#263238"/>
<path d="M140.004 165.668C139.779 165.668 139.54 164.763 139.477 163.632C139.414 162.502 139.554 161.578 139.779 161.566C140.004 161.554 140.242 162.466 140.305 163.596C140.369 164.726 140.235 165.668 140.004 165.668Z" fill="#263238"/>
<path d="M139.956 164.839C139.956 164.796 140.18 164.784 140.531 164.905C140.743 164.983 140.941 165.085 141.121 165.209C141.362 165.377 141.565 165.584 141.717 165.817C141.926 166.14 142.03 166.505 142.02 166.875C142.01 167.245 141.886 167.605 141.661 167.92C141.526 168.109 141.355 168.278 141.156 168.418C140.948 168.563 140.709 168.672 140.454 168.74C139.911 168.87 139.334 168.833 138.818 168.637C138.558 168.536 138.32 168.396 138.117 168.224C137.914 168.051 137.754 167.844 137.646 167.616C137.452 167.201 137.41 166.745 137.527 166.309C137.613 165.946 137.816 165.611 138.111 165.342C138.406 165.074 138.783 164.882 139.198 164.79C139.728 164.664 140.294 164.707 140.791 164.911C141.128 165.057 141.254 165.209 141.226 165.246C141.198 165.282 141.008 165.246 140.686 165.173C140.246 165.102 139.792 165.135 139.373 165.27C139.103 165.361 138.862 165.507 138.671 165.695C138.452 165.918 138.309 166.188 138.258 166.477C138.207 166.766 138.251 167.062 138.383 167.33C138.536 167.619 138.809 167.847 139.148 167.968C139.486 168.099 139.864 168.127 140.222 168.047C140.552 167.974 140.837 167.796 141.022 167.549C141.205 167.316 141.314 167.046 141.338 166.765C141.36 166.638 141.36 166.509 141.338 166.382C141.315 166.263 141.275 166.146 141.219 166.036C141.039 165.678 140.756 165.366 140.398 165.13C140.138 164.972 139.956 164.887 139.956 164.839Z" fill="#263238"/>
<path d="M159.286 110.256C159.286 110.256 159.286 110.256 159.202 110.256H158.964L158.037 110.292L154.464 110.426L141.325 110.852C130.227 111.204 114.891 111.672 97.9606 112.176L92.1347 112.347H92.0014V112.231C90.8222 98.8187 89.7553 86.798 89.0183 78.1562C88.6533 73.8414 88.3655 70.3714 88.1619 67.983C88.0707 66.7676 87.9935 65.8621 87.9443 65.2361C87.9443 64.9201 87.9022 64.6831 87.8952 64.519C87.8882 64.3549 87.8952 64.3792 87.8952 64.3367C87.8952 64.2942 87.8952 64.2759 87.8952 64.2759C87.8985 64.2961 87.8985 64.3165 87.8952 64.3367C87.8952 64.3792 87.8952 64.44 87.8952 64.519C87.8952 64.598 87.9373 64.9201 87.9724 65.2301C88.0286 65.8378 88.1198 66.7797 88.2391 67.9769C88.4567 70.3653 88.7796 73.8354 89.1797 78.138C89.9658 86.7555 91.0468 98.7458 92.24 112.213L92.0997 112.103L97.9255 111.927C114.856 111.429 130.213 110.985 141.289 110.681L154.436 110.329L158.009 110.244H158.935H159.258L159.286 110.256Z" fill="#2972FF"/>
<path d="M112.236 60.5394V62.0891L130.753 61.3234V60.0229L112.236 60.5394Z" fill="#263238"/>
<path d="M98.2195 108.934H104.656L103.645 93.8081H97.3351L98.2195 108.934Z" fill="#2972FF"/>
<path d="M109.885 108.939H116.315L115.311 87.7962H109.001L109.885 108.939Z" fill="#2972FF"/>
<path d="M120.807 108.269H127.243L126.232 80.5875H119.929L120.807 108.269Z" fill="#2972FF"/>
<path d="M145.865 107.189H152.295L151.291 69.4622H144.981L145.865 107.189Z" fill="#2972FF"/>
<path d="M133.672 107.317H140.102L139.091 74.8531H132.788L133.672 107.317Z" fill="#2972FF"/>
<path d="M94.1776 89.8883C94.0092 89.6634 105.506 83.0271 119.846 75.066C134.186 67.1049 145.964 60.8332 146.133 61.0885C146.301 61.3437 134.804 67.9496 120.457 75.9107C106.11 83.8718 94.332 90.1131 94.1776 89.8883Z" fill="#2972FF"/>
<path d="M139.767 61.0633C139.711 60.7959 143.873 59.8965 149.081 59.0457L150.401 58.833L149.65 59.7992L149.608 59.854C146.632 63.6826 143.993 66.6665 143.747 66.5389C143.501 66.4112 145.698 63.166 148.66 59.3313L148.702 59.2766L149.278 60.0302C144.077 60.8506 139.823 61.3246 139.767 61.0633Z" fill="#2972FF"/>
<path d="M97.3351 114.047H104.059L104.27 115.08H97.3351V114.047Z" fill="#263238"/>
<path d="M109.239 113.62H115.963L116.174 114.653H109.239V113.62Z" fill="#263238"/>
<path d="M121.496 113.315H128.22L128.431 114.348H121.496V113.315Z" fill="#263238"/>
<path d="M132.979 113.065H139.704L139.914 114.104H132.979V113.065Z" fill="#263238"/>
<path d="M147.207 112.701H153.931L154.142 113.74H147.207V112.701Z" fill="#263238"/>
<path d="M177.368 153.896C189.223 153.896 198.832 145.576 198.832 135.312C198.832 125.049 189.223 116.728 177.368 116.728C165.514 116.728 155.904 125.049 155.904 135.312C155.904 145.576 165.514 153.896 177.368 153.896Z" fill="#2972FF"/>
<path opacity="0.3" d="M177.368 153.896C189.223 153.896 198.832 145.576 198.832 135.312C198.832 125.049 189.223 116.728 177.368 116.728C165.514 116.728 155.904 125.049 155.904 135.312C155.904 145.576 165.514 153.896 177.368 153.896Z" fill="black"/>
<path d="M177.367 135.285L156.429 139.362C153.06 125.993 165.512 116.701 177.367 116.701" fill="#2972FF"/>
<path d="M177.394 135.285L177.253 116.701C193.06 116.701 200.894 129.213 198.367 139.241L177.394 135.285Z" fill="#2972FF"/>
<path d="M177.394 135.285L177.253 116.701C193.06 116.701 200.894 129.213 198.367 139.241L177.394 135.285Z" fill="#2972FF"/>
<path opacity="0.1" d="M177.394 135.285L177.253 116.701C193.06 116.701 200.894 129.213 198.367 139.241L177.394 135.285Z" fill="black"/>
<path d="M199.387 91.3034C198.97 91.062 198.525 90.8584 198.06 90.6957C196.764 90.3524 195.373 90.3865 194.102 90.7929C192.459 91.2365 190.831 92.3669 189.251 93.7829C187.672 95.1989 185.98 96.9126 183.51 97.9154C182.318 98.4283 180.976 98.6209 179.656 98.4684C178.466 98.2545 177.315 97.8987 176.238 97.411C175.289 96.9833 174.276 96.6744 173.227 96.4933C172.315 96.3693 171.38 96.4704 170.531 96.785C169.282 97.2441 168.26 98.0706 167.647 99.1187C167.449 99.5124 167.287 99.9188 167.162 100.334C167.184 99.8945 167.306 99.4629 167.52 99.064C168.108 97.9573 169.141 97.0738 170.426 96.5784C171.307 96.239 172.279 96.1191 173.234 96.232C174.317 96.4061 175.367 96.713 176.35 97.1436C177.4 97.615 178.519 97.9586 179.677 98.1645C180.926 98.2991 182.193 98.1131 183.32 97.6297C185.693 96.6696 187.356 94.9679 188.978 93.5763C190.599 92.1846 192.277 91.0117 193.982 90.5802C195.307 90.1801 196.749 90.1801 198.074 90.5802C198.428 90.6981 198.761 90.8577 199.064 91.0542C199.183 91.1254 199.292 91.2091 199.387 91.3034Z" fill="#263238"/>
<path d="M201.205 103.315C201.205 103.406 193.582 103.473 184.184 103.473C174.785 103.473 167.162 103.406 167.162 103.315C167.162 103.224 174.785 103.157 184.184 103.157C193.582 103.157 201.205 103.23 201.205 103.315Z" fill="#263238"/>
<path d="M199.31 103.313C199.211 103.313 199.127 99.5569 199.127 94.92C199.127 90.2831 199.211 86.5335 199.31 86.5335C199.408 86.5335 199.492 90.2892 199.492 94.92C199.492 99.5508 199.415 103.313 199.31 103.313Z" fill="#263238"/>
<path d="M170.593 96.2415C170.593 96.2415 170.544 96.1807 170.593 96.0713C170.625 95.9946 170.676 95.9249 170.743 95.8672C170.81 95.8094 170.89 95.765 170.979 95.7371C171.112 95.686 171.259 95.6675 171.404 95.6836C171.549 95.6996 171.686 95.7497 171.8 95.8283C171.924 95.9484 171.997 96.1013 172.007 96.262C172.017 96.4227 171.964 96.5817 171.857 96.713C171.749 96.8442 171.593 96.94 171.415 96.9846C171.236 97.0292 171.045 97.0201 170.873 96.9586C170.753 96.8961 170.653 96.8069 170.585 96.7001C170.517 96.5933 170.484 96.4727 170.487 96.3509C170.486 96.2699 170.503 96.1895 170.538 96.1143C170.573 96.0392 170.625 95.9708 170.691 95.9133C170.796 95.8404 170.873 95.8404 170.88 95.8526C170.887 95.8647 170.691 96.0288 170.74 96.3387C170.75 96.4185 170.781 96.4951 170.831 96.5626C170.881 96.6301 170.948 96.6866 171.028 96.7277C171.126 96.7492 171.23 96.7445 171.325 96.7142C171.421 96.684 171.503 96.6295 171.562 96.558C171.621 96.4865 171.654 96.4013 171.657 96.3134C171.659 96.2255 171.631 96.139 171.575 96.0653C171.505 96.0152 171.421 95.9808 171.332 95.9649C171.243 95.949 171.151 95.9522 171.063 95.9741C170.705 96.0227 170.642 96.2537 170.593 96.2415Z" fill="#263238"/>
<path d="M193.546 90.1524C193.546 90.1524 193.546 90.0794 193.673 90.0187C193.836 89.9476 194.025 89.9346 194.199 89.9822C194.338 90.0148 194.463 90.0796 194.562 90.1696C194.661 90.2596 194.73 90.3713 194.761 90.4927C194.771 90.6494 194.721 90.8047 194.617 90.9336C194.514 91.0624 194.363 91.1573 194.19 91.2029C194.016 91.2485 193.83 91.2422 193.661 91.1851C193.492 91.1279 193.35 91.0231 193.259 90.8877C193.208 90.7705 193.195 90.6437 193.221 90.5207C193.247 90.3976 193.311 90.2829 193.406 90.1888C193.525 90.0674 193.693 89.991 193.876 89.9761C194.003 89.9761 194.066 90.0126 194.059 90.0308C194.052 90.0491 193.792 90.0612 193.617 90.3225C193.568 90.3876 193.538 90.4616 193.528 90.5386C193.518 90.6156 193.529 90.6935 193.56 90.7662C193.622 90.8318 193.705 90.8799 193.799 90.9045C193.892 90.9291 193.992 90.929 194.085 90.9042C194.179 90.8795 194.262 90.8311 194.323 90.7654C194.385 90.6996 194.422 90.6195 194.431 90.5352C194.412 90.4596 194.373 90.3888 194.317 90.3286C194.261 90.2684 194.189 90.2205 194.108 90.1888C193.799 90.0551 193.581 90.1949 193.546 90.1524Z" fill="#263238"/>
<path d="M198.705 70.2585C198.705 70.3436 191.321 70.4165 182.217 70.4165C173.113 70.4165 165.729 70.3436 165.729 70.2585C165.729 70.1734 173.106 70.1005 182.217 70.1005C191.328 70.1005 198.705 70.1856 198.705 70.2585Z" fill="#263238"/>
<path d="M198.705 74.241C198.705 74.3322 191.321 74.399 182.217 74.399C173.113 74.399 165.729 74.3322 165.729 74.241C165.729 74.1498 173.106 74.083 182.217 74.083C191.328 74.083 198.705 74.1559 198.705 74.241Z" fill="#263238"/>
<path d="M198.705 78.2061C198.705 78.2912 191.321 78.3641 182.217 78.3641C173.113 78.3641 165.729 78.2912 165.729 78.2061C165.729 78.1211 173.106 78.0481 182.217 78.0481C191.328 78.0481 198.705 78.115 198.705 78.2061Z" fill="#263238"/>
<path d="M198.705 82.1678C198.705 82.259 191.321 82.3258 182.217 82.3258C173.113 82.3258 165.729 82.259 165.729 82.1678C165.729 82.0767 173.106 82.0098 182.217 82.0098C191.328 82.0098 198.705 82.0828 198.705 82.1678Z" fill="#263238"/>
<path d="M183.277 63.0236H165.729V64.3059H183.277V63.0236Z" fill="#263238"/>
<path d="M110.841 126.688H93.2929V127.97H110.841V126.688Z" fill="#263238"/>
<path d="M141.31 134.114C141.31 134.205 130.662 134.272 117.529 134.272C104.396 134.272 93.7413 134.205 93.7413 134.114C93.7413 134.022 104.389 133.956 117.529 133.956C130.669 133.956 141.31 134.029 141.31 134.114Z" fill="#263238"/>
<path d="M141.591 137.718C141.591 137.803 130.753 137.876 117.389 137.876C104.025 137.876 93.1872 137.803 93.1872 137.718C93.1872 137.633 104.018 137.56 117.389 137.56C130.76 137.56 141.591 137.645 141.591 137.718Z" fill="#263238"/>
<path d="M142.145 141.107C142.145 141.192 131.245 141.265 117.803 141.265C104.361 141.265 93.4608 141.192 93.4608 141.107C93.4608 141.022 104.361 140.949 117.803 140.949C131.245 140.949 142.145 141.016 142.145 141.107Z" fill="#263238"/>
<path d="M118.778 144.719C118.778 144.804 113.163 144.877 106.256 144.877C99.3496 144.877 93.7413 144.804 93.7413 144.719C93.7413 144.634 99.3566 144.561 106.256 144.561C113.156 144.561 118.778 144.634 118.778 144.719Z" fill="#263238"/>
<path d="M42.3389 243.092V237.622L30.4556 237.531L30.3573 245.571L31.0592 245.614C34.3371 245.79 47.7366 246.307 49.9336 245.747C52.4183 245.115 42.3389 243.092 42.3389 243.092Z" fill="#2972FF"/>
<path d="M50.2501 245.239C50.2501 245.336 45.807 245.415 40.3251 245.415C34.8432 245.415 30.3931 245.336 30.3931 245.239C30.3931 245.141 34.8432 245.062 40.3251 245.062C45.807 245.062 50.2501 245.141 50.2501 245.239Z" fill="#263238"/>
<path d="M42.5498 244.211C42.4515 244.162 42.5498 243.864 42.7885 243.603C43.0271 243.342 43.357 243.172 43.4272 243.238C43.4974 243.305 43.343 243.554 43.1113 243.846C42.8797 244.138 42.6481 244.259 42.5498 244.211Z" fill="#263238"/>
<path d="M43.3076 244.571C43.2023 244.535 43.2585 244.207 43.4901 243.866C43.7217 243.526 44.0306 243.319 44.1148 243.38C44.199 243.441 44.0587 243.726 43.8411 244.042C43.6235 244.358 43.4129 244.608 43.3076 244.571Z" fill="#263238"/>
<path d="M33.9651 245.206C33.916 245.236 33.7335 245.09 33.4738 244.847C33.1577 244.53 32.8075 244.239 32.4279 243.978C32.0494 243.737 31.6083 243.581 31.1435 243.522C30.7855 243.48 30.5538 243.522 30.5328 243.474C30.5117 243.425 30.7363 243.298 31.1505 243.273C31.6962 243.26 32.231 243.408 32.6666 243.693C33.0818 243.968 33.4341 244.308 33.7054 244.695C33.923 244.981 34.0213 245.175 33.9651 245.206Z" fill="#263238"/>
<path d="M42.585 243.18C42.6411 243.259 42.4306 243.453 42.0936 243.556C41.7567 243.66 41.4549 243.623 41.4409 243.526C41.4268 243.429 41.6584 243.319 41.9603 243.228C42.2621 243.137 42.5218 243.095 42.585 243.18Z" fill="#263238"/>
<path d="M42.3886 242.646C42.3886 242.743 42.0798 242.828 41.6867 242.834C41.2936 242.84 40.9848 242.761 40.9848 242.664C40.9848 242.567 41.3077 242.488 41.6867 242.482C42.0657 242.476 42.3886 242.549 42.3886 242.646Z" fill="#2972FF"/>
<path d="M50.2501 245.239C50.2501 245.336 45.807 245.415 40.3251 245.415C34.8432 245.415 30.3931 245.336 30.3931 245.239C30.3931 245.141 34.8432 245.062 40.3251 245.062C45.807 245.062 50.2501 245.141 50.2501 245.239Z" fill="#263238"/>
<path d="M42.5498 244.211C42.4515 244.162 42.5498 243.864 42.7885 243.603C43.0271 243.342 43.357 243.172 43.4272 243.238C43.4974 243.305 43.343 243.554 43.1113 243.846C42.8797 244.138 42.6481 244.259 42.5498 244.211Z" fill="#263238"/>
<path d="M43.3076 244.571C43.2023 244.535 43.2585 244.207 43.4901 243.866C43.7217 243.526 44.0306 243.319 44.1148 243.38C44.199 243.441 44.0587 243.726 43.8411 244.042C43.6235 244.358 43.4129 244.608 43.3076 244.571Z" fill="#263238"/>
<path d="M33.9651 245.206C33.916 245.236 33.7335 245.09 33.4738 244.847C33.1577 244.53 32.8075 244.239 32.4279 243.978C32.0494 243.737 31.6083 243.581 31.1435 243.522C30.7855 243.48 30.5538 243.522 30.5328 243.474C30.5117 243.425 30.7363 243.298 31.1505 243.273C31.6962 243.26 32.231 243.408 32.6666 243.693C33.0818 243.968 33.4341 244.308 33.7054 244.695C33.923 244.981 34.0213 245.175 33.9651 245.206Z" fill="#263238"/>
<path d="M42.585 243.18C42.6411 243.259 42.4306 243.453 42.0936 243.556C41.7567 243.66 41.4549 243.623 41.4409 243.526C41.4268 243.429 41.6584 243.319 41.9603 243.228C42.2621 243.137 42.5218 243.095 42.585 243.18Z" fill="#263238"/>
<path d="M42.3886 242.646C42.3886 242.743 42.0798 242.828 41.6867 242.834C41.2936 242.84 40.9848 242.761 40.9848 242.664C40.9848 242.567 41.3077 242.488 41.6867 242.482C42.0657 242.476 42.3886 242.549 42.3886 242.646Z" fill="#263238"/>
<path d="M54.8754 241.142L56.7495 235.897L45.4207 232.785L42.613 240.437L43.3149 240.667C46.3823 241.676 59.0096 245.602 61.2979 245.633C63.8107 245.657 54.8754 241.142 54.8754 241.142Z" fill="#2972FF"/>
<path d="M61.6978 245.225C61.6978 245.322 57.3881 244.259 52.1518 242.849C46.9156 241.439 42.6971 240.229 42.7322 240.138C42.7673 240.047 47.0349 241.111 52.2782 242.515C57.5214 243.918 61.7329 245.134 61.6978 245.225Z" fill="#263238"/>
<path d="M54.6929 242.268C54.6157 242.195 54.7982 241.94 55.1351 241.727C55.472 241.515 55.837 241.46 55.8721 241.545C55.9072 241.63 55.6826 241.824 55.3737 242.019C55.0649 242.213 54.7701 242.335 54.6929 242.268Z" fill="#263238"/>
<path d="M55.2895 242.812C55.2053 242.751 55.3667 242.447 55.7106 242.204C56.0546 241.961 56.4126 241.821 56.4757 241.9C56.5389 241.979 56.3002 242.216 55.9844 242.465C55.6685 242.714 55.3808 242.848 55.2895 242.812Z" fill="#263238"/>
<path d="M46.164 241.023C46.1079 241.023 45.9885 240.859 45.8271 240.555C45.6343 240.172 45.3992 239.805 45.1252 239.461C44.8465 239.135 44.4803 238.872 44.0583 238.695C43.7284 238.568 43.4897 238.543 43.4897 238.495C43.4897 238.446 43.7424 238.373 44.1495 238.458C44.6731 238.587 45.1308 238.865 45.4481 239.248C45.7486 239.616 45.9698 240.028 46.1008 240.464C46.1921 240.792 46.2132 241.023 46.164 241.023Z" fill="#2972FF"/>
<path d="M55.0785 241.292C55.0785 241.383 54.8399 241.516 54.4819 241.529C54.1239 241.541 53.8432 241.425 53.8642 241.328C53.8853 241.231 54.152 241.188 54.4679 241.176C54.7837 241.164 55.0224 241.194 55.0785 241.292Z" fill="#263238"/>
<path d="M55.0786 240.736C55.0786 240.827 54.7276 240.827 54.3416 240.736C53.9555 240.645 53.6818 240.481 53.7169 240.39C53.752 240.299 54.0889 240.305 54.4539 240.39C54.8189 240.475 55.1067 240.639 55.0786 240.736Z" fill="#263238"/>
<path d="M62.9403 134.45L47.3439 133.411L23.7177 131.752L26.3568 241.634L46.8736 241.403C46.8736 241.403 46.8736 240.188 46.8245 238.036L58.8552 240.886C58.8552 240.886 70.5771 206.599 74.571 192.53C77.9051 180.807 62.9403 134.45 62.9403 134.45ZM46.5999 220.971C46.2911 195.605 45.9331 152.469 46.3612 147.194C46.3612 147.194 57.7883 185.171 57.8936 188.167C57.9638 189.978 51.5975 207.504 46.5999 220.971Z" fill="#2972FF"/>
<path d="M46.9858 237.239C46.9858 237.336 42.3953 237.415 36.7379 237.415C31.0805 237.415 26.483 237.336 26.483 237.239C26.483 237.142 31.0735 237.063 36.7379 237.063C42.4023 237.063 46.9858 237.142 46.9858 237.239Z" fill="#2972FF"/>
<path d="M46.803 233.288C47.4447 233.42 48.0737 233.595 48.6841 233.811L53.3799 235.227L58.0757 236.649C58.7397 236.813 59.3838 237.033 59.9989 237.305C59.3132 237.223 58.6385 237.082 57.9844 236.886C56.7631 236.576 55.0855 236.114 53.2465 235.561C51.4075 235.008 49.737 234.461 48.5858 234.042C47.9541 233.863 47.3541 233.61 46.803 233.288Z" fill="#2972FF"/>
<path d="M65.6016 187.827C64.3327 188.083 63.0367 188.225 61.7341 188.252C60.4422 188.395 59.1367 188.422 57.8385 188.331C59.1067 188.071 60.403 187.926 61.706 187.9C62.998 187.757 64.3037 187.733 65.6016 187.827Z" fill="#2972FF"/>
<path d="M64.2596 189.816C63.2506 189.743 62.2572 189.555 61.3046 189.257C60.3132 189.07 59.355 188.77 58.4548 188.364C59.4667 188.43 60.4633 188.616 61.4169 188.917C63.0172 189.318 64.2947 189.719 64.2596 189.816Z" fill="#2972FF"/>
<path d="M48.2491 133.549C48.3434 134.243 48.3786 134.942 48.3544 135.64C48.3544 136.934 48.3544 138.721 48.3544 140.696C48.3544 141.674 48.3544 142.61 48.3123 143.473C48.338 144.251 48.1704 145.024 47.8209 145.74C47.572 146.228 47.174 146.648 46.6698 146.955C46.4979 147.079 46.2926 147.163 46.0732 147.199C46.0732 147.199 46.2697 147.089 46.5856 146.858C47.0288 146.529 47.3732 146.112 47.5893 145.643C47.882 144.947 48.0132 144.207 47.9754 143.467C47.9754 142.598 47.9754 141.644 47.9754 140.684C47.9754 138.709 48.0315 136.922 48.0736 135.634C48.0714 134.936 48.13 134.239 48.2491 133.549Z" fill="#2972FF"/>
<path d="M36.5068 132.928C36.5143 133.017 36.5143 133.107 36.5068 133.196C36.5068 133.39 36.5068 133.651 36.5068 133.986C36.5068 134.691 36.4436 135.712 36.3944 137.024C36.2962 139.668 36.1558 143.466 35.9803 148.152C35.6504 157.547 35.3135 170.534 35.2293 184.87C35.145 199.206 35.3346 212.217 35.5522 221.607C35.6715 226.292 35.7627 230.115 35.8329 232.734C35.8329 234.04 35.8891 235.055 35.9101 235.772C35.9101 236.107 35.9101 236.38 35.9101 236.563C35.9177 236.652 35.9177 236.741 35.9101 236.83C35.9026 236.741 35.9026 236.652 35.9101 236.563C35.9101 236.374 35.9101 236.113 35.861 235.779C35.861 235.068 35.7838 234.053 35.7206 232.74C35.6013 230.115 35.4609 226.31 35.3205 221.613C35.0327 212.211 34.8081 199.224 34.8924 184.87C34.9766 170.516 35.3556 157.523 35.7487 148.145C35.9452 143.448 36.1277 139.637 36.2821 137.018C36.3594 135.718 36.4225 134.703 36.4646 133.98C36.4646 133.645 36.5068 133.372 36.5208 133.19C36.5089 133.103 36.5042 133.015 36.5068 132.928Z" fill="#2972FF"/>
<path d="M57.8309 135.693C57.8735 135.774 57.9087 135.857 57.9362 135.942C57.9993 136.125 58.0906 136.368 58.2029 136.684C58.4275 137.334 58.7855 138.294 59.1786 139.546C59.9857 142.044 61.0737 145.672 62.288 150.187C63.5023 154.703 64.85 160.087 66.2538 166.091C67.6576 172.095 69.1386 178.707 70.4653 185.684C70.6337 186.559 70.7881 187.428 70.9215 188.297C70.9215 188.528 70.9706 188.765 70.9706 188.99L70.8443 189.634C70.753 190.066 70.6828 190.497 70.5705 190.916C70.1705 192.606 69.7212 194.259 69.2369 195.875C68.2823 199.109 67.2716 202.202 66.2749 205.143C64.2955 211.026 62.3863 216.289 60.7649 220.707C59.1435 225.125 57.7888 228.68 56.8342 231.135L55.7252 233.961L55.4233 234.697C55.3972 234.781 55.3595 234.863 55.311 234.94C55.3294 234.853 55.3552 234.768 55.3882 234.684C55.4584 234.502 55.5427 234.259 55.655 233.943L56.7008 231.099L60.5192 220.64C62.1055 216.216 63.9866 210.947 65.952 205.064C66.9347 202.123 67.9384 199.023 68.893 195.796C69.3703 194.186 69.8195 192.539 70.2196 190.856C70.3319 190.436 70.3951 190.011 70.4793 189.586L70.6056 188.947C70.6056 188.741 70.5705 188.54 70.5565 188.34C70.4231 187.483 70.2757 186.614 70.1073 185.745C68.7737 178.774 67.2997 172.162 65.8958 166.158C64.492 160.154 63.2216 154.727 62.0423 150.236C60.8631 145.745 59.8033 142.08 59.0382 139.576C58.6732 138.324 58.3363 137.358 58.1327 136.702L57.9011 135.954C57.8666 135.87 57.8431 135.782 57.8309 135.693Z" fill="#2972FF"/>
<path d="M46.5367 218.739C46.5932 219.022 46.6144 219.309 46.5999 219.596C46.5999 220.204 46.5999 221 46.635 221.942C46.635 223.978 46.7192 226.682 46.7684 229.666C46.8175 232.65 46.9508 235.354 47.014 237.39C47.014 238.332 47.0702 239.122 47.0912 239.736C47.1229 240.021 47.1229 240.308 47.0912 240.593C47.0138 240.314 46.9714 240.029 46.9649 239.742C46.9087 239.189 46.8456 238.393 46.7754 237.402C46.635 235.427 46.5016 232.692 46.4244 229.672C46.3472 226.652 46.3612 223.917 46.4244 221.942C46.4244 220.951 46.4736 220.119 46.5016 219.596C46.4874 219.31 46.4991 219.023 46.5367 218.739Z" fill="#2972FF"/>
<path d="M62.9403 134.45L47.3439 133.411L23.7177 131.752L26.3568 241.634L46.8736 241.403C46.8736 241.403 46.8736 240.188 46.8245 238.036L58.8552 240.886C58.8552 240.886 70.5771 206.599 74.571 192.53C77.9051 180.807 62.9403 134.45 62.9403 134.45ZM46.5999 220.971C46.2911 195.605 45.9331 152.469 46.3612 147.194C46.3612 147.194 57.7883 185.171 57.8936 188.167C57.9638 189.978 51.5975 207.504 46.5999 220.971Z" fill="#263238"/>
<path d="M46.9858 237.239C46.9858 237.336 42.3953 237.415 36.7379 237.415C31.0805 237.415 26.483 237.336 26.483 237.239C26.483 237.142 31.0735 237.063 36.7379 237.063C42.4023 237.063 46.9858 237.142 46.9858 237.239Z" fill="#2972FF"/>
<path d="M46.803 233.288C47.4447 233.42 48.0737 233.595 48.6841 233.811L53.3799 235.227L58.0757 236.649C58.7397 236.813 59.3838 237.033 59.9989 237.305C59.3132 237.223 58.6385 237.082 57.9844 236.886C56.7631 236.576 55.0855 236.114 53.2465 235.561C51.4075 235.008 49.737 234.461 48.5858 234.042C47.9541 233.863 47.3541 233.61 46.803 233.288Z" fill="#2972FF"/>
<path d="M65.6016 187.827C64.3327 188.083 63.0367 188.225 61.7341 188.252C60.4422 188.395 59.1367 188.422 57.8385 188.331C59.1067 188.071 60.403 187.926 61.706 187.9C62.998 187.757 64.3037 187.733 65.6016 187.827Z" fill="#2972FF"/>
<path d="M64.2596 189.816C63.2506 189.743 62.2572 189.555 61.3046 189.257C60.3132 189.07 59.355 188.77 58.4548 188.364C59.4667 188.43 60.4633 188.616 61.4169 188.917C63.0172 189.318 64.2947 189.719 64.2596 189.816Z" fill="#2972FF"/>
<path d="M48.2491 133.549C48.3434 134.243 48.3786 134.942 48.3544 135.64C48.3544 136.934 48.3544 138.721 48.3544 140.696C48.3544 141.674 48.3544 142.61 48.3123 143.473C48.338 144.251 48.1704 145.024 47.8209 145.74C47.572 146.228 47.174 146.648 46.6698 146.955C46.4979 147.079 46.2926 147.163 46.0732 147.199C46.0732 147.199 46.2697 147.089 46.5856 146.858C47.0288 146.529 47.3732 146.112 47.5893 145.643C47.882 144.947 48.0132 144.207 47.9754 143.467C47.9754 142.598 47.9754 141.644 47.9754 140.684C47.9754 138.709 48.0315 136.922 48.0736 135.634C48.0714 134.936 48.13 134.239 48.2491 133.549Z" fill="#2972FF"/>
<path d="M36.5068 132.928C36.5143 133.017 36.5143 133.107 36.5068 133.196C36.5068 133.39 36.5068 133.651 36.5068 133.986C36.5068 134.691 36.4436 135.712 36.3944 137.024C36.2962 139.668 36.1558 143.466 35.9803 148.152C35.6504 157.547 35.3135 170.534 35.2293 184.87C35.145 199.206 35.3346 212.217 35.5522 221.607C35.6715 226.292 35.7627 230.115 35.8329 232.734C35.8329 234.04 35.8891 235.055 35.9101 235.772C35.9101 236.107 35.9101 236.38 35.9101 236.563C35.9177 236.652 35.9177 236.741 35.9101 236.83C35.9026 236.741 35.9026 236.652 35.9101 236.563C35.9101 236.374 35.9101 236.113 35.861 235.779C35.861 235.068 35.7838 234.053 35.7206 232.74C35.6013 230.115 35.4609 226.31 35.3205 221.613C35.0327 212.211 34.8081 199.224 34.8924 184.87C34.9766 170.516 35.3556 157.523 35.7487 148.145C35.9452 143.448 36.1277 139.637 36.2821 137.018C36.3594 135.718 36.4225 134.703 36.4646 133.98C36.4646 133.645 36.5068 133.372 36.5208 133.19C36.5089 133.103 36.5042 133.015 36.5068 132.928Z" fill="#2972FF"/>
<path d="M57.8309 135.693C57.8735 135.774 57.9087 135.857 57.9362 135.942C57.9993 136.125 58.0906 136.368 58.2029 136.684C58.4275 137.334 58.7855 138.294 59.1786 139.546C59.9857 142.044 61.0737 145.672 62.288 150.187C63.5023 154.703 64.85 160.087 66.2538 166.091C67.6576 172.095 69.1386 178.707 70.4653 185.684C70.6337 186.559 70.7881 187.428 70.9215 188.297C70.9215 188.528 70.9706 188.765 70.9706 188.99L70.8443 189.634C70.753 190.066 70.6828 190.497 70.5705 190.916C70.1705 192.606 69.7212 194.259 69.2369 195.875C68.2823 199.109 67.2716 202.202 66.2749 205.143C64.2955 211.026 62.3863 216.289 60.7649 220.707C59.1435 225.125 57.7888 228.68 56.8342 231.135L55.7252 233.961L55.4233 234.697C55.3972 234.781 55.3595 234.863 55.311 234.94C55.3294 234.853 55.3552 234.768 55.3882 234.684C55.4584 234.502 55.5427 234.259 55.655 233.943L56.7008 231.099L60.5192 220.64C62.1055 216.216 63.9866 210.947 65.952 205.064C66.9347 202.123 67.9384 199.023 68.893 195.796C69.3703 194.186 69.8195 192.539 70.2196 190.856C70.3319 190.436 70.3951 190.011 70.4793 189.586L70.6056 188.947C70.6056 188.741 70.5705 188.54 70.5565 188.34C70.4231 187.483 70.2757 186.614 70.1073 185.745C68.7737 178.774 67.2997 172.162 65.8958 166.158C64.492 160.154 63.2216 154.727 62.0423 150.236C60.8631 145.745 59.8033 142.08 59.0382 139.576C58.6732 138.324 58.3363 137.358 58.1327 136.702L57.9011 135.954C57.8666 135.87 57.8431 135.782 57.8309 135.693Z" fill="#2972FF"/>
<path d="M46.5367 218.739C46.5932 219.022 46.6144 219.309 46.5999 219.596C46.5999 220.204 46.5999 221 46.635 221.942C46.635 223.978 46.7192 226.682 46.7684 229.666C46.8175 232.65 46.9508 235.354 47.014 237.39C47.014 238.332 47.0702 239.122 47.0912 239.736C47.1229 240.021 47.1229 240.308 47.0912 240.593C47.0138 240.314 46.9714 240.029 46.9649 239.742C46.9087 239.189 46.8456 238.393 46.7754 237.402C46.635 235.427 46.5016 232.692 46.4244 229.672C46.3472 226.652 46.3612 223.917 46.4244 221.942C46.4244 220.951 46.4736 220.119 46.5016 219.596C46.4874 219.31 46.4991 219.023 46.5367 218.739Z" fill="#2972FF"/>
<path d="M36.0713 81.7117L48.0038 82.4774C48.1652 81.262 48.3969 76.6372 48.3969 76.6372C48.3969 76.6372 53.3734 76.2422 53.7384 71.976C54.1034 67.7099 53.949 57.8587 53.949 57.8587C51.2209 56.6649 48.174 56.1239 45.1234 56.2916C42.0729 56.4594 39.1295 57.3298 36.5978 58.8128L35.8327 59.2626L36.0713 81.7117Z" fill="#E5BAAB"/>
<path d="M52.2506 65.1316C52.1561 65.0454 52.0928 64.9371 52.0686 64.8201C52.0444 64.7031 52.0604 64.5825 52.1145 64.4733C52.1687 64.3641 52.2587 64.271 52.3733 64.2056C52.488 64.1402 52.6222 64.1053 52.7595 64.1053C52.8968 64.1053 53.0311 64.1402 53.1457 64.2056C53.2604 64.271 53.3503 64.3641 53.4045 64.4733C53.4587 64.5825 53.4746 64.7031 53.4505 64.8201C53.4263 64.9371 53.363 65.0454 53.2684 65.1316C53.2028 65.1914 53.1239 65.239 53.0364 65.2715C52.9489 65.304 52.8547 65.3208 52.7595 65.3208C52.6643 65.3208 52.5701 65.304 52.4826 65.2715C52.3951 65.239 52.3162 65.1914 52.2506 65.1316Z" fill="#263238"/>
<path d="M53.5147 64.221C53.4305 64.2939 52.9743 63.9475 52.2934 63.905C51.6126 63.8624 51.1002 64.142 51.03 64.063C50.9598 63.984 51.0791 63.8989 51.3107 63.7713C51.6094 63.6015 51.9657 63.5243 52.3215 63.5525C52.68 63.571 53.021 63.693 53.2901 63.8989C53.4937 64.0508 53.5568 64.1784 53.5147 64.221Z" fill="#263238"/>
<path d="M45.6518 64.3194C45.763 64.3897 45.8478 64.4868 45.8957 64.5985C45.9437 64.7102 45.9526 64.8316 45.9215 64.9477C45.8903 65.0638 45.8205 65.1694 45.7205 65.2514C45.6206 65.3333 45.4951 65.388 45.3595 65.4087C45.2239 65.4294 45.0844 65.4151 44.9581 65.3676C44.8319 65.3201 44.7245 65.2415 44.6495 65.1416C44.5744 65.0417 44.5349 64.9249 44.5359 64.8058C44.5369 64.6866 44.5784 64.5703 44.6551 64.4714C44.7078 64.4034 44.7758 64.3454 44.855 64.3008C44.9342 64.2562 45.023 64.2259 45.1161 64.2117C45.2092 64.1975 45.3046 64.1997 45.3967 64.2182C45.4887 64.2368 45.5755 64.2712 45.6518 64.3194Z" fill="#263238"/>
<path d="M46.1003 64.3498C46.0161 64.4167 45.5598 64.0703 44.879 64.0277C44.1981 63.9852 43.6857 64.2708 43.6155 64.1918C43.5453 64.1128 43.6647 64.0216 43.8893 63.894C44.1936 63.7304 44.5497 63.6538 44.907 63.6752C45.2645 63.6978 45.6041 63.8192 45.8757 64.0216C46.0792 64.1796 46.1424 64.3194 46.1003 64.3498Z" fill="#263238"/>
<path d="M48.4811 69.3455C48.8401 69.2494 49.2143 69.2022 49.5901 69.2057C49.7726 69.2057 49.92 69.1753 49.941 69.0903C49.9588 68.9333 49.9247 68.7753 49.8428 68.6345L49.3936 67.419C48.9613 66.3799 48.644 65.3075 48.446 64.2164C48.9899 65.2141 49.4246 66.2538 49.7445 67.3218L50.1657 68.5372C50.267 68.7384 50.2868 68.9633 50.2218 69.1753C50.1923 69.2322 50.1477 69.2823 50.0916 69.3213C50.0354 69.3604 49.9694 69.3874 49.8989 69.4002C49.7987 69.4115 49.6973 69.4115 49.5971 69.4002C49.2241 69.4337 48.8473 69.4152 48.4811 69.3455Z" fill="#263238"/>
<path d="M46.2291 69.8701C45.5272 69.469 48.1102 70.8729 49.5 70.8911C49.2476 71.1872 48.8864 71.4003 48.4757 71.4952C48.065 71.5902 47.6292 71.5615 47.2399 71.4137C45.7939 70.8607 46.2291 69.8701 46.2291 69.8701Z" fill="white"/>
<path d="M48.3691 76.5752C46.09 76.4918 43.891 75.8233 42.0519 74.6548C42.0519 74.6548 43.3505 77.8088 48.2989 77.6934L48.3691 76.5752Z" fill="#2972FF"/>
<path d="M36.7722 63.05C36.6599 63.0135 33.1082 62.6124 33.4451 66.2466C33.7821 69.8808 37.9093 68.3797 37.9023 68.2764C37.8952 68.1731 36.7722 63.05 36.7722 63.05Z" fill="#E5BAAB"/>
<path d="M36.4644 67.0862C36.4644 67.0862 36.4012 67.1348 36.2819 67.1956C36.1129 67.2706 35.9175 67.288 35.7344 67.2442C35.4502 67.1129 35.211 66.9191 35.0409 66.6822C34.8709 66.4453 34.776 66.1738 34.7658 65.8951C34.7271 65.5848 34.7703 65.2711 34.8921 64.9774C34.9202 64.8612 34.9801 64.7525 35.0668 64.6605C35.1536 64.5685 35.2646 64.4958 35.3905 64.4487C35.4734 64.4256 35.5629 64.4274 35.6444 64.4539C35.726 64.4803 35.7948 64.5299 35.8397 64.5945C35.9028 64.6918 35.8888 64.7647 35.9099 64.7708C35.9309 64.7769 35.9941 64.7039 35.9099 64.5581C35.8806 64.4689 35.816 64.3914 35.7274 64.3393C35.6029 64.2752 35.4552 64.2535 35.3132 64.2785C35.1461 64.3195 34.9938 64.3969 34.8709 64.5033C34.748 64.6097 34.6587 64.7415 34.6113 64.8863C34.46 65.2117 34.4045 65.5647 34.4499 65.9133C34.4577 66.238 34.5766 66.5533 34.7915 66.8194C35.0064 67.0856 35.3077 67.2905 35.6572 67.4083C35.7722 67.4292 35.8912 67.4275 36.0054 67.4033C36.1196 67.3791 36.2261 67.333 36.317 67.2685C36.4644 67.1774 36.4854 67.0923 36.4644 67.0862Z" fill="#2972FF"/>
<path d="M54.2653 56.3196C54.5494 56.313 54.828 56.2499 55.0794 56.1353C55.3308 56.0206 55.5485 55.8574 55.7154 55.6583C55.8824 55.4591 55.9942 55.2294 56.0422 54.9869C56.0902 54.7444 56.0732 54.4956 55.9924 54.2597C55.9116 54.0238 55.7692 53.8071 55.5763 53.6265C55.3833 53.4458 55.1449 53.306 54.8796 53.2179C54.6143 53.1297 54.3291 53.0956 54.0461 53.1181C53.7631 53.1407 53.4899 53.2193 53.2476 53.3478C53.8346 52.926 54.3128 52.4022 54.6514 51.8103C54.8151 51.5118 54.8693 51.177 54.8066 50.851C54.7438 50.525 54.5672 50.2235 54.3004 49.9871C53.9916 49.8102 53.6342 49.7069 53.2645 49.6877C52.8948 49.6685 52.5258 49.734 52.1947 49.8778C51.1489 50.2667 50.3206 51.0324 49.2467 51.3545C48.1728 51.6766 46.9725 51.5186 45.8214 51.5611C44.5297 51.5811 43.2787 51.9556 42.2487 52.6307C41.371 53.2278 40.8029 54.1021 40.6694 55.0616C40.5314 54.8976 40.3788 54.7432 40.2131 54.5997C39.6672 54.0356 38.9308 53.6339 38.1074 53.4512C38.0583 53.5302 39.0199 53.992 39.9394 54.8185C40.1897 55.0259 40.4242 55.2472 40.6413 55.4809C39.0409 55.3108 37.2791 55.2986 36.0157 56.1616C35.5039 56.5566 35.0993 57.0448 34.8311 57.5912C34.5629 58.1375 34.4377 58.7285 34.4645 59.3217C34.4645 60.5007 35.026 61.625 35.4261 62.7553C35.5229 63.0756 35.6896 63.3768 35.9174 63.6426L36.5211 66.6812L38.718 66.6447L38.5777 60.2698C38.5777 60.2698 38.3531 57.5836 41.0203 57.8389C43.6876 58.0941 47.3375 60.6769 52.5176 60.0206C53.3675 59.9796 54.1956 59.7718 54.9392 59.4129C55.2991 59.2155 55.5916 58.9385 55.7866 58.6105C55.9815 58.2826 56.0718 57.9155 56.0482 57.5472C55.9971 57.1807 55.7814 56.8464 55.4477 56.6167C55.114 56.3869 54.6892 56.2802 54.2653 56.3196Z" fill="#263238"/>
<path d="M98.907 87.7822L99.2299 85.8496C99.5598 84.7925 99.7668 83.7094 99.8475 82.6166C99.9004 82.0733 99.8434 81.5263 99.6791 81C99.5135 80.3376 99.2393 79.6991 98.8649 79.1039C98.4578 78.5874 98.9912 77.8885 99.5668 78.1012C100.142 78.3139 101.343 79.6873 101.729 81.6685C102.115 83.6497 103.919 80.9028 104.592 79.9122C105.266 78.9216 107.533 75.9377 108.053 75.8769C108.811 75.7858 109.064 76.4847 108.355 77.4509C107.646 78.4172 105.779 81.4862 106.403 81.7657C106.871 81.7011 107.349 81.7218 107.807 81.8265C107.881 81.8453 107.946 81.8834 107.994 81.9357C108.042 81.9879 108.07 82.0517 108.074 82.1182C108.071 82.4248 108.109 82.7306 108.186 83.0298C108.186 83.0298 109.106 82.8475 109.295 83.1939C109.423 83.5497 109.483 83.9213 109.471 84.2939C109.471 84.2939 110.173 84.0872 110.51 84.2939C111.211 84.7861 110.313 85.6308 110.313 85.6308C108.246 87.7653 106.026 89.7849 103.666 91.6776L98.8298 87.6424" fill="#E5BAAB"/>
<path d="M107.905 83.1655C107.698 83.5411 107.421 83.8841 107.083 84.1804C106.803 84.4721 106.452 84.7881 106.038 85.171C105.822 85.3699 105.587 85.5528 105.336 85.7179C105.181 85.8244 104.994 85.8901 104.798 85.9073C104.601 85.9246 104.403 85.8926 104.227 85.8151C104.131 85.7664 104.049 85.6985 103.989 85.6171C103.93 85.5357 103.893 85.4432 103.883 85.3472C103.869 85.176 103.912 85.0049 104.009 84.8549C104.182 84.6293 104.369 84.4122 104.571 84.2047C104.929 83.8157 105.223 83.4511 105.469 83.1351C105.705 82.7778 105.975 82.4383 106.276 82.1202C106.159 82.5245 105.96 82.9073 105.687 83.2506C105.432 83.6413 105.15 84.0187 104.844 84.3809C104.658 84.5748 104.485 84.7777 104.325 84.9886C104.199 85.1892 104.206 85.4384 104.409 85.5295C104.524 85.5714 104.649 85.5861 104.772 85.5722C104.896 85.5583 105.013 85.5163 105.111 85.4505C105.344 85.2978 105.564 85.1313 105.771 84.9522C106.192 84.6119 106.557 84.2898 106.859 84.0163C107.173 83.7027 107.524 83.4176 107.905 83.1655Z" fill="#2972FF"/>
<path d="M109.132 84.4089C108.925 84.7332 108.66 85.0266 108.346 85.2779C108.029 85.572 107.683 85.8424 107.314 86.0862C107.092 86.2315 106.857 86.3615 106.612 86.4751C106.466 86.5384 106.31 86.5814 106.149 86.6027C106.051 86.6165 105.951 86.6122 105.856 86.5902C105.76 86.5682 105.671 86.529 105.594 86.4751C105.464 86.3591 105.382 86.2093 105.361 86.049C105.339 85.8886 105.379 85.7266 105.475 85.5879C105.617 85.3713 105.784 85.1677 105.973 84.9801C106.282 84.6702 106.57 84.3724 106.857 84.0746C107.37 83.5642 107.707 83.2664 107.749 83.2907C107.564 83.6243 107.328 83.935 107.047 84.2144L106.261 85.1807C106.095 85.3527 105.945 85.5355 105.812 85.7276C105.757 85.8051 105.732 85.8953 105.74 85.9856C105.748 86.076 105.787 86.1621 105.854 86.232C105.98 86.3353 106.247 86.2928 106.478 86.1956C106.709 86.0923 106.932 85.9766 107.145 85.8492C107.51 85.6239 107.859 85.3804 108.191 85.1199C108.47 84.8507 108.786 84.6119 109.132 84.4089Z" fill="#2972FF"/>
<path d="M109.42 86.1478C109.455 86.1478 109.42 86.4213 109.09 86.7556C108.99 86.859 108.867 86.9441 108.728 87.0056C108.59 87.0672 108.438 87.1041 108.283 87.1141C108.082 87.1156 107.886 87.0577 107.728 86.95C107.641 86.8869 107.572 86.8078 107.524 86.7185C107.477 86.6291 107.453 86.5318 107.455 86.4335C107.51 86.1237 107.655 85.8311 107.876 85.5827C108.024 85.3821 108.186 85.1893 108.36 85.0053C108.662 84.6893 108.879 84.5252 108.922 84.5556C108.964 84.586 108.809 84.7926 108.571 85.1633C108.43 85.376 108.29 85.5705 108.163 85.7711C107.994 85.9854 107.877 86.2273 107.82 86.4821C107.825 86.5853 107.876 86.6827 107.962 86.754C108.049 86.8253 108.163 86.8651 108.283 86.8649C108.516 86.8585 108.738 86.7786 108.907 86.6401C109.223 86.3484 109.371 86.1235 109.42 86.1478Z" fill="#2972FF"/>
<path d="M98.3795 85.2733C98.3795 85.2733 79.9684 100.959 77.3854 101.074C74.4374 101.196 65.3687 90.0621 65.3687 90.0621C59.5639 82.3076 51.9061 81.0557 49.1125 80.8612V79.901L35.3901 78.9287C35.3901 78.9287 35.3901 79.9496 35.3901 80.843H29.3327C29.3327 80.843 18.4531 80.4115 16.8246 93.0642L24.6439 98.4182L27.8516 108.749C28.9677 112.347 24.9808 118.078 23.0787 127.358C22.7853 128.905 23.0835 130.492 23.928 131.879L63.5508 135.823L61.445 109.594L60.8063 103.517C64.0702 107.376 69.9311 112.833 77.1116 112.712C89.36 112.511 106.374 90.2262 106.374 90.2262L98.3795 85.2733Z" fill="#E0E0E0"/>
<path d="M44.494 79.7266C44.5621 80.2658 44.5621 80.8099 44.494 81.3492C44.3917 82.6993 44.1806 84.0415 43.8623 85.3662L43.8132 85.5667L43.6026 85.4695C43.1253 85.2507 42.6269 85.0198 42.1216 84.7646C40.1562 83.7618 38.4787 82.7287 37.2082 82.0116C36.5224 81.6502 35.8614 81.2545 35.2288 80.8265C35.4389 80.8797 35.6396 80.9574 35.8254 81.0575C36.1904 81.2337 36.7169 81.4889 37.3486 81.8232C38.6261 82.4917 40.3247 83.5005 42.262 84.4911C42.7533 84.7402 43.2446 84.9773 43.7219 85.196L43.4622 85.2993C43.8693 83.7314 44.0659 82.3276 44.2133 81.3309C44.2692 80.7917 44.363 80.2559 44.494 79.7266Z" fill="#2972FF"/>
<path d="M49.1554 80.9238C49.0672 81.4458 48.9358 81.9617 48.7623 82.4674C48.6289 82.9475 48.4886 83.5187 48.2499 84.1386C48.1257 84.4663 47.978 84.787 47.8077 85.0988C47.7586 85.2106 47.6702 85.3063 47.555 85.3723C47.4751 85.4147 47.3809 85.4325 47.2878 85.4225C47.1947 85.4126 47.1083 85.3756 47.0426 85.3176C46.9111 85.1497 46.8049 84.9679 46.7268 84.7767C46.0249 83.3972 45.4703 82.1453 45.0632 81.2276C44.8072 80.7469 44.6119 80.2436 44.4807 79.7266C44.8085 80.1735 45.0836 80.6479 45.3019 81.1425C45.7722 82.0359 46.3969 83.2756 47.0637 84.6552C47.1284 84.8087 47.2083 84.9571 47.3023 85.0988C47.3374 85.0988 47.3023 85.0988 47.3655 85.0988C47.4183 85.0617 47.4594 85.0136 47.4848 84.959C47.6528 84.6601 47.8027 84.3538 47.934 84.0414C48.1797 83.4337 48.3482 82.8745 48.5096 82.4066C48.6492 81.89 48.8663 81.3915 49.1554 80.9238Z" fill="#2972FF"/>
<path d="M46.5987 123.368C46.5652 123.226 46.5464 123.082 46.5426 122.937C46.5426 122.621 46.5145 122.216 46.4583 121.721C46.4022 120.603 46.318 119.054 46.2197 117.151C46.0512 113.262 45.8126 107.944 45.5599 102.074C45.3072 96.2033 45.1458 90.8858 45.0054 86.9964C44.9562 85.0882 44.9141 83.5385 44.879 82.4203C44.879 81.9098 44.879 81.4965 44.879 81.2048C44.8609 81.0594 44.8609 80.9127 44.879 80.7673C44.9114 80.9094 44.9278 81.0539 44.9282 81.1987C44.9282 81.5148 44.9843 81.928 45.0194 82.4142C45.0756 83.5263 45.1598 85.076 45.2581 86.9782C45.4265 90.8676 45.6582 96.1851 45.9179 102.056C46.1776 107.926 46.325 113.244 46.4724 117.139C46.5215 119.041 46.5636 120.591 46.5987 121.709C46.5987 122.226 46.5987 122.639 46.5987 122.955C46.6152 123.093 46.6152 123.231 46.5987 123.368Z" fill="#2972FF"/>
<path d="M44.1014 83.5675L45.2525 86.3144L46.2422 83.367L44.705 80.4134L44.1014 83.5675Z" fill="#2972FF"/>
<path d="M45.4634 85.4991L44.7053 116.42L50.096 126.18L52.2228 115.198L45.4634 85.4991Z" fill="#0D182A"/>
<path d="M77.5816 104.894C77.5816 104.894 77.5816 104.985 77.5816 105.137L77.5395 105.368L77.4202 105.137C77.1486 104.523 76.9922 103.874 76.9569 103.217C76.8408 102.484 76.9423 101.737 77.2517 101.047C77.357 101.047 77.2517 102.02 77.3219 103.199C77.3781 104.037 77.5325 104.755 77.5816 105.101H77.4202C77.4834 104.937 77.5536 104.894 77.5816 104.894Z" fill="#2972FF"/>
<path d="M79.1614 104.795C78.6379 104.32 78.2487 103.745 78.0244 103.118C77.6866 102.538 77.502 101.901 77.4839 101.252C77.8412 101.817 78.1327 102.412 78.3543 103.027C78.689 103.592 78.9593 104.184 79.1614 104.795Z" fill="#2972FF"/>
<path d="M105.223 91.6974C103.705 91.0021 102.246 90.2141 100.857 89.3395C99.4018 88.553 98.0132 87.6777 96.7018 86.7202C98.2192 87.421 99.6781 88.213 101.068 89.0903C102.522 89.8729 103.911 90.7441 105.223 91.6974Z" fill="#2972FF"/>
<path d="M28.6935 96.6663C28.6935 96.6663 25.7736 114.29 27.1563 115.275C34.7931 120.835 45.406 123.752 49.1963 124.67C49.7508 124.555 50.3966 124.403 51.1406 124.196C51.7855 124.019 52.3908 123.747 52.9305 123.394C53.6195 122.975 54.2384 122.476 54.7695 121.911C54.8497 121.79 54.9714 121.693 55.1178 121.634C55.2643 121.575 55.4282 121.557 55.587 121.583C55.7457 121.608 55.8914 121.676 56.004 121.776C56.1166 121.876 56.1905 122.004 56.2154 122.142C56.2505 122.75 55.1274 124.311 53.0147 125.454C53.0147 125.454 57.8789 132.23 59.4301 132.844C60.9814 133.458 65.4174 135.184 64.6664 135.512C63.9153 135.84 58.5177 134.485 58.5177 134.485L47.5679 131.95C47.5679 131.95 11.3493 127.034 13.7569 112.649C15.2379 103.831 16.8523 95.8884 17.4349 93.8769L28.6935 96.6663Z" fill="#E5BAAB"/>
<path d="M16.8248 93.0547L13.6101 112.265C12.859 118.178 17.4355 122.875 23.5912 125.519C32.9617 129.536 46.8736 132.405 46.7542 132.386C46.6349 132.368 47.6948 123.811 47.6948 123.811C47.6948 123.811 28.1887 116.519 27.5781 113.359C26.9674 110.198 30.0558 97.0717 30.0558 97.0717L16.8248 93.0547Z" fill="#E0E0E0"/>
<path d="M46.7254 132.388C46.7181 132.338 46.7181 132.287 46.7254 132.237C46.7254 132.115 46.7254 131.969 46.7605 131.793C46.7956 131.374 46.8447 130.808 46.9149 130.085C47.0623 128.578 47.2799 126.439 47.5396 123.807L47.6168 123.917L37.7901 119.803L34.9825 118.587C34.0349 118.15 33.0803 117.67 32.1327 117.141C31.1713 116.604 30.2478 116.017 29.3672 115.385C28.925 115.062 28.4828 114.722 28.0616 114.364C27.8242 114.183 27.6329 113.962 27.5001 113.713C27.4257 113.593 27.3713 113.464 27.3387 113.33C27.2926 113.204 27.2597 113.073 27.2404 112.941C26.9245 110.839 27.5703 108.858 27.9423 106.968C28.3143 105.078 28.6863 103.236 29.0373 101.498C29.7392 98.0098 30.3779 94.874 30.9114 92.2243C31.1994 91.0505 31.3639 89.8565 31.4027 88.657C31.4163 87.7544 31.2006 86.8602 30.771 86.0378C30.4954 85.5188 30.1042 85.0521 29.6199 84.6643C29.283 84.403 29.0794 84.2997 29.0864 84.2814C29.2952 84.3725 29.4908 84.4847 29.669 84.6157C30.1844 84.9921 30.6028 85.4579 30.8973 85.9831C31.358 86.8181 31.5978 87.7316 31.5993 88.657C31.5836 89.8677 31.4355 91.0743 31.1571 92.2608C30.6447 94.9165 30.034 98.0584 29.3602 101.553C29.0162 103.297 28.6583 105.132 28.2862 107.022C28.195 107.496 28.0967 107.976 27.9985 108.463C27.9002 108.949 27.7949 109.423 27.7177 109.909C27.5331 110.891 27.5024 111.891 27.6265 112.881C27.6487 113.002 27.6791 113.121 27.7177 113.239C27.7453 113.356 27.7926 113.469 27.8581 113.574C27.9737 113.788 28.1413 113.979 28.3494 114.133C28.7635 114.485 29.1917 114.819 29.6269 115.135C30.4958 115.762 31.4076 116.342 32.3573 116.873C33.2909 117.402 34.2314 117.876 35.165 118.314L37.9726 119.529L47.7221 123.735L47.7993 123.771V123.844C47.4835 126.475 47.2308 128.608 47.0553 130.116C46.957 130.833 46.8868 131.404 46.8307 131.817C46.8026 131.995 46.7816 132.141 46.7675 132.255C46.7585 132.3 46.7444 132.345 46.7254 132.388Z" fill="#2972FF"/>
<path d="M44.9149 122.639C44.9358 123.079 44.8957 123.52 44.7956 123.952C44.6763 124.754 44.4798 125.86 44.22 127.075C43.9603 128.291 43.6655 129.385 43.4269 130.169C43.3306 130.601 43.1677 131.02 42.9426 131.414C42.967 130.975 43.0447 130.539 43.1742 130.114C43.3801 129.198 43.6141 128.165 43.8761 127.015C44.1217 125.539 44.4686 124.078 44.9149 122.639Z" fill="#2972FF"/>
<path d="M46.7253 132.388C46.6084 132.388 46.4924 132.371 46.3814 132.34L45.4198 132.139L41.9102 131.337C38.9412 130.644 34.8139 129.732 30.3919 128.329C28.311 127.67 26.2847 126.888 24.3274 125.989C22.7284 125.252 21.2024 124.403 19.765 123.449C18.7951 122.806 17.8803 122.103 17.0275 121.346C16.7257 121.078 16.5081 120.866 16.3256 120.738C16.2421 120.666 16.1711 120.585 16.1151 120.495C16.1151 120.495 16.466 120.781 17.0977 121.285C17.9876 122.002 18.9251 122.674 19.9054 123.297C21.3569 124.201 22.8816 125.013 24.4678 125.728C26.4202 126.606 28.4366 127.373 30.5042 128.025C34.8981 129.422 39.0184 130.364 41.9664 131.118L45.4759 132.011L46.4235 132.273C46.5294 132.3 46.6309 132.339 46.7253 132.388Z" fill="#2972FF"/>
<path d="M46.9647 124.698C46.9689 124.806 46.9356 124.913 46.8691 125.006C46.8026 125.098 46.7059 125.171 46.5913 125.215C46.4767 125.259 46.3495 125.273 46.2258 125.255C46.1021 125.236 45.9876 125.186 45.8968 125.111C45.8061 125.036 45.7433 124.939 45.7164 124.833C45.6894 124.727 45.6997 124.616 45.7457 124.515C45.7918 124.414 45.8715 124.327 45.9749 124.265C46.0783 124.204 46.2005 124.17 46.326 124.169C46.4912 124.167 46.6505 124.222 46.7699 124.32C46.8893 124.419 46.9593 124.555 46.9647 124.698Z" fill="#2972FF"/>
</svg>
