<svg width="234" height="229" viewBox="0 0 234 229" fill="none" xmlns="http://www.w3.org/2000/svg">
<path d="M174.581 53.1513C154.583 35.6763 127.513 53.1513 101.213 89.9253C74.9132 126.699 62.4077 111.223 40.0506 127.431C17.6935 143.639 11.7138 210.033 90.4823 203.578C169.251 197.124 226.858 98.772 174.581 53.1513Z" fill="#F0F0F0"/>
<path d="M198.866 228.857C198.866 228.934 160.945 228.999 114.183 228.999C67.4208 228.999 29.4836 228.934 29.4836 228.857C29.4836 228.781 67.399 228.715 114.183 228.715C160.967 228.715 198.866 228.786 198.866 228.857Z" fill="#263238"/>
<path d="M161.917 162.004C153.48 156.112 151.568 145.174 151.901 135.338C151.956 133.7 151.776 131.964 152.557 130.527C153.338 129.091 155.162 128.103 156.631 128.791C157.848 129.364 158.378 130.784 159.061 131.958C159.972 133.522 161.306 134.796 162.911 135.633C163.954 136.179 165.248 136.507 166.28 135.939C167.7 135.158 167.864 133.209 167.853 131.57C167.853 128.523 167.835 125.48 167.798 122.44C167.7 120.807 167.866 119.17 168.29 117.59C168.798 116.039 169.928 114.603 171.473 114.166C173.019 113.73 174.947 114.631 175.296 116.225C175.356 116.901 175.373 117.579 175.345 118.257C175.389 118.939 175.706 119.687 176.345 119.895C176.984 120.102 177.65 119.627 178.141 119.147C179.823 117.508 180.97 115.373 182.035 113.265C183.1 111.157 184.143 108.989 185.672 107.193C187.201 105.396 189.314 103.971 191.679 103.834C194.044 103.698 196.506 105.15 197.096 107.444C197.686 109.738 196.348 112.08 194.912 113.942C192.745 116.707 190.19 119.144 187.327 121.178C186.768 121.483 186.322 121.96 186.054 122.538C185.699 123.63 186.731 124.722 187.807 125.066C189.025 125.471 190.346 125.345 191.63 125.498C192.913 125.651 194.278 126.208 194.764 127.409C195.431 129.08 194.033 130.828 192.662 131.975C189.91 134.268 186.784 136.073 183.422 137.31C182.221 137.747 180.959 138.134 179.987 138.975C179.015 139.816 178.436 141.285 179.02 142.438C179.605 143.59 181.107 143.956 182.368 143.721C183.63 143.486 184.749 142.809 185.95 142.356C188.195 141.509 191.089 141.662 192.504 143.601C192.942 144.269 193.219 145.029 193.314 145.822C193.409 146.615 193.318 147.419 193.05 148.172C192.503 149.669 191.662 151.041 190.576 152.207C186.999 156.481 182.352 159.728 177.109 161.617C171.905 163.419 167.083 163.91 161.911 162.015" fill="#2972FF"/>
<path d="M194.693 105.183C194.693 105.183 194.644 105.238 194.535 105.336L194.049 105.767C193.623 106.15 192.995 106.707 192.203 107.444C189.958 109.529 187.873 111.779 185.967 114.177C184.749 115.69 183.488 117.405 182.144 119.267C180.801 121.129 179.414 123.139 178.038 125.274C176.57 127.526 175.227 129.855 174.013 132.253C173.379 133.504 172.822 134.809 172.249 136.141L170.556 140.21C168.325 145.334 166.381 150.579 164.735 155.921C163.408 160.291 162.494 164.776 162.004 169.316C161.687 172.381 161.635 175.467 161.851 178.54C161.939 179.632 162.021 180.468 162.097 181.036C162.13 181.309 162.152 181.527 162.173 181.685V181.909C162.15 181.838 162.133 181.765 162.124 181.691C162.097 181.533 162.064 181.32 162.021 181.047C161.922 180.5 161.819 179.638 161.72 178.545C161.457 175.467 161.475 172.37 161.775 169.295C162.235 164.735 163.129 160.229 164.445 155.839C166.078 150.482 168.016 145.224 170.25 140.089L171.987 136.037C172.56 134.71 173.123 133.394 173.762 132.138C174.984 129.733 176.339 127.398 177.819 125.143C179.217 122.959 180.626 120.982 181.953 119.136C183.28 117.29 184.563 115.564 185.776 114.057C187.702 111.666 189.814 109.43 192.094 107.373C192.902 106.647 193.547 106.101 193.983 105.735L194.491 105.325C194.554 105.271 194.621 105.223 194.693 105.183Z" fill="#263238"/>
<path d="M173.833 132.127C173.756 131.902 173.702 131.67 173.674 131.434C173.587 130.981 173.489 130.342 173.374 129.512C173.139 127.873 172.899 125.629 172.642 123.144C172.385 120.659 172.096 118.41 171.856 116.788C171.73 115.979 171.621 115.33 171.544 114.876C171.485 114.644 171.454 114.406 171.452 114.166C171.546 114.385 171.614 114.614 171.654 114.849C171.774 115.297 171.91 115.941 172.063 116.755C172.375 118.393 172.68 120.621 172.937 123.111C173.194 125.602 173.412 127.786 173.581 129.484C173.663 130.249 173.734 130.899 173.789 131.418C173.831 131.652 173.846 131.89 173.833 132.127Z" fill="#263238"/>
<path d="M194.846 128.206C194.581 128.264 194.31 128.297 194.038 128.305C193.492 128.354 192.717 128.419 191.755 128.529C189.833 128.736 187.19 129.118 184.29 129.665C181.391 130.211 178.786 130.828 176.913 131.303C175.979 131.543 175.225 131.762 174.728 131.909C174.463 132.003 174.188 132.069 173.909 132.106C174.161 131.979 174.425 131.875 174.695 131.794C175.209 131.614 175.951 131.363 176.88 131.095C178.742 130.549 181.347 129.899 184.258 129.342C186.723 128.871 189.211 128.525 191.712 128.305C192.678 128.223 193.459 128.19 194.005 128.179C194.286 128.16 194.568 128.169 194.846 128.206Z" fill="#263238"/>
<path d="M164.713 155.457C164.655 155.378 164.607 155.291 164.571 155.2L164.21 154.441C163.899 153.78 163.479 152.803 162.976 151.607C161.96 149.204 160.666 145.84 159.29 142.105C157.914 138.369 156.647 135.005 155.686 132.575C155.216 131.396 154.828 130.429 154.539 129.708L154.233 128.927C154.191 128.837 154.161 128.742 154.146 128.643C154.204 128.722 154.252 128.809 154.288 128.9L154.648 129.659C154.954 130.32 155.38 131.297 155.882 132.493C156.898 134.896 158.192 138.26 159.569 141.995C160.945 145.731 162.212 149.095 163.173 151.525C163.642 152.704 164.03 153.671 164.314 154.392C164.44 154.703 164.544 154.938 164.625 155.173C164.668 155.263 164.697 155.358 164.713 155.457Z" fill="#263238"/>
<path d="M192.607 146.462C192.52 146.513 192.426 146.551 192.329 146.577L191.521 146.85L188.533 147.817C186.011 148.636 182.526 149.805 178.704 151.093C174.881 152.382 171.381 153.529 168.841 154.293C167.574 154.681 166.542 154.976 165.827 155.173L165.002 155.386C164.906 155.416 164.808 155.436 164.707 155.446C164.795 155.395 164.888 155.357 164.986 155.331L165.794 155.058L168.781 154.091C171.304 153.272 174.788 152.104 178.611 150.815C182.434 149.526 185.929 148.379 188.468 147.615C189.74 147.227 190.767 146.932 191.488 146.735L192.312 146.522C192.408 146.492 192.507 146.472 192.607 146.462Z" fill="#263238"/>
<path d="M181.227 13.9964L178.414 15.0012L177.207 11.326C174.99 4.54896 167.924 0.950201 161.431 3.23834C154.938 5.52647 151.481 12.9588 153.698 19.7358L154.905 23.411L152.082 24.4213C151.005 24.8389 150.131 25.6553 149.641 26.7008C149.15 27.7463 149.082 28.9405 149.45 30.0352L157.275 53.9486C157.437 54.4905 157.707 54.9942 158.068 55.4299C158.429 55.8655 158.874 56.2241 159.376 56.4844C159.878 56.7447 160.428 56.9014 160.992 56.9452C161.556 56.9889 162.123 56.9189 162.66 56.7392L191.805 46.3142C192.895 45.8974 193.782 45.0738 194.278 44.0166C194.774 42.9594 194.841 41.7511 194.464 40.6458L186.633 16.7323C186.466 16.1919 186.193 15.6907 185.828 15.2584C185.463 14.8262 185.015 14.4718 184.511 14.2164C184.006 13.9611 183.455 13.81 182.891 13.7722C182.327 13.7344 181.761 13.8106 181.227 13.9964ZM159.012 17.819C158.414 16.0569 158.521 14.1318 159.311 12.447C160.101 10.7623 161.512 9.44858 163.249 8.78119C164.107 8.48774 165.015 8.37006 165.919 8.43518C166.823 8.5003 167.705 8.74688 168.512 9.16022C169.319 9.57355 170.034 10.1452 170.615 10.841C171.196 11.5367 171.631 12.3425 171.894 13.21L173.095 16.8852L160.213 21.4943L159.012 17.819ZM175.394 39.0403L177.393 45.1456C177.43 45.268 177.418 45.3999 177.36 45.5138C177.302 45.6277 177.202 45.7148 177.082 45.7572L174.28 46.7566C174.169 46.7875 174.05 46.774 173.948 46.7191C173.846 46.6641 173.77 46.5719 173.734 46.4617L171.719 40.3836C170.608 40.3231 169.542 39.9246 168.664 39.2414C167.785 38.5582 167.137 37.623 166.804 36.561C166.329 35.1569 166.416 33.6236 167.046 32.282C167.676 30.9404 168.801 29.8946 170.185 29.3635C170.868 29.13 171.591 29.0365 172.311 29.0886C173.031 29.1406 173.734 29.337 174.376 29.6662C175.019 29.9954 175.589 30.4506 176.052 31.0047C176.515 31.5588 176.861 32.2004 177.071 32.8912C177.422 33.9701 177.451 35.128 177.155 36.2231C176.858 37.3182 176.248 38.3029 175.4 39.0566L175.394 39.0403Z" fill="#2972FF"/>
<path d="M178.289 14.9357C178.289 15.0121 173.074 16.9726 166.586 19.3044C160.098 21.6362 154.807 23.5093 154.779 23.4547C154.752 23.4001 159.995 21.4233 166.488 19.086C172.981 16.7487 178.261 14.8647 178.289 14.9357Z" fill="#263238"/>
<path d="M184.481 15.9405C184.506 15.9879 184.526 16.0372 184.541 16.0879C184.585 16.1971 184.634 16.3391 184.7 16.5139C184.842 16.9125 185.038 17.4641 185.284 18.1522L187.381 24.2575C188.255 26.846 189.298 29.915 190.456 33.3227C191.002 35.0319 191.646 36.8122 192.247 38.6853C192.568 39.6505 192.707 40.6672 192.656 41.6834C192.61 42.2118 192.46 42.7259 192.214 43.196C191.952 43.6646 191.601 44.0781 191.182 44.4138C190.338 45.0297 189.402 45.5071 188.408 45.8282L185.595 46.8385L180.271 48.7443L171.255 51.9554L165.166 54.0961L163.528 54.6422L163.091 54.7841C163.044 54.8049 162.994 54.8178 162.943 54.8224C162.943 54.8224 162.987 54.8224 163.08 54.7568L163.506 54.5876L165.144 53.9705L171.2 51.7424L180.2 48.4658L185.514 46.5436L188.326 45.5279C189.292 45.2198 190.201 44.7569 191.018 44.1572C191.408 43.8456 191.735 43.4618 191.979 43.0267C192.211 42.5919 192.35 42.1142 192.389 41.6233C192.439 40.6442 192.306 39.6644 191.996 38.7344C191.406 36.8777 190.783 35.0811 190.221 33.3718C189.085 29.9587 188.036 26.8787 187.206 24.2903C186.376 21.7018 185.677 19.6212 185.197 18.1576C184.967 17.4422 184.793 16.8852 184.651 16.4811L184.52 16.0442C184.503 16.0111 184.49 15.9764 184.481 15.9405Z" fill="#263238"/>
<path d="M169.103 8.40984C169.103 8.40984 168.814 8.26786 168.279 8.04942C167.516 7.75632 166.709 7.59386 165.892 7.56886C164.682 7.52734 163.477 7.75489 162.365 8.2351C161.012 8.83305 159.856 9.80024 159.028 11.0256C158.195 12.2475 157.748 13.6915 157.745 15.1705C157.756 16.3827 157.94 17.5871 158.291 18.7474C158.575 19.7413 158.87 20.5331 159.066 21.0847C159.182 21.3648 159.277 21.6532 159.35 21.9475C159.195 21.6856 159.065 21.4095 158.962 21.1229C158.739 20.5768 158.416 19.8014 158.1 18.802C157.711 17.6295 157.499 16.4055 157.472 15.1705C157.457 13.6356 157.915 12.1334 158.782 10.8673C159.639 9.59711 160.843 8.60002 162.25 7.99481C163.397 7.51197 164.639 7.29898 165.881 7.37227C166.716 7.4148 167.536 7.6091 168.301 7.94566C168.505 8.04001 168.702 8.14953 168.89 8.27332C168.968 8.30745 169.04 8.35351 169.103 8.40984Z" fill="#263238"/>
<path d="M169.355 29.7785C169.442 29.7257 169.533 29.68 169.628 29.642C169.901 29.5186 170.184 29.4182 170.474 29.3416C170.934 29.2058 171.409 29.1251 171.888 29.1013C172.54 29.0663 173.193 29.1648 173.805 29.3908C175.203 29.8823 176.487 31.3076 177.12 33.2134C177.424 34.2362 177.424 35.3252 177.12 36.348C176.783 37.4581 176.179 38.4687 175.362 39.2915L175.394 39.144C176.121 41.1373 176.913 43.2998 177.732 45.5552L177.781 45.6917L177.644 45.7408L176.394 46.1559L173.663 47.0678L173.527 47.1115L173.483 46.975C172.735 44.7142 171.916 42.6062 171.299 40.5366L171.419 40.6294C170.351 40.5407 169.333 40.14 168.492 39.4771C167.73 38.8907 167.106 38.1453 166.662 37.2928C166.262 36.5368 166.063 35.6905 166.084 34.8353C166.109 33.9613 166.327 33.1036 166.723 32.3238C167.118 31.544 167.681 30.8613 168.372 30.3246C168.656 30.0939 168.975 29.9096 169.316 29.7785C169.008 29.9615 168.709 30.1602 168.421 30.3737C167.662 31.0153 167.081 31.8408 166.733 32.7711C166.435 33.4726 166.295 34.2316 166.324 34.9936C166.353 35.7555 166.551 36.5015 166.903 37.1781C167.339 37.9982 167.948 38.7137 168.688 39.2751C169.491 39.9051 170.462 40.285 171.479 40.3673H171.572L171.599 40.4492C172.2 42.4807 173.024 44.605 173.783 46.8767L173.603 46.7893L176.334 45.8774L177.579 45.4569L177.491 45.6425C176.678 43.3872 175.891 41.2192 175.171 39.2259V39.144L175.236 39.0785C176.03 38.2899 176.622 37.3214 176.962 36.2552C177.251 35.2768 177.251 34.2355 176.962 33.2571C176.366 31.4222 175.138 30.0297 173.805 29.5382C173.215 29.3108 172.586 29.2049 171.954 29.2269C171.482 29.2378 171.013 29.3019 170.556 29.4181C169.742 29.6201 169.36 29.8058 169.355 29.7785Z" fill="#263238"/>
<path d="M152.475 187.458L97.9256 187.206C94.7754 187.189 91.7609 185.922 89.5441 183.684C87.3273 181.446 86.0896 178.419 86.1026 175.269L86.6815 38.5215C86.6879 36.9608 87.0019 35.4166 87.6054 33.9773C88.209 32.538 89.0903 31.2318 90.1989 30.1333C91.3076 29.0347 92.6219 28.1655 94.0667 27.5752C95.5115 26.9849 97.0584 26.6852 98.6191 26.6931L153.163 26.9443C156.313 26.9602 159.328 28.2257 161.546 30.463C163.764 32.7002 165.003 35.7262 164.991 38.8764L164.413 175.618C164.406 177.18 164.092 178.724 163.489 180.164C162.885 181.604 162.004 182.911 160.896 184.01C159.787 185.11 158.473 185.98 157.028 186.572C155.583 187.163 154.036 187.464 152.475 187.458Z" fill="#455A64"/>
<path d="M153.081 31.6461H142.509C142.164 31.6525 141.823 31.7268 141.507 31.8648C141.191 32.0027 140.905 32.2016 140.666 32.4501C140.426 32.6986 140.238 32.9918 140.112 33.313C139.986 33.6342 139.925 33.977 139.931 34.322V36.2388C139.938 36.5835 139.876 36.9261 139.75 37.247C139.624 37.5678 139.436 37.8607 139.196 38.1087C138.957 38.3568 138.671 38.5552 138.355 38.6925C138.039 38.8299 137.698 38.9035 137.354 38.9092L116.744 38.8164C116.047 38.7978 115.385 38.5032 114.905 37.9974C114.425 37.4916 114.165 36.8159 114.183 36.1187V34.2019C114.2 33.5056 113.941 32.8306 113.462 32.325C112.983 31.8193 112.323 31.5242 111.627 31.5042H107.908L98.6519 31.4605C96.4503 31.4474 94.3332 32.3072 92.7641 33.8517C91.1951 35.3962 90.3019 37.4995 90.2803 39.701L89.7342 173.177C89.7292 174.27 89.9393 175.352 90.3527 176.363C90.766 177.374 91.3744 178.294 92.1432 179.07C92.9119 179.845 93.826 180.462 94.8331 180.885C95.8403 181.307 96.9208 181.528 98.013 181.533L152.448 181.784C153.541 181.789 154.624 181.578 155.635 181.165C156.647 180.751 157.567 180.142 158.344 179.373C159.12 178.604 159.737 177.689 160.16 176.681C160.583 175.674 160.803 174.592 160.808 173.5L161.354 40.0232C161.368 37.8154 160.503 35.6928 158.952 34.122C157.401 32.5511 155.289 31.6606 153.081 31.6461Z" fill="white"/>
<path d="M145.758 163.976L105.282 163.801C104.861 163.801 104.522 163.342 104.528 162.785L104.572 152.196C104.572 151.65 104.916 151.181 105.336 151.181L145.813 151.366C146.046 151.407 146.254 151.535 146.394 151.726C146.535 151.916 146.596 152.153 146.566 152.388L146.528 162.965C146.528 163.528 146.178 163.981 145.758 163.976Z" fill="#2972FF"/>
<path d="M118.765 162.376C118.342 162.376 117.936 162.308 117.546 162.172C117.161 162.031 116.863 161.852 116.651 161.636L116.887 161.172C117.087 161.367 117.356 161.533 117.692 161.668C118.033 161.798 118.391 161.863 118.765 161.863C119.123 161.863 119.413 161.82 119.635 161.733C119.863 161.641 120.028 161.519 120.131 161.367C120.24 161.215 120.294 161.047 120.294 160.863C120.294 160.641 120.229 160.462 120.099 160.326C119.974 160.191 119.809 160.085 119.603 160.009C119.397 159.928 119.169 159.858 118.92 159.798C118.67 159.738 118.421 159.676 118.172 159.611C117.922 159.54 117.692 159.448 117.48 159.334C117.274 159.221 117.106 159.071 116.976 158.887C116.852 158.697 116.789 158.451 116.789 158.147C116.789 157.865 116.863 157.608 117.009 157.375C117.161 157.136 117.391 156.947 117.7 156.806C118.009 156.659 118.405 156.586 118.887 156.586C119.207 156.586 119.524 156.632 119.839 156.724C120.153 156.811 120.424 156.933 120.652 157.09L120.448 157.57C120.204 157.407 119.944 157.288 119.668 157.212C119.397 157.136 119.134 157.098 118.879 157.098C118.538 157.098 118.256 157.144 118.033 157.237C117.811 157.329 117.646 157.453 117.537 157.611C117.434 157.762 117.383 157.936 117.383 158.131C117.383 158.353 117.445 158.532 117.57 158.668C117.7 158.803 117.868 158.909 118.074 158.985C118.285 159.061 118.516 159.128 118.765 159.188C119.015 159.248 119.261 159.313 119.505 159.383C119.755 159.454 119.982 159.546 120.188 159.66C120.4 159.768 120.568 159.914 120.692 160.099C120.822 160.283 120.887 160.524 120.887 160.822C120.887 161.099 120.812 161.356 120.66 161.595C120.508 161.828 120.275 162.018 119.961 162.164C119.652 162.305 119.253 162.376 118.765 162.376ZM122.199 162.327V156.635H122.8V162.327H122.199ZM124.652 162.327V156.635H125.148L129.076 161.579H128.815V156.635H129.409V162.327H128.913L124.994 157.383H125.254V162.327H124.652ZM119.692 172.376C119.259 172.376 118.857 172.305 118.489 172.164C118.126 172.018 117.808 171.814 117.537 171.554C117.272 171.294 117.063 170.988 116.911 170.635C116.765 170.283 116.692 169.898 116.692 169.481C116.692 169.063 116.765 168.678 116.911 168.326C117.063 167.974 117.274 167.667 117.546 167.407C117.817 167.147 118.134 166.947 118.497 166.806C118.866 166.659 119.267 166.586 119.7 166.586C120.134 166.586 120.53 166.654 120.887 166.789C121.251 166.925 121.56 167.131 121.814 167.407L121.44 167.789C121.202 167.551 120.939 167.38 120.652 167.277C120.364 167.174 120.055 167.123 119.725 167.123C119.372 167.123 119.047 167.182 118.749 167.302C118.456 167.415 118.199 167.581 117.976 167.798C117.76 168.009 117.589 168.258 117.464 168.546C117.345 168.828 117.285 169.139 117.285 169.481C117.285 169.817 117.345 170.129 117.464 170.416C117.589 170.703 117.76 170.955 117.976 171.172C118.199 171.383 118.456 171.549 118.749 171.668C119.047 171.782 119.37 171.839 119.717 171.839C120.042 171.839 120.348 171.79 120.635 171.692C120.928 171.595 121.196 171.43 121.44 171.196L121.782 171.652C121.511 171.89 121.194 172.072 120.831 172.197C120.467 172.316 120.088 172.376 119.692 172.376ZM121.205 171.579V169.481H121.782V171.652L121.205 171.579ZM119.489 182.376C118.763 182.376 118.191 182.167 117.773 181.749C117.356 181.332 117.147 180.714 117.147 179.895V176.635H117.749V179.871C117.749 180.543 117.901 181.039 118.204 181.359C118.508 181.679 118.936 181.839 119.489 181.839C120.047 181.839 120.478 181.679 120.782 181.359C121.085 181.039 121.237 180.543 121.237 179.871V176.635H121.823V179.895C121.823 180.714 121.614 181.332 121.196 181.749C120.784 182.167 120.215 182.376 119.489 182.376ZM123.636 182.327V176.635H125.766C126.249 176.635 126.663 176.713 127.01 176.871C127.357 177.022 127.623 177.245 127.807 177.537C127.997 177.825 128.092 178.174 128.092 178.586C128.092 178.987 127.997 179.334 127.807 179.627C127.623 179.914 127.357 180.137 127.01 180.294C126.663 180.451 126.249 180.53 125.766 180.53H123.969L124.238 180.245V182.327H123.636ZM124.238 180.294L123.969 180.001H125.75C126.319 180.001 126.75 179.879 127.043 179.635C127.341 179.386 127.49 179.036 127.49 178.586C127.49 178.131 127.341 177.779 127.043 177.529C126.75 177.28 126.319 177.155 125.75 177.155H123.969L124.238 176.871V180.294Z" fill="#E8E8E3"/>
<path d="M113.355 70.8831L99.3096 70.8194L99.2979 73.3969L113.343 73.4606L113.355 70.8831Z" fill="#2972FF"/>
<path opacity="0.1" d="M113.355 70.8831L99.3096 70.8194L99.2979 73.3969L113.343 73.4606L113.355 70.8831Z" fill="black"/>
<path d="M154.528 86.7088C154.638 86.6976 154.747 86.6719 154.85 86.6323C155.002 86.5733 155.133 86.4727 155.23 86.3423C155.326 86.2119 155.384 86.0569 155.396 85.8951C155.396 85.0268 155.396 83.7599 155.396 82.1325C155.396 81.3188 155.396 80.4069 155.396 79.4021C155.396 79.1563 155.396 78.8997 155.396 78.643C155.432 78.3939 155.378 78.1403 155.244 77.9276C155.168 77.8256 155.071 77.7424 154.958 77.6846C154.845 77.6268 154.72 77.596 154.594 77.5945H153.742H145.851L100.175 77.4252C100.059 77.4232 99.9429 77.4495 99.8383 77.5018C99.7337 77.5541 99.6433 77.6308 99.5748 77.7256C99.4429 77.9392 99.3925 78.1932 99.4328 78.4409C99.4328 78.987 99.4328 79.5331 99.4328 80.0792C99.4328 81.1714 99.4328 82.2636 99.4328 83.3558C99.4328 83.9019 99.4328 84.448 99.4328 84.9941C99.4101 85.2484 99.4101 85.5043 99.4328 85.7586C99.4615 85.8676 99.5148 85.9686 99.5886 86.0538C99.6625 86.1391 99.7549 86.2062 99.8587 86.2501C99.9663 86.2929 100.082 86.3134 100.197 86.3102H102.977L115.106 86.3757L135.639 86.5013L149.482 86.6105L153.245 86.6542H154.222C154.446 86.6542 154.555 86.6542 154.555 86.6542H154.222H153.245H149.482H135.639L115.106 86.5887L102.977 86.5395H100.197C100.044 86.5457 99.8918 86.5196 99.7495 86.4631C99.6057 86.4017 99.4778 86.3083 99.3756 86.19C99.2734 86.0717 99.1996 85.9316 99.1597 85.7804C99.1281 85.6371 99.1171 85.49 99.127 85.3436V84.9395C99.127 84.3934 99.127 83.8473 99.127 83.3012C99.127 82.209 99.127 81.1168 99.127 80.0246C99.127 79.4785 99.127 78.9324 99.127 78.3863C99.1165 78.2409 99.1165 78.0949 99.127 77.9494C99.1474 77.7888 99.2095 77.6363 99.3072 77.5071C99.4014 77.3753 99.5261 77.2682 99.6706 77.195C99.8151 77.1218 99.9752 77.0846 100.137 77.0866L145.813 77.3378L153.704 77.3924H154.555C154.706 77.3926 154.853 77.4288 154.987 77.4982C155.12 77.5676 155.234 77.6681 155.32 77.7911C155.474 78.0285 155.536 78.3139 155.495 78.5938C155.495 78.8505 155.495 79.1072 155.495 79.3529C155.495 80.3468 155.495 81.2588 155.495 82.0834C155.495 83.7217 155.457 84.9777 155.446 85.8514C155.432 86.0194 155.371 86.1801 155.27 86.3146C155.168 86.4491 155.03 86.5517 154.872 86.6105C154.769 86.6745 154.65 86.7086 154.528 86.7088Z" fill="#E0E0E0"/>
<path d="M129.217 80.1666H103.528V82.5749H129.217V80.1666Z" fill="#2972FF"/>
<path opacity="0.2" d="M129.217 80.1666H103.528V82.5749H129.217V80.1666Z" fill="white"/>
<path d="M113.259 94.3972L99.2137 94.3335L99.202 96.911L113.247 96.9748L113.259 94.3972Z" fill="#2972FF"/>
<path opacity="0.1" d="M113.259 94.3972L99.2137 94.3335L99.202 96.911L113.247 96.9748L113.259 94.3972Z" fill="black"/>
<path d="M154.173 110.224C154.284 110.21 154.393 110.19 154.501 110.164C154.653 110.115 154.794 110.034 154.913 109.927C155.031 109.82 155.125 109.688 155.189 109.541C155.275 109.321 155.309 109.083 155.287 108.847C155.287 108.585 155.287 108.301 155.287 107.985C155.287 107.351 155.287 106.63 155.287 105.8V102.333C155.313 102.081 155.258 101.829 155.129 101.612C154.994 101.389 154.782 101.224 154.534 101.148C154.262 101.099 153.985 101.084 153.709 101.104H145.851L100.334 100.935C100.089 100.935 99.8528 101.025 99.669 101.186C99.4851 101.348 99.3663 101.571 99.3345 101.814C99.3345 102.333 99.3345 102.906 99.3345 103.452C99.3345 104.544 99.3345 105.636 99.3345 106.729C99.3345 107.275 99.3345 107.821 99.3345 108.367C99.3142 108.622 99.3252 108.879 99.3673 109.131C99.4355 109.353 99.5758 109.545 99.7659 109.678C99.9677 109.806 100.205 109.867 100.443 109.852H101.202H102.78L114.865 109.912L135.328 110.038L149.122 110.147L152.874 110.191H149.122H135.328L114.855 110.169L102.769 110.125H100.394C100.099 110.143 99.8055 110.064 99.5584 109.901C99.3099 109.729 99.1286 109.477 99.0451 109.186C98.9962 108.909 98.9815 108.626 99.0014 108.345C99.0014 107.799 99.0014 107.253 99.0014 106.707C99.0014 105.615 99.0014 104.522 99.0014 103.43C99.0014 102.884 99.0014 102.338 99.0014 101.792C99.0413 101.48 99.1935 101.193 99.4298 100.985C99.666 100.776 99.9699 100.662 100.285 100.661L145.802 100.913L153.66 100.973C153.953 100.955 154.246 100.975 154.534 101.033C154.817 101.126 155.057 101.32 155.205 101.579C155.347 101.819 155.408 102.099 155.38 102.376C155.38 102.633 155.38 102.884 155.38 103.135C155.38 104.124 155.38 105.03 155.38 105.866C155.38 106.701 155.38 107.406 155.38 108.05C155.38 108.361 155.38 108.651 155.38 108.918C155.4 109.163 155.361 109.408 155.265 109.634C155.195 109.785 155.092 109.918 154.965 110.026C154.838 110.133 154.689 110.212 154.528 110.256C154.409 110.266 154.289 110.255 154.173 110.224Z" fill="#E0E0E0"/>
<path d="M113.153 118.932L99.1079 118.869L99.0962 121.446L113.142 121.51L113.153 118.932Z" fill="#2972FF"/>
<path opacity="0.1" d="M113.153 118.932L99.1079 118.869L99.0962 121.446L113.142 121.51L113.153 118.932Z" fill="black"/>
<path d="M154.064 134.749C154.174 134.736 154.284 134.716 154.392 134.689C154.544 134.64 154.683 134.56 154.802 134.454C154.921 134.348 155.015 134.217 155.08 134.072C155.165 133.851 155.199 133.614 155.178 133.378C155.178 133.11 155.178 132.832 155.178 132.51C155.178 131.882 155.178 131.155 155.178 130.325V126.858C155.204 126.607 155.149 126.354 155.02 126.137C154.882 125.918 154.671 125.756 154.424 125.678C154.153 125.628 153.876 125.611 153.6 125.629H145.742L100.225 125.46C99.9799 125.46 99.7436 125.55 99.5597 125.711C99.3759 125.873 99.2571 126.096 99.2253 126.339C99.2253 126.885 99.2253 127.431 99.2253 127.977C99.2253 129.069 99.2253 130.161 99.2253 131.254C99.2253 131.8 99.2253 132.346 99.2253 132.892C99.205 133.145 99.216 133.4 99.2581 133.651C99.3235 133.874 99.4644 134.067 99.6567 134.197C99.8572 134.328 100.095 134.389 100.334 134.372H102.709L114.794 134.437L135.257 134.563L149.051 134.672L152.803 134.716H149.051H135.257L114.794 134.656L102.709 134.607H100.334C100.038 134.627 99.7444 134.548 99.4984 134.383C99.2499 134.211 99.0685 133.958 98.985 133.667C98.9361 133.39 98.9214 133.107 98.9414 132.826C98.9414 132.28 98.9414 131.734 98.9414 131.188C98.9414 130.096 98.9414 129.004 98.9414 127.912C98.9414 127.365 98.9414 126.819 98.9414 126.246C98.98 125.934 99.1311 125.647 99.3665 125.439C99.6018 125.231 99.905 125.116 100.219 125.116L145.736 125.367L153.594 125.427C153.887 125.409 154.181 125.429 154.468 125.487C154.752 125.58 154.991 125.774 155.14 126.033C155.281 126.274 155.342 126.553 155.315 126.83C155.315 127.087 155.315 127.344 155.315 127.589C155.315 128.578 155.315 129.484 155.315 130.32C155.315 131.155 155.315 131.86 155.315 132.504C155.315 132.816 155.315 133.105 155.315 133.373C155.336 133.617 155.296 133.862 155.2 134.088C155.129 134.239 155.027 134.372 154.899 134.48C154.772 134.587 154.623 134.666 154.463 134.71C154.335 134.754 154.198 134.767 154.064 134.749Z" fill="#E0E0E0"/>
<path d="M128.668 104.362L102.98 104.246L102.969 106.654L128.657 106.771L128.668 104.362Z" fill="#2972FF"/>
<path opacity="0.2" d="M128.668 104.362L102.98 104.246L102.969 106.654L128.657 106.771L128.668 104.362Z" fill="white"/>
<path d="M105.303 130.293C105.287 130.512 105.207 130.722 105.073 130.897C104.938 131.071 104.755 131.202 104.547 131.274C104.339 131.346 104.114 131.355 103.901 131.3C103.688 131.245 103.495 131.128 103.347 130.965C103.199 130.802 103.103 130.599 103.069 130.381C103.036 130.163 103.067 129.941 103.159 129.74C103.251 129.54 103.4 129.372 103.587 129.255C103.774 129.139 103.991 129.08 104.211 129.086C104.515 129.103 104.801 129.239 105.005 129.465C105.21 129.691 105.317 129.988 105.303 130.293Z" fill="#2972FF"/>
<path d="M108.782 130.309C108.793 130.463 108.772 130.617 108.72 130.763C108.669 130.908 108.588 131.042 108.482 131.155C108.377 131.267 108.25 131.357 108.108 131.419C107.967 131.48 107.814 131.512 107.66 131.512C107.505 131.512 107.353 131.48 107.211 131.419C107.07 131.357 106.942 131.267 106.837 131.155C106.732 131.042 106.651 130.908 106.599 130.763C106.548 130.617 106.527 130.463 106.538 130.309C106.527 130.155 106.548 130 106.599 129.855C106.651 129.71 106.732 129.576 106.837 129.463C106.942 129.35 107.07 129.26 107.211 129.199C107.353 129.137 107.505 129.106 107.66 129.106C107.814 129.106 107.967 129.137 108.108 129.199C108.25 129.26 108.377 129.35 108.482 129.463C108.588 129.576 108.669 129.71 108.72 129.855C108.772 130 108.793 130.155 108.782 130.309Z" fill="#2972FF"/>
<path d="M112.266 130.325C112.25 130.545 112.17 130.755 112.035 130.93C111.901 131.104 111.718 131.235 111.51 131.307C111.302 131.378 111.077 131.387 110.864 131.332C110.65 131.277 110.458 131.161 110.31 130.998C110.162 130.835 110.066 130.631 110.032 130.414C109.999 130.196 110.03 129.973 110.122 129.773C110.214 129.573 110.363 129.404 110.55 129.288C110.737 129.172 110.954 129.113 111.174 129.118C111.478 129.137 111.762 129.273 111.966 129.499C112.17 129.725 112.278 130.021 112.266 130.325Z" fill="#2972FF"/>
<path d="M115.745 130.342C115.728 130.561 115.648 130.771 115.514 130.946C115.379 131.12 115.197 131.252 114.988 131.323C114.78 131.395 114.555 131.404 114.342 131.349C114.129 131.294 113.936 131.178 113.789 131.014C113.641 130.851 113.544 130.648 113.511 130.43C113.477 130.212 113.509 129.99 113.6 129.79C113.692 129.589 113.841 129.421 114.028 129.304C114.215 129.188 114.432 129.129 114.652 129.135C114.956 129.153 115.241 129.29 115.445 129.515C115.649 129.741 115.757 130.038 115.745 130.342Z" fill="#2972FF"/>
<path d="M119.223 130.353C119.208 130.573 119.129 130.783 118.995 130.959C118.861 131.134 118.679 131.266 118.47 131.338C118.262 131.411 118.037 131.42 117.824 131.366C117.61 131.312 117.417 131.196 117.269 131.033C117.12 130.869 117.023 130.666 116.989 130.448C116.955 130.23 116.986 130.007 117.078 129.807C117.17 129.607 117.319 129.437 117.506 129.321C117.693 129.204 117.911 129.145 118.131 129.151C118.434 129.17 118.717 129.305 118.921 129.53C119.125 129.754 119.234 130.05 119.223 130.353Z" fill="#2972FF"/>
<path d="M122.707 130.369C122.692 130.588 122.614 130.798 122.481 130.972C122.349 131.147 122.168 131.279 121.961 131.353C121.754 131.426 121.531 131.437 121.318 131.385C121.105 131.333 120.911 131.22 120.762 131.059C120.612 130.899 120.513 130.698 120.476 130.482C120.439 130.266 120.466 130.044 120.554 129.842C120.642 129.641 120.786 129.47 120.97 129.351C121.154 129.231 121.368 129.167 121.588 129.168C121.895 129.179 122.186 129.312 122.396 129.537C122.606 129.762 122.718 130.061 122.707 130.369Z" fill="#2972FF"/>
<path d="M126.186 130.385C126.197 130.539 126.176 130.694 126.124 130.839C126.073 130.985 125.992 131.118 125.886 131.231C125.781 131.344 125.654 131.434 125.512 131.495C125.371 131.557 125.218 131.589 125.064 131.589C124.909 131.589 124.757 131.557 124.615 131.495C124.474 131.434 124.346 131.344 124.241 131.231C124.136 131.118 124.055 130.985 124.003 130.839C123.952 130.694 123.931 130.539 123.941 130.385C123.931 130.231 123.952 130.077 124.003 129.931C124.055 129.786 124.136 129.653 124.241 129.54C124.346 129.427 124.474 129.337 124.615 129.275C124.757 129.214 124.909 129.182 125.064 129.182C125.218 129.182 125.371 129.214 125.512 129.275C125.654 129.337 125.781 129.427 125.886 129.54C125.992 129.653 126.073 129.786 126.124 129.931C126.176 130.077 126.197 130.231 126.186 130.385Z" fill="#2972FF"/>
<path d="M129.665 130.402C129.65 130.621 129.571 130.83 129.439 131.005C129.306 131.18 129.125 131.312 128.918 131.385C128.712 131.459 128.488 131.47 128.275 131.418C128.062 131.366 127.869 131.253 127.719 131.092C127.57 130.932 127.47 130.731 127.433 130.515C127.396 130.299 127.423 130.076 127.511 129.875C127.599 129.674 127.744 129.503 127.927 129.383C128.111 129.263 128.326 129.2 128.545 129.2C128.853 129.212 129.143 129.345 129.353 129.57C129.563 129.795 129.675 130.094 129.665 130.402Z" fill="#2972FF"/>
<path d="M133.143 130.418C133.128 130.638 133.049 130.849 132.915 131.024C132.781 131.199 132.599 131.331 132.39 131.404C132.182 131.476 131.957 131.486 131.743 131.432C131.53 131.377 131.337 131.261 131.188 131.098C131.04 130.935 130.943 130.732 130.909 130.514C130.875 130.296 130.906 130.073 130.998 129.872C131.09 129.672 131.239 129.503 131.426 129.386C131.613 129.27 131.831 129.211 132.051 129.217C132.354 129.235 132.637 129.371 132.841 129.595C133.045 129.82 133.154 130.115 133.143 130.418Z" fill="#2972FF"/>
<g opacity="0.2">
<path d="M105.303 130.293C105.287 130.512 105.207 130.722 105.073 130.897C104.938 131.071 104.755 131.202 104.547 131.274C104.339 131.346 104.114 131.355 103.901 131.3C103.688 131.245 103.495 131.128 103.347 130.965C103.199 130.802 103.103 130.599 103.069 130.381C103.036 130.163 103.067 129.941 103.159 129.74C103.251 129.54 103.4 129.372 103.587 129.255C103.774 129.139 103.991 129.08 104.211 129.086C104.515 129.103 104.801 129.239 105.005 129.465C105.21 129.691 105.317 129.988 105.303 130.293Z" fill="white"/>
<path d="M108.782 130.309C108.793 130.463 108.772 130.617 108.72 130.763C108.668 130.908 108.588 131.042 108.482 131.155C108.377 131.267 108.25 131.357 108.108 131.419C107.967 131.48 107.814 131.512 107.66 131.512C107.505 131.512 107.353 131.48 107.211 131.419C107.07 131.357 106.942 131.267 106.837 131.155C106.732 131.042 106.651 130.908 106.599 130.763C106.548 130.617 106.527 130.463 106.537 130.309C106.527 130.155 106.548 130 106.599 129.855C106.651 129.71 106.732 129.576 106.837 129.463C106.942 129.35 107.07 129.26 107.211 129.199C107.353 129.137 107.505 129.106 107.66 129.106C107.814 129.106 107.967 129.137 108.108 129.199C108.25 129.26 108.377 129.35 108.482 129.463C108.588 129.576 108.668 129.71 108.72 129.855C108.772 130 108.793 130.155 108.782 130.309Z" fill="white"/>
<path d="M112.266 130.325C112.25 130.545 112.17 130.755 112.035 130.93C111.901 131.104 111.718 131.235 111.51 131.307C111.301 131.378 111.077 131.387 110.863 131.332C110.65 131.277 110.458 131.161 110.31 130.998C110.162 130.835 110.066 130.631 110.032 130.414C109.999 130.196 110.03 129.973 110.122 129.773C110.214 129.573 110.363 129.404 110.55 129.288C110.737 129.172 110.954 129.113 111.174 129.118C111.477 129.137 111.762 129.273 111.966 129.499C112.17 129.725 112.278 130.021 112.266 130.325Z" fill="white"/>
<path d="M115.745 130.342C115.728 130.561 115.648 130.771 115.514 130.946C115.379 131.12 115.197 131.252 114.988 131.323C114.78 131.395 114.555 131.404 114.342 131.349C114.129 131.294 113.936 131.178 113.789 131.014C113.641 130.851 113.544 130.648 113.511 130.43C113.477 130.212 113.509 129.99 113.6 129.79C113.692 129.589 113.841 129.421 114.028 129.304C114.215 129.188 114.432 129.129 114.652 129.135C114.956 129.153 115.241 129.29 115.445 129.515C115.649 129.741 115.757 130.038 115.745 130.342Z" fill="white"/>
<path d="M119.223 130.353C119.208 130.573 119.129 130.783 118.995 130.959C118.861 131.134 118.679 131.266 118.47 131.338C118.262 131.411 118.037 131.42 117.824 131.366C117.61 131.312 117.417 131.196 117.269 131.033C117.12 130.869 117.023 130.666 116.989 130.448C116.955 130.23 116.986 130.007 117.078 129.807C117.17 129.607 117.319 129.437 117.506 129.321C117.693 129.204 117.911 129.145 118.131 129.151C118.434 129.17 118.717 129.305 118.921 129.53C119.125 129.754 119.234 130.05 119.223 130.353Z" fill="white"/>
<path d="M122.707 130.369C122.692 130.588 122.614 130.798 122.481 130.972C122.349 131.147 122.168 131.279 121.961 131.353C121.754 131.426 121.531 131.437 121.318 131.385C121.105 131.333 120.911 131.22 120.762 131.059C120.612 130.899 120.513 130.698 120.476 130.482C120.439 130.266 120.466 130.044 120.554 129.842C120.642 129.641 120.786 129.47 120.97 129.351C121.154 129.231 121.368 129.167 121.588 129.168C121.895 129.179 122.186 129.312 122.396 129.537C122.606 129.762 122.718 130.061 122.707 130.369Z" fill="white"/>
<path d="M126.186 130.385C126.197 130.539 126.176 130.694 126.124 130.839C126.073 130.985 125.992 131.118 125.886 131.231C125.781 131.344 125.654 131.434 125.512 131.495C125.371 131.557 125.218 131.589 125.064 131.589C124.909 131.589 124.757 131.557 124.615 131.495C124.474 131.434 124.346 131.344 124.241 131.231C124.136 131.118 124.055 130.985 124.003 130.839C123.952 130.694 123.931 130.539 123.941 130.385C123.931 130.231 123.952 130.077 124.003 129.931C124.055 129.786 124.136 129.653 124.241 129.54C124.346 129.427 124.474 129.337 124.615 129.275C124.757 129.214 124.909 129.182 125.064 129.182C125.218 129.182 125.371 129.214 125.512 129.275C125.654 129.337 125.781 129.427 125.886 129.54C125.992 129.653 126.073 129.786 126.124 129.931C126.176 130.077 126.197 130.231 126.186 130.385Z" fill="white"/>
<path d="M129.665 130.402C129.65 130.621 129.571 130.83 129.439 131.005C129.306 131.18 129.125 131.312 128.918 131.385C128.712 131.459 128.488 131.47 128.275 131.418C128.062 131.366 127.869 131.253 127.719 131.092C127.57 130.932 127.47 130.731 127.433 130.515C127.396 130.299 127.423 130.076 127.511 129.875C127.599 129.674 127.744 129.503 127.927 129.383C128.111 129.263 128.326 129.2 128.545 129.2C128.853 129.212 129.143 129.345 129.353 129.57C129.563 129.795 129.675 130.094 129.665 130.402Z" fill="white"/>
<path d="M133.143 130.418C133.128 130.638 133.049 130.849 132.915 131.024C132.781 131.199 132.599 131.331 132.39 131.404C132.182 131.476 131.957 131.486 131.743 131.432C131.53 131.377 131.337 131.261 131.188 131.098C131.04 130.935 130.943 130.732 130.909 130.514C130.875 130.296 130.906 130.073 130.998 129.872C131.09 129.672 131.239 129.503 131.426 129.386C131.613 129.27 131.831 129.211 132.051 129.217C132.354 129.235 132.637 129.371 132.841 129.595C133.045 129.82 133.154 130.115 133.143 130.418Z" fill="white"/>
</g>
<path d="M128.201 51.584C128.58 51.417 128.902 51.1421 129.126 50.7935C129.351 50.4449 129.468 50.038 129.462 49.6236C129.477 49.3541 129.436 49.0846 129.342 48.8315C129.249 48.5783 129.105 48.3469 128.919 48.1511C128.734 47.9554 128.51 47.7996 128.262 47.6931C128.014 47.5866 127.747 47.5316 127.477 47.5316C127.208 47.5316 126.941 47.5866 126.693 47.6931C126.445 47.7996 126.221 47.9554 126.035 48.1511C125.85 48.3469 125.706 48.5783 125.612 48.8315C125.519 49.0846 125.478 49.3541 125.492 49.6236C125.484 50.0422 125.6 50.4539 125.825 50.8067C126.051 51.1595 126.376 51.4376 126.759 51.6059C123.701 52.0646 123.838 55.3848 123.838 55.3848L131.068 55.4176C131.068 55.4176 131.237 52.0373 128.201 51.584Z" fill="#2972FF"/>
<path opacity="0.1" d="M128.201 51.584C128.58 51.417 128.902 51.1421 129.126 50.7935C129.351 50.4449 129.468 50.038 129.462 49.6236C129.477 49.3541 129.436 49.0846 129.342 48.8315C129.249 48.5783 129.105 48.3469 128.919 48.1511C128.734 47.9554 128.51 47.7996 128.262 47.6931C128.014 47.5866 127.747 47.5316 127.477 47.5316C127.208 47.5316 126.941 47.5866 126.693 47.6931C126.445 47.7996 126.221 47.9554 126.035 48.1511C125.85 48.3469 125.706 48.5783 125.612 48.8315C125.519 49.0846 125.478 49.3541 125.492 49.6236C125.484 50.0422 125.6 50.4539 125.825 50.8067C126.051 51.1595 126.376 51.4376 126.759 51.6059C123.701 52.0646 123.838 55.3848 123.838 55.3848L131.068 55.4176C131.068 55.4176 131.237 52.0373 128.201 51.584Z" fill="black"/>
<path d="M139.95 57.5591L114.18 57.4422L114.166 60.5221L139.936 60.639L139.95 57.5591Z" fill="#2972FF"/>
<path opacity="0.2" d="M139.95 57.5591L114.18 57.4422L114.166 60.5221L139.936 60.639L139.95 57.5591Z" fill="white"/>
<path d="M45.2112 73.5206H44.9545L44.2118 73.5752C43.8099 73.5994 43.4102 73.6523 43.0159 73.7336C42.7604 73.7695 42.5071 73.8187 42.2568 73.8811L41.4104 74.1159C39.9697 74.5579 38.6104 75.2311 37.3856 76.1091C35.7675 77.2837 34.4163 78.7874 33.421 80.5216C32.836 81.5212 32.3704 82.5861 32.0339 83.6944C31.6803 84.8989 31.4767 86.1425 31.4278 87.3969C31.3952 88.0558 31.4062 88.7162 31.4605 89.3738C31.4605 89.7069 31.5534 90.04 31.597 90.3786C31.6338 90.7199 31.6977 91.0577 31.7882 91.3888C32.2792 93.5802 33.2756 95.6264 34.6978 97.3644C36.12 99.1023 37.9287 100.484 39.9796 101.399C41.4639 102.039 43.0549 102.397 44.6705 102.453C46.3393 102.544 48.0096 102.305 49.5854 101.748L50.0659 101.568H50.1315L50.1861 101.601L57.0723 105.096L56.8703 105.271C56.1331 102.988 55.4231 100.776 54.7351 98.6519V98.57L54.7951 98.5099C56.4656 96.8273 57.7057 94.7668 58.4103 92.5029C59.0484 90.4332 59.2346 88.2505 58.9564 86.1026C58.7088 84.1938 58.0951 82.3506 57.1488 80.6745C56.3331 79.2346 55.2808 77.9423 54.0361 76.8518C53.0091 75.9887 51.8725 75.2652 50.6557 74.7002C49.7351 74.3031 48.7763 74.0012 47.7942 73.7992L46.702 73.6189L45.9102 73.5589L45.4296 73.5261H45.2658C45.3202 73.5201 45.3752 73.5201 45.4296 73.5261H45.9156L46.7075 73.5589L47.7997 73.7172C48.7939 73.9045 49.7658 74.1955 50.6994 74.5855C51.9371 75.1438 53.0942 75.8656 54.1398 76.7317C55.4074 77.8173 56.482 79.1098 57.3181 80.5543C58.2912 82.2485 58.9238 84.1166 59.1803 86.0535C59.4816 88.2346 59.3084 90.455 58.6724 92.5629C57.9632 94.8739 56.704 96.9783 55.0026 98.6956L55.0354 98.5536C55.7235 100.678 56.4389 102.89 57.1816 105.167L57.2853 105.5L56.974 105.342L50.0878 101.852H50.2079L49.7164 102.032C48.1103 102.597 46.4091 102.842 44.7088 102.753C43.0583 102.69 41.4341 102.32 39.9195 101.661C37.0305 100.424 34.6269 98.2732 33.077 95.5391C32.3637 94.2765 31.8428 92.9144 31.5315 91.4981C31.4463 91.1584 31.3824 90.8136 31.3404 90.4659C31.2967 90.1219 31.2257 89.7833 31.2093 89.4447C31.0615 87.5017 31.2669 85.5479 31.8155 83.678C32.1604 82.5545 32.6389 81.4764 33.2408 80.467C34.2599 78.7171 35.6392 77.2037 37.2873 76.0272C38.5322 75.1469 39.9144 74.4789 41.3776 74.0503L42.235 73.8319C42.4873 73.7734 42.7425 73.7278 42.9995 73.6954C43.3979 73.6216 43.8014 73.5778 44.2064 73.5643L44.9545 73.537C45.0396 73.5256 45.1253 73.5201 45.2112 73.5206Z" fill="#2972FF"/>
<path d="M48.3239 86.2555H47.3136L45.1293 83.1865V81.1714C45.1293 81.1714 43.5674 81.0731 43.7531 83.7107C43.9388 86.3484 43.7531 85.6767 43.7531 85.6767C43.7531 85.6767 40.4383 85.6767 40.1653 85.977C39.8922 86.2774 39.8758 89.4775 39.8376 91.2632C39.8167 91.6937 39.9402 92.1188 40.1885 92.471C40.4369 92.8233 40.7958 93.0824 41.2083 93.2073C41.3239 93.2393 41.4433 93.2559 41.5633 93.2565C42.3933 93.2565 46.6146 92.5848 46.6146 92.5848H48.3567L48.3239 86.2555Z" fill="#2972FF"/>
<path d="M51.2127 85.7149L50.5902 92.6175H48.8645V85.8569L51.2127 85.7149Z" fill="#2972FF"/>
<path d="M71.795 226.241V221.572L63.4234 221.512L63.3524 228.573L63.8712 228.611C66.1812 228.759 75.6231 228.977 77.1741 228.497C78.8997 227.961 71.795 226.241 71.795 226.241Z" fill="#2972FF"/>
<path d="M77.3707 228.06C77.3707 228.136 74.2361 228.202 70.3752 228.202C66.5143 228.202 63.3798 228.136 63.3798 228.06C63.3798 227.983 66.5143 227.918 70.3752 227.918C74.2361 227.918 77.3707 227.983 77.3707 228.06Z" fill="#263238"/>
<path d="M71.9425 227.197C71.8715 227.159 71.9425 226.913 72.1118 226.651C72.2811 226.389 72.5104 226.279 72.5651 226.334C72.6197 226.389 72.505 226.596 72.3412 226.82C72.1773 227.044 72.0135 227.235 71.9425 227.197Z" fill="#263238"/>
<path d="M72.4776 227.503C72.4012 227.503 72.4394 227.197 72.6033 226.907C72.7671 226.618 72.9855 226.443 73.0456 226.487C73.1057 226.531 73.0074 226.776 72.8545 227.033C72.7015 227.29 72.5486 227.53 72.4776 227.503Z" fill="#263238"/>
<path d="M65.9027 228.038C65.8699 228.038 65.7443 227.94 65.5641 227.732C65.3441 227.465 65.0991 227.22 64.8323 227C64.57 226.791 64.2576 226.653 63.9258 226.602C63.6692 226.569 63.5053 226.602 63.4889 226.569C63.4726 226.536 63.6309 226.421 63.9313 226.4C64.3277 226.391 64.7143 226.523 65.0235 226.771C65.3131 227.007 65.5574 227.294 65.7443 227.617C65.8699 227.858 65.9354 228.016 65.9027 228.038Z" fill="#263238"/>
<path d="M71.9697 226.318C72.008 226.383 71.866 226.547 71.6257 226.634C71.3854 226.722 71.1724 226.689 71.1615 226.634C71.1506 226.58 71.3199 226.465 71.5274 226.389C71.7349 226.312 71.926 226.252 71.9697 226.318Z" fill="#263238"/>
<path d="M71.8386 225.864C71.8386 225.946 71.6202 226.012 71.3362 226.017C71.0523 226.023 70.8284 225.957 70.8338 225.881C70.8393 225.804 71.0632 225.733 71.3362 225.728C71.6093 225.722 71.8277 225.788 71.8386 225.864Z" fill="#263238"/>
<path d="M92.41 226.241V221.572L84.0384 221.512L83.9674 228.502L84.4862 228.54C86.7962 228.688 96.2436 228.977 97.789 228.497C99.5147 227.961 92.41 226.241 92.41 226.241Z" fill="#2972FF"/>
<path d="M97.9857 228.071C97.9857 228.147 94.8566 228.213 90.9902 228.213C87.1239 228.213 84.0002 228.147 84.0002 228.071C84.0002 227.994 87.1294 227.929 90.9902 227.929C94.8511 227.929 97.9857 227.994 97.9857 228.071Z" fill="#263238"/>
<path d="M92.5575 227.197C92.492 227.159 92.5575 226.913 92.7268 226.651C92.8961 226.389 93.1254 226.279 93.18 226.334C93.2346 226.389 93.12 226.596 92.9561 226.82C92.7923 227.044 92.6285 227.235 92.5575 227.197Z" fill="#263238"/>
<path d="M93.0927 227.503C93.0217 227.503 93.0545 227.197 93.2238 226.907C93.3931 226.618 93.606 226.443 93.6661 226.487C93.7262 226.531 93.6224 226.776 93.4695 227.033C93.3166 227.29 93.1692 227.53 93.0927 227.503Z" fill="#263238"/>
<path d="M86.5177 228.038C86.4849 228.038 86.3648 227.94 86.1791 227.732C85.9591 227.465 85.7141 227.22 85.4473 227C85.185 226.791 84.8725 226.653 84.5408 226.602C84.2896 226.569 84.1203 226.602 84.1039 226.569C84.0876 226.536 84.2459 226.421 84.5463 226.4C84.9427 226.391 85.3293 226.523 85.6385 226.771C85.9296 227.005 86.1741 227.293 86.3593 227.617C86.4849 227.858 86.5504 228.016 86.5177 228.038Z" fill="#263238"/>
<path d="M92.5848 226.318C92.6231 226.383 92.4811 226.547 92.2408 226.634C92.0005 226.722 91.7875 226.689 91.7766 226.634C91.7657 226.58 91.935 226.465 92.1425 226.389C92.35 226.312 92.5412 226.252 92.5848 226.318Z" fill="#263238"/>
<path d="M92.4647 225.864C92.4647 225.946 92.2462 226.012 91.9623 226.017C91.6783 226.023 91.4598 225.957 91.4653 225.881C91.4708 225.804 91.6892 225.733 91.9623 225.728C92.2353 225.722 92.4647 225.788 92.4647 225.864Z" fill="#263238"/>
<path d="M123.253 87.588C123.035 87.3641 122.494 87.4733 122.494 87.4733C122.549 87.1589 122.549 86.8375 122.494 86.5231C122.396 86.2173 121.708 86.2774 121.708 86.2774C121.676 86.0199 121.676 85.7594 121.708 85.5019C121.713 85.4448 121.701 85.3875 121.673 85.3376C121.645 85.2878 121.601 85.2479 121.55 85.2234C121.224 85.0907 120.874 85.0274 120.523 85.0377C120.102 84.7374 121.806 82.351 122.44 81.5864C123.073 80.8219 122.959 80.2267 122.396 80.2267C122.008 80.2267 120.021 82.5202 119.409 83.2902C118.797 84.0602 117.175 86.2009 117.121 84.4916C117.066 82.7824 116.378 81.4936 115.947 81.2752C115.515 81.0567 115.057 81.57 115.291 82.0451C115.498 82.5849 115.626 83.1512 115.674 83.7271C115.733 84.1859 115.713 84.6514 115.614 85.1033C115.433 85.944 115.186 86.7693 114.876 87.5716H114.833C114.833 87.5716 102.917 99.0014 102.054 99.815C101.284 100.547 85.7969 98.9468 82.6896 98.6191C81.6337 98.4646 80.5675 98.3916 79.5004 98.4007C78.1515 98.4607 77.9112 98.6519 76.5679 98.6682C73.1752 98.7059 69.7904 99.0035 66.4433 99.5584C64.9277 99.816 63.5119 100.485 62.3506 101.492C61.1892 102.5 60.3267 103.807 59.8574 105.271C56.7283 115.046 49.64 138.184 48.3894 151.181C47.4444 152.894 46.5913 154.657 45.8337 156.461C44.9545 158.853 45.1675 158.935 45.4623 158.99C46.2596 159.137 47.1662 154.845 47.5047 155.883C47.8433 156.92 45.7845 160.999 46.6201 161.12C47.7123 161.272 48.5805 156.751 48.6843 156.39C48.7881 156.03 49.3287 156.145 49.2304 156.483C49.072 156.964 47.5375 162.059 48.6079 162.223C49.1976 162.31 49.2632 161.234 49.2632 161.234C49.2632 161.234 50.3554 156.358 50.8523 156.456C51.3492 156.554 50.8195 159.432 50.5683 160.393C50.3171 161.354 50.6666 161.84 51.1799 161.606C51.5294 161.442 52.365 158.52 52.5943 157.57C52.8237 156.62 53.3971 153.988 54.1671 155.511C54.9371 157.035 56.1057 157.919 56.5863 157.941C56.6946 157.929 56.7966 157.884 56.8794 157.813C56.9621 157.742 57.0217 157.648 57.0504 157.543C57.0792 157.438 57.0759 157.326 57.0409 157.223C57.0058 157.12 56.9407 157.03 56.8539 156.964C56.4405 156.56 56.0858 156.101 55.7999 155.599C55.5452 155.207 55.3604 154.775 55.2538 154.321C55.0338 153.415 54.9057 152.489 54.8715 151.557L54.7842 151.011C56.0074 144.955 59.5297 127.18 64.6139 115.827L66.6999 120.119L67.6065 123.297L62.0472 137.02L85.7586 136.709L82.2199 123.09L86.5177 108.891C91.165 108.995 103.097 109.17 105.085 108.269C107.586 107.176 120.523 90.8373 120.523 90.8373C121.366 90.182 122.174 89.482 122.942 88.7403C122.942 88.7403 123.729 88.0795 123.253 87.588Z" fill="#FFBE9D"/>
<path d="M61.0042 126.879C61.6922 124.531 65.2255 112.921 65.2255 112.921C65.2255 112.921 66.9621 122.385 66.5033 123.526C66.0814 124.504 65.5829 125.446 65.0125 126.344C61.0042 132.444 61.5284 135.497 61.5284 135.497L85.7477 134.76C85.8023 131.374 83.7981 123.499 83.3831 122.243C82.9681 120.987 84.3497 116.875 84.3497 116.875C84.3497 116.875 87.0802 114.095 86.9819 112.665C86.93 111.379 86.7711 110.101 86.5068 108.842L101.251 109.388L100.787 99.3946L79.6096 97.2757C78.8724 99.3563 72.2045 98.3351 72.2045 98.3351C65.007 98.5754 64.5592 99.897 61.5666 102.223C58.574 104.55 53.621 124.515 53.621 124.515L61.0042 126.879Z" fill="#2972FF"/>
<path d="M75.3227 124.515C74.903 124.59 74.4755 124.612 74.0503 124.58C73.2585 124.58 72.1717 124.526 70.9758 124.406C69.7799 124.286 68.6986 124.116 67.9286 123.963C67.504 123.909 67.0877 123.802 66.689 123.647C67.1159 123.647 67.5419 123.687 67.9614 123.767C68.7368 123.865 69.8126 124.002 71.0031 124.122C72.1936 124.242 73.2749 124.324 74.0558 124.378C74.4814 124.384 74.9057 124.429 75.3227 124.515Z" fill="#263238"/>
<path d="M76.9829 122.456C76.5631 122.662 76.1191 122.814 75.6614 122.909C73.4827 123.482 71.2349 123.748 68.9827 123.701C68.5166 123.716 68.0505 123.672 67.5956 123.57C68.0555 123.512 68.5192 123.488 68.9827 123.499C69.84 123.472 71.0196 123.412 72.3193 123.259C73.619 123.106 74.7767 122.888 75.5959 122.713C76.0508 122.591 76.5146 122.505 76.9829 122.456Z" fill="#263238"/>
<path d="M85.1307 113.271C85.1196 113.687 85.0628 114.101 84.9614 114.505C84.8194 115.264 84.6009 116.302 84.3224 117.437C84.0439 118.573 83.7763 119.622 83.5361 120.332C83.4394 120.738 83.2965 121.132 83.1101 121.506C83.1405 121.091 83.2175 120.681 83.3395 120.283C83.547 119.431 83.7818 118.448 84.0439 117.372C84.3061 116.296 84.5573 115.313 84.7648 114.461C84.8387 114.051 84.9615 113.652 85.1307 113.271Z" fill="#263238"/>
<path d="M61.2608 125.487C59.9975 125.292 58.7507 125.002 57.531 124.619C56.2848 124.327 55.0618 123.944 53.8722 123.472C55.1349 123.67 56.3815 123.96 57.602 124.34C58.8486 124.63 60.0716 125.014 61.2608 125.487Z" fill="#263238"/>
<path d="M86.769 108.722C86.563 108.757 86.3524 108.757 86.1464 108.722C85.576 108.663 85.0159 108.529 84.4808 108.323C83.5875 107.988 82.7742 107.469 82.0933 106.8C81.4124 106.131 80.8789 105.328 80.5271 104.44C80.1382 103.465 79.9722 102.414 80.0411 101.366C80.0654 100.501 80.324 99.6596 80.7892 98.9304C81.1164 98.4392 81.6052 98.0779 82.1708 97.9092C82.322 97.8675 82.4782 97.8473 82.635 97.8491C82.7442 97.8491 82.7988 97.8491 82.7988 97.8491C82.7988 97.8491 82.5695 97.8491 82.2036 97.9966C81.6847 98.1883 81.2446 98.5476 80.953 99.0178C80.2104 100.186 80.0028 102.322 80.7947 104.315C81.1632 105.255 81.7402 106.099 82.4821 106.783C83.09 107.343 83.7903 107.794 84.5518 108.116C85.2665 108.398 86.01 108.601 86.769 108.722Z" fill="#263238"/>
<path d="M99.4983 109.191C99.3617 107.517 99.3179 105.836 99.3673 104.157C99.3245 102.478 99.3755 100.799 99.5202 99.127C99.6569 100.8 99.7006 102.479 99.6512 104.157C99.6971 105.836 99.6461 107.517 99.4983 109.191Z" fill="#263238"/>
<path d="M79.4676 97.8873C79.5277 96.6696 79.6532 95.2934 79.6532 95.2934C79.6532 95.2934 82.6677 94.9603 82.8479 91.8475C83.0281 88.7348 82.8479 81.5537 82.8479 81.5537L77.387 78.7577L71.3253 83.5251L72.2591 99.0888L77.8184 99.4437C78.2433 99.4555 78.6556 99.2982 78.9647 99.0065C79.2739 98.7147 79.4547 98.3122 79.4676 97.8873Z" fill="#FFBE9D"/>
<path d="M80.0083 89.3846C80.0083 89.3846 80.0083 89.4447 79.9591 89.5157C79.9185 89.5672 79.8659 89.608 79.806 89.6347C79.7461 89.6613 79.6805 89.673 79.6151 89.6686C79.2656 89.6686 78.927 89.2645 78.8069 88.7949C78.7498 88.5672 78.7498 88.329 78.8069 88.1013C78.8181 88.002 78.8539 87.907 78.9111 87.8249C78.9683 87.7429 79.0451 87.6765 79.1345 87.6317C79.208 87.6013 79.2904 87.6013 79.3639 87.6317C79.4183 87.6587 79.4624 87.7028 79.4895 87.7573C79.5277 87.8501 79.4895 87.9102 79.4895 87.9047C79.4895 87.8993 79.4895 87.8501 79.4349 87.7955C79.4063 87.7564 79.3643 87.7292 79.317 87.7191C79.2696 87.709 79.2202 87.7168 79.1782 87.7409C79.1112 87.7814 79.0556 87.8382 79.0164 87.906C78.9773 87.9738 78.9559 88.0504 78.9543 88.1286C78.9083 88.3318 78.9083 88.5426 78.9543 88.7457C79.0635 89.1717 79.3584 89.5157 79.6205 89.5485C79.6718 89.5554 79.724 89.5517 79.7738 89.5377C79.8236 89.5236 79.8699 89.4994 79.91 89.4666C79.9755 89.4229 79.9973 89.3792 80.0083 89.3846Z" fill="#EB996E"/>
<path d="M84.7211 79.8717C84.3006 78.4409 82.777 77.731 81.3899 77.3378C79.2765 76.7371 76.9939 76.475 74.9296 77.2341C72.8654 77.9931 70.3861 79.3256 70.3861 81.6028C69.1683 81.5045 68.4693 82.5694 67.9888 83.891C67.6815 84.6961 67.4974 85.543 67.4427 86.403C67.2898 89.3847 66.4543 93.5022 64.5211 95.6866C63.4289 96.9044 61.9162 97.7454 61.2937 99.2635C60.7476 100.58 61.0315 102.141 60.5237 103.474C60.0704 104.648 59.0711 105.484 58.3393 106.505C57.5938 107.663 57.155 108.992 57.0643 110.367C56.9735 111.741 57.2338 113.117 57.8205 114.363C58.4115 115.577 59.2435 116.659 60.2659 117.541C61.2883 118.424 62.4797 119.089 63.7675 119.496C66.3183 120.272 69.0384 120.299 71.6039 119.573C73.5293 119.112 75.3254 118.222 76.8573 116.968C78.4248 115.688 79.5014 113.905 79.9045 111.922C80.2923 109.694 79.6697 107.428 79.2055 105.21C77.7529 98.2041 78.168 97.8382 80.0028 91.3342C80.0465 91.2195 80.0684 91.0994 80.1011 90.9847C80.1339 90.87 80.1503 90.8154 80.1721 90.7281C80.2243 90.4709 80.2517 90.2095 80.254 89.9471C79.986 90.0468 79.6952 90.0679 79.4156 90.0079C79.136 89.9479 78.8794 89.8094 78.6758 89.6086C78.4718 89.3944 78.3296 89.1291 78.2642 88.8406C78.1988 88.5522 78.2127 88.2514 78.3045 87.9703C78.4333 87.6628 78.6253 87.3857 78.868 87.1572C79.1107 86.9286 79.3987 86.7535 79.7134 86.6433C80.3196 86.3921 80.9694 86.261 81.5647 85.9825C82.8261 85.3818 83.6999 84.1367 84.2951 82.8315C84.7845 81.9269 84.9355 80.8776 84.7211 79.8717Z" fill="#263238"/>
<path d="M80.2267 89.5321C80.3421 89.7026 80.4374 89.8858 80.5107 90.0782C80.6745 90.4222 80.893 90.9083 81.1333 91.4707L81.177 91.5745H81.0623L80.5162 91.6236C80.1394 91.6236 79.8226 91.6946 79.4513 91.6892C79.419 91.6819 79.389 91.6666 79.3642 91.6446C79.3393 91.6227 79.3205 91.5948 79.3093 91.5636C79.2931 91.5139 79.2931 91.4603 79.3093 91.4107C79.322 91.3371 79.3384 91.2642 79.3585 91.1922L79.4568 90.8045C79.5062 90.5458 79.583 90.2932 79.6861 90.0509C79.676 90.3146 79.6375 90.5764 79.5714 90.8318L79.495 91.2195C79.4677 91.3506 79.4185 91.5527 79.495 91.5363C79.768 91.5363 80.1558 91.4762 80.5162 91.4544L81.0623 91.4052L80.9913 91.5253C80.7565 90.9793 80.5599 90.4659 80.4452 90.111C80.3446 89.9297 80.271 89.7347 80.2267 89.5321Z" fill="#2972FF"/>
<path d="M61.5284 135.497L85.7477 134.76L96.2873 175.902L94.3487 223.096H81.5428L83.1101 176.907L73.7446 148.265L75.1862 224.925L62.2438 225.116L60.884 153.059C60.824 151.055 60.1687 146.539 60.4144 144.551L61.5284 135.497Z" fill="#263238"/>
<path d="M76.9665 148.849C76.57 148.874 76.172 148.85 75.7814 148.778C75.0497 148.69 74.0503 148.538 72.9527 148.319C71.855 148.101 70.8721 147.849 70.1621 147.647C69.7826 147.564 69.4155 147.432 69.0699 147.254C69.0699 147.172 70.8502 147.598 73.0346 148.041C75.219 148.483 76.9774 148.767 76.9665 148.849Z" fill="#455A64"/>
<path d="M94.2176 220.507C94.2176 220.584 91.3178 220.649 87.7409 220.649C84.164 220.649 81.2588 220.584 81.2588 220.507C81.2588 220.431 84.1586 220.365 87.7409 220.365C91.3233 220.365 94.2176 220.425 94.2176 220.507Z" fill="#455A64"/>
<path d="M75.0715 222.932C75.0715 223.014 72.2537 223.074 68.7805 223.074C65.3074 223.074 62.495 223.014 62.495 222.932C62.495 222.85 65.3128 222.79 68.7805 222.79C72.2482 222.79 75.0715 222.855 75.0715 222.932Z" fill="#455A64"/>
<path d="M73.4005 222.735C73.3241 222.735 72.9855 205.987 72.6415 185.328C72.2974 164.669 72.0954 147.91 72.1664 147.91C72.2374 147.91 72.5869 164.653 72.9254 185.322C73.264 205.992 73.4825 222.735 73.4005 222.735Z" fill="#455A64"/>
<path d="M92.4974 220.507C92.4914 220.433 92.4914 220.358 92.4974 220.283V219.628C92.4974 219.038 92.5411 218.192 92.5739 217.116C92.6503 214.932 92.7595 211.759 92.8961 207.871C93.191 200.051 93.606 189.271 94.0592 177.371C94.0592 177.257 94.0592 177.147 94.0592 177.049V177.087C91.1923 165.619 88.5983 155.211 86.7143 147.68L84.5299 138.773C84.2787 137.73 84.0876 136.917 83.9511 136.349C83.8855 136.081 83.8418 135.874 83.8036 135.715C83.7823 135.644 83.7695 135.571 83.7654 135.497C83.7937 135.566 83.8157 135.637 83.8309 135.71C83.8746 135.863 83.9292 136.07 84.0057 136.332C84.1531 136.878 84.3661 137.709 84.6391 138.746C85.1852 140.854 85.9552 143.89 86.9163 147.631C88.8167 155.156 91.438 165.537 94.3432 177.022V177.06C94.3432 177.158 94.3432 177.273 94.3432 177.382C93.8572 189.282 93.4149 200.056 93.0927 207.876C92.9234 211.77 92.7814 214.921 92.6831 217.116C92.6285 218.208 92.5848 219.038 92.5575 219.628C92.5575 219.907 92.5247 220.125 92.5193 220.283C92.5201 220.359 92.5127 220.434 92.4974 220.507Z" fill="#455A64"/>
<path d="M88.3198 176.088C87.4 176.39 86.4524 176.601 85.491 176.716C84.3115 176.918 83.3067 177.06 82.8534 177.082V176.973C83.0009 177.016 83.0773 177.044 83.0773 177.066C83.0773 177.087 82.9845 177.066 82.8316 177.066H82.5039L82.8316 176.967C83.2575 176.842 84.2623 176.634 85.4419 176.421C86.3879 176.216 87.3519 176.104 88.3198 176.088Z" fill="#455A64"/>
<path d="M88.0959 177.655C87.2441 177.694 86.3906 177.656 85.5457 177.541C84.6927 177.523 83.8429 177.43 83.0063 177.262C84.713 177.123 86.4309 177.256 88.0959 177.655Z" fill="#455A64"/>
<path opacity="0.2" d="M61.4247 136.365C61.7115 136.733 62.0728 137.037 62.4849 137.256C62.8971 137.476 63.3508 137.606 63.8166 137.638C64.792 137.753 65.7786 137.735 66.7491 137.583C73.0019 136.889 79.626 136.25 85.7477 134.76C77.8239 135.202 69.4523 135.055 61.5284 135.497L61.4465 136.174" fill="black"/>
<g opacity="0.2">
<path d="M69.5887 147.533L74.0558 164.866L73.7445 148.265L69.5887 147.533Z" fill="black"/>
</g>
</svg>
